  0
SECTION
  2
HEADER
  9
$ACADVER
  1
AC1009
  9
$INSBASE
 10
0.0
 20
0.0
 30
0.0
  9
$EXTMIN
 10
0.0
 20
0.0
 30
0.0
  9
$EXTMAX
 10
0.0
 20
0.0
 30
0.0
  0
ENDSEC
  0
SECTION
  2
TABLES
  0
TABLE
  2
VPORT
 70
0
  0
ENDTAB
  0
TABLE
  2
LTYPE
 70
1
  0
LTYPE
  2
CONTINUOUS
 70
0
  3
Solid line
 72
65
 73
0
 40
0.0
  0
ENDTAB
  0
TABLE
  2
LAYER
 70
1
  0
LAYER
  2
0
 70
64
 62
7
  6
continuous
  0
ENDTAB
  0
TABLE
  2
STYLE
 70
1
  0
STYLE
  2
STANDARD
 70
0
 40
0
 41
1.0
 50
0.0
 71
0
 42
1
 3
ARIAL.TTF
 4

  0
ENDTAB
  0
TABLE
  2
VIEW
 70
0
  0
ENDTAB
  0
ENDSEC
  0
SECTION
  2
BLOCKS
  0
BLOCK
  8
0
  2
SHAPE2DVIEW
 70
0
 10
0.0
 20
0.0
 30
0.0
  3
SHAPE2DVIEW
  0
CIRCLE
  8
0
 62
0
 10
50.145006872710816
 20
57.000006380252
 30
0.0
 40
1.2500000000000002
  0
CIRCLE
  8
0
 62
0
 10
-44.85505712728921
 20
18.99998078025199
 30
0.0
 40
1.2500000000000002
  0
CIRCLE
  8
0
 62
0
 10
145.14507087271102
 20
76.000019180252
 30
0.0
 40
1.2500000000000002
  0
CIRCLE
  8
0
 62
0
 10
-44.85505712728921
 20
76.000019180252
 30
0.0
 40
1.2500000000000002
  0
CIRCLE
  8
0
 62
0
 10
145.14507087271102
 20
18.99998078025199
 30
0.0
 40
1.2500000000000002
  0
ARC
  8
0
 62
0
 10
161.85910486701601
 20
2.286000000000089
 30
0.0
 40
2.2860000000000005
 50
-90.0
 51
-0.0
  0
LINE
  8
0
 62
0
 10
-61.56889528548809
 20
8.599146319796636e-14
 30
0.0
 11
161.85910486701601
 21
8.599146319796636e-14
 31
0.0
  0
LINE
  8
0
 62
0
 10
164.14510486701602
 20
2.2860000000000786
 30
0.0
 11
164.14510486701616
 21
92.71399996050398
 31
0.0
  0
ARC
  8
0
 62
0
 10
161.85910486701601
 20
92.713999960504
 30
0.0
 40
2.2860000000000005
 50
-0.0
 51
90.0
  0
LINE
  8
0
 62
0
 10
161.85910486701601
 20
94.99999996050407
 30
0.0
 11
-61.568895285487976
 21
94.99999996050413
 31
0.0
  0
ARC
  8
0
 62
0
 10
-61.56889528548801
 20
92.7139999605041
 30
0.0
 40
2.2860000000000005
 50
90.0
 51
-180.0
  0
LINE
  8
0
 62
0
 10
-63.85489528548801
 20
92.7139999605041
 30
0.0
 11
-63.85489528548812
 21
2.2860000000000866
 31
0.0
  0
ARC
  8
0
 62
0
 10
-61.56889528548811
 20
2.286000000000079
 30
0.0
 40
2.2860000000000005
 50
180.0
 51
-90.0
  0
LINE
  8
0
 62
0
 10
85.6448048525893
 20
2.500320600440999
 30
0.0
 11
14.645208892832304
 21
2.500320600440999
 31
0.0
  0
LINE
  8
0
 62
0
 10
14.645208892832304
 20
2.5003206004409995
 30
0.0
 11
14.645208892832304
 21
3.499421139955049
 31
0.0
  0
LINE
  8
0
 62
0
 10
14.645208892832304
 20
3.499421139955049
 30
0.0
 11
13.845948461231904
 21
3.499421139955049
 31
0.0
  0
LINE
  8
0
 62
0
 10
13.845948461231904
 20
3.49942113995505
 30
0.0
 11
13.845948461231904
 21
6.59992281422498
 31
0.0
  0
LINE
  8
0
 62
0
 10
13.845948461231904
 20
6.59992281422498
 30
0.0
 11
14.645208892832304
 21
6.59992281422498
 31
0.0
  0
LINE
  8
0
 62
0
 10
14.645208892832304
 20
6.599922814224981
 30
0.0
 11
14.645208892832304
 21
12.40002594627899
 31
0.0
  0
LINE
  8
0
 62
0
 10
14.645208892832304
 20
12.40002594627899
 30
0.0
 11
13.845948461231904
 21
12.40002594627899
 31
0.0
  0
LINE
  8
0
 62
0
 10
13.845948461231904
 20
12.40002594627899
 30
0.0
 11
13.845948461231904
 21
15.49952762000899
 31
0.0
  0
LINE
  8
0
 62
0
 10
13.845948461231904
 20
15.49952762000899
 30
0.0
 11
14.645208892832304
 21
15.49952762000899
 31
0.0
  0
LINE
  8
0
 62
0
 10
14.645208892832304
 20
15.499527620008992
 30
0.0
 11
14.645208892832304
 21
16.499628160062993
 31
0.0
  0
LINE
  8
0
 62
0
 10
14.645208892832315
 20
16.499628160062993
 30
0.0
 11
85.64480485258932
 21
16.499628160062993
 31
0.0
  0
LINE
  8
0
 62
0
 10
85.64480485258932
 20
16.49962816006299
 30
0.0
 11
85.64480485258932
 21
15.49952762000899
 31
0.0
  0
LINE
  8
0
 62
0
 10
85.64480485258932
 20
15.49952762000899
 30
0.0
 11
86.44540528491342
 21
15.49952762000899
 31
0.0
  0
LINE
  8
0
 62
0
 10
86.44540528491342
 20
15.49952762000899
 30
0.0
 11
86.44540528491342
 21
12.40002594627899
 31
0.0
  0
LINE
  8
0
 62
0
 10
86.44540528491342
 20
12.40002594627899
 30
0.0
 11
85.64480485258932
 21
12.40002594627899
 31
0.0
  0
LINE
  8
0
 62
0
 10
85.64480485258932
 20
12.40002594627899
 30
0.0
 11
85.64480485258932
 21
6.59992281422498
 31
0.0
  0
LINE
  8
0
 62
0
 10
85.64480485258932
 20
6.59992281422498
 30
0.0
 11
86.44540528491342
 21
6.59992281422498
 31
0.0
  0
LINE
  8
0
 62
0
 10
86.44540528491342
 20
6.599922814224979
 30
0.0
 11
86.44540528491342
 21
3.499421139955049
 31
0.0
  0
LINE
  8
0
 62
0
 10
86.44540528491342
 20
3.499421139955049
 30
0.0
 11
85.64480485258932
 21
3.499421139955049
 31
0.0
  0
LINE
  8
0
 62
0
 10
85.64480485258932
 20
3.4994211399550488
 30
0.0
 11
85.64480485258932
 21
2.500320600440999
 31
0.0
  0
LINE
  8
0
 62
0
 10
123.64483045258903
 20
16.49962816006299
 30
0.0
 11
123.64483045258903
 21
15.49952762000899
 31
0.0
  0
LINE
  8
0
 62
0
 10
123.64483045258903
 20
15.49952762000899
 30
0.0
 11
124.44543088491302
 21
15.49952762000899
 31
0.0
  0
LINE
  8
0
 62
0
 10
124.44543088491302
 20
15.49952762000899
 30
0.0
 11
124.44543088491302
 21
12.40002594627899
 31
0.0
  0
LINE
  8
0
 62
0
 10
124.44543088491302
 20
12.40002594627899
 30
0.0
 11
123.64483045258903
 21
12.40002594627899
 31
0.0
  0
LINE
  8
0
 62
0
 10
123.64483045258903
 20
12.40002594627899
 30
0.0
 11
123.64483045258903
 21
6.59992281422498
 31
0.0
  0
LINE
  8
0
 62
0
 10
123.64483045258903
 20
6.59992281422498
 30
0.0
 11
124.44543088491302
 21
6.59992281422498
 31
0.0
  0
LINE
  8
0
 62
0
 10
124.44543088491302
 20
6.599922814224979
 30
0.0
 11
124.44543088491302
 21
3.499421139955049
 31
0.0
  0
LINE
  8
0
 62
0
 10
124.44543088491302
 20
3.499421139955049
 30
0.0
 11
123.64483045258903
 21
3.499421139955049
 31
0.0
  0
LINE
  8
0
 62
0
 10
123.64483045258903
 20
3.4994211399550488
 30
0.0
 11
123.64483045258903
 21
2.500320600440999
 31
0.0
  0
LINE
  8
0
 62
0
 10
123.64483045258903
 20
2.500320600440999
 30
0.0
 11
109.64527289283203
 21
2.500320600440999
 31
0.0
  0
LINE
  8
0
 62
0
 10
109.64527289283203
 20
2.5003206004409995
 30
0.0
 11
109.64527289283203
 21
3.499421139955049
 31
0.0
  0
LINE
  8
0
 62
0
 10
109.64527289283203
 20
3.499421139955049
 30
0.0
 11
108.84601246123202
 21
3.499421139955049
 31
0.0
  0
LINE
  8
0
 62
0
 10
108.84601246123202
 20
3.49942113995505
 30
0.0
 11
108.84601246123202
 21
6.59992281422498
 31
0.0
  0
LINE
  8
0
 62
0
 10
108.84601246123202
 20
6.59992281422498
 30
0.0
 11
109.64527289283203
 21
6.59992281422498
 31
0.0
  0
LINE
  8
0
 62
0
 10
109.64527289283203
 20
6.599922814224981
 30
0.0
 11
109.64527289283203
 21
12.40002594627899
 31
0.0
  0
LINE
  8
0
 62
0
 10
109.64527289283203
 20
12.40002594627899
 30
0.0
 11
108.84601246123202
 21
12.40002594627899
 31
0.0
  0
LINE
  8
0
 62
0
 10
108.84601246123202
 20
12.40002594627899
 30
0.0
 11
108.84601246123202
 21
15.49952762000899
 31
0.0
  0
LINE
  8
0
 62
0
 10
108.84601246123202
 20
15.49952762000899
 30
0.0
 11
109.64527289283203
 21
15.49952762000899
 31
0.0
  0
LINE
  8
0
 62
0
 10
109.64527289283203
 20
15.499527620008992
 30
0.0
 11
109.64527289283203
 21
16.499628160062993
 31
0.0
  0
LINE
  8
0
 62
0
 10
109.64527289283203
 20
16.499628160062993
 30
0.0
 11
123.64483045258903
 21
16.499628160062993
 31
0.0
  0
LINE
  8
0
 62
0
 10
142.64484325258903
 20
73.499666560063
 30
0.0
 11
142.64484325258903
 21
72.499566020009
 31
0.0
  0
LINE
  8
0
 62
0
 10
142.64484325258903
 20
72.499566020009
 30
0.0
 11
143.44544368491302
 21
72.499566020009
 31
0.0
  0
LINE
  8
0
 62
0
 10
143.44544368491302
 20
72.499566020009
 30
0.0
 11
143.44544368491302
 21
69.400064346279
 31
0.0
  0
LINE
  8
0
 62
0
 10
143.44544368491302
 20
69.400064346279
 30
0.0
 11
142.64484325258903
 21
69.400064346279
 31
0.0
  0
LINE
  8
0
 62
0
 10
142.64484325258903
 20
69.400064346279
 30
0.0
 11
142.64484325258903
 21
63.599961214225
 31
0.0
  0
LINE
  8
0
 62
0
 10
142.64484325258903
 20
63.599961214225
 30
0.0
 11
143.44544368491302
 21
63.599961214225
 31
0.0
  0
LINE
  8
0
 62
0
 10
143.44544368491302
 20
63.599961214225
 30
0.0
 11
143.44544368491302
 21
60.499459539955
 31
0.0
  0
LINE
  8
0
 62
0
 10
143.44544368491302
 20
60.499459539955
 30
0.0
 11
142.64484325258903
 21
60.499459539955
 31
0.0
  0
LINE
  8
0
 62
0
 10
142.64484325258903
 20
60.499459539955
 30
0.0
 11
142.64484325258903
 21
59.500359000441
 31
0.0
  0
LINE
  8
0
 62
0
 10
142.64484325258903
 20
59.500359000441
 30
0.0
 11
128.64528569283203
 21
59.500359000441
 31
0.0
  0
LINE
  8
0
 62
0
 10
128.64528569283203
 20
59.500359000441
 30
0.0
 11
128.64528569283203
 21
60.499459539955
 31
0.0
  0
LINE
  8
0
 62
0
 10
128.64528569283203
 20
60.499459539955
 30
0.0
 11
127.84602526123203
 21
60.499459539955
 31
0.0
  0
LINE
  8
0
 62
0
 10
127.84602526123203
 20
60.499459539955
 30
0.0
 11
127.84602526123203
 21
63.599961214225
 31
0.0
  0
LINE
  8
0
 62
0
 10
127.84602526123203
 20
63.599961214225
 30
0.0
 11
128.64528569283203
 21
63.599961214225
 31
0.0
  0
LINE
  8
0
 62
0
 10
128.64528569283203
 20
63.599961214225
 30
0.0
 11
128.64528569283203
 21
69.400064346279
 31
0.0
  0
LINE
  8
0
 62
0
 10
128.64528569283203
 20
69.400064346279
 30
0.0
 11
127.84602526123203
 21
69.400064346279
 31
0.0
  0
LINE
  8
0
 62
0
 10
127.84602526123203
 20
69.400064346279
 30
0.0
 11
127.84602526123203
 21
72.499566020009
 31
0.0
  0
LINE
  8
0
 62
0
 10
127.84602526123203
 20
72.499566020009
 30
0.0
 11
128.64528569283203
 21
72.499566020009
 31
0.0
  0
LINE
  8
0
 62
0
 10
128.64528569283203
 20
72.499566020009
 30
0.0
 11
128.64528569283203
 21
73.499666560063
 31
0.0
  0
LINE
  8
0
 62
0
 10
128.64528569283203
 20
73.499666560063
 30
0.0
 11
142.64484325258903
 21
73.499666560063
 31
0.0
  0
LINE
  8
0
 62
0
 10
142.64484325258903
 20
54.499653760063
 30
0.0
 11
142.64484325258903
 21
53.499553220009
 31
0.0
  0
LINE
  8
0
 62
0
 10
142.64484325258903
 20
53.499553220009
 30
0.0
 11
143.44544368491302
 21
53.499553220009
 31
0.0
  0
LINE
  8
0
 62
0
 10
143.44544368491302
 20
53.499553220009
 30
0.0
 11
143.44544368491302
 21
50.400051546279
 31
0.0
  0
LINE
  8
0
 62
0
 10
143.44544368491302
 20
50.400051546279
 30
0.0
 11
142.64484325258903
 21
50.400051546279
 31
0.0
  0
LINE
  8
0
 62
0
 10
142.64484325258903
 20
50.400051546278995
 30
0.0
 11
142.64484325258903
 21
44.59994841422499
 31
0.0
  0
LINE
  8
0
 62
0
 10
142.64484325258903
 20
44.59994841422499
 30
0.0
 11
143.44544368491302
 21
44.59994841422499
 31
0.0
  0
LINE
  8
0
 62
0
 10
143.44544368491302
 20
44.59994841422499
 30
0.0
 11
143.44544368491302
 21
41.49944673995509
 31
0.0
  0
LINE
  8
0
 62
0
 10
143.44544368491302
 20
41.49944673995509
 30
0.0
 11
142.64484325258903
 21
41.49944673995509
 31
0.0
  0
LINE
  8
0
 62
0
 10
142.64484325258903
 20
41.49944673995509
 30
0.0
 11
142.64484325258903
 21
40.500346200440994
 31
0.0
  0
LINE
  8
0
 62
0
 10
142.64484325258903
 20
40.500346200440994
 30
0.0
 11
128.64528569283203
 21
40.500346200440994
 31
0.0
  0
LINE
  8
0
 62
0
 10
128.64528569283203
 20
40.500346200440994
 30
0.0
 11
128.64528569283203
 21
41.49944673995509
 31
0.0
  0
LINE
  8
0
 62
0
 10
128.64528569283203
 20
41.49944673995509
 30
0.0
 11
127.84602526123203
 21
41.49944673995509
 31
0.0
  0
LINE
  8
0
 62
0
 10
127.84602526123203
 20
41.49944673995509
 30
0.0
 11
127.84602526123203
 21
44.59994841422499
 31
0.0
  0
LINE
  8
0
 62
0
 10
127.84602526123203
 20
44.59994841422499
 30
0.0
 11
128.64528569283203
 21
44.59994841422499
 31
0.0
  0
LINE
  8
0
 62
0
 10
128.64528569283203
 20
44.599948414225
 30
0.0
 11
128.64528569283203
 21
50.400051546279
 31
0.0
  0
LINE
  8
0
 62
0
 10
128.64528569283203
 20
50.400051546279
 30
0.0
 11
127.84602526123203
 21
50.400051546279
 31
0.0
  0
LINE
  8
0
 62
0
 10
127.84602526123203
 20
50.400051546279
 30
0.0
 11
127.84602526123203
 21
53.499553220009
 31
0.0
  0
LINE
  8
0
 62
0
 10
127.84602526123203
 20
53.499553220009
 30
0.0
 11
128.64528569283203
 21
53.499553220009
 31
0.0
  0
LINE
  8
0
 62
0
 10
128.64528569283203
 20
53.499553220009
 30
0.0
 11
128.64528569283203
 21
54.499653760063
 31
0.0
  0
LINE
  8
0
 62
0
 10
128.64528569283203
 20
54.499653760063
 30
0.0
 11
142.64484325258903
 21
54.499653760063
 31
0.0
  0
LINE
  8
0
 62
0
 10
142.64484325258903
 20
35.49964096006309
 30
0.0
 11
142.64484325258903
 21
34.49954042000899
 31
0.0
  0
LINE
  8
0
 62
0
 10
142.64484325258903
 20
34.49954042000899
 30
0.0
 11
143.44544368491302
 21
34.49954042000899
 31
0.0
  0
LINE
  8
0
 62
0
 10
143.44544368491302
 20
34.499540420009
 30
0.0
 11
143.44544368491302
 21
31.400038746278998
 31
0.0
  0
LINE
  8
0
 62
0
 10
143.44544368491302
 20
31.400038746278998
 30
0.0
 11
142.64484325258903
 21
31.400038746278998
 31
0.0
  0
LINE
  8
0
 62
0
 10
142.64484325258903
 20
31.400038746278998
 30
0.0
 11
142.64484325258903
 21
25.599935614224997
 31
0.0
  0
LINE
  8
0
 62
0
 10
142.64484325258903
 20
25.599935614224997
 30
0.0
 11
143.44544368491302
 21
25.599935614224997
 31
0.0
  0
LINE
  8
0
 62
0
 10
143.44544368491302
 20
25.599935614224993
 30
0.0
 11
143.44544368491302
 21
22.499433939954994
 31
0.0
  0
LINE
  8
0
 62
0
 10
143.44544368491302
 20
22.499433939954994
 30
0.0
 11
142.64484325258903
 21
22.499433939954994
 31
0.0
  0
LINE
  8
0
 62
0
 10
142.64484325258903
 20
22.499433939954994
 30
0.0
 11
142.64484325258903
 21
21.500333400440994
 31
0.0
  0
LINE
  8
0
 62
0
 10
142.64484325258903
 20
21.500333400440994
 30
0.0
 11
128.64528569283203
 21
21.500333400440994
 31
0.0
  0
LINE
  8
0
 62
0
 10
128.64528569283203
 20
21.500333400440994
 30
0.0
 11
128.64528569283203
 21
22.499433939954994
 31
0.0
  0
LINE
  8
0
 62
0
 10
128.64528569283203
 20
22.499433939954994
 30
0.0
 11
127.84602526123203
 21
22.499433939954994
 31
0.0
  0
LINE
  8
0
 62
0
 10
127.84602526123203
 20
22.499433939954997
 30
0.0
 11
127.84602526123203
 21
25.599935614224997
 31
0.0
  0
LINE
  8
0
 62
0
 10
127.84602526123203
 20
25.599935614224997
 30
0.0
 11
128.64528569283203
 21
25.599935614224997
 31
0.0
  0
LINE
  8
0
 62
0
 10
128.64528569283203
 20
25.599935614224997
 30
0.0
 11
128.64528569283203
 21
31.400038746278998
 31
0.0
  0
LINE
  8
0
 62
0
 10
128.64528569283203
 20
31.400038746278998
 30
0.0
 11
127.84602526123203
 21
31.400038746278998
 31
0.0
  0
LINE
  8
0
 62
0
 10
127.84602526123203
 20
31.400038746278994
 30
0.0
 11
127.84602526123203
 21
34.49954042000899
 31
0.0
  0
LINE
  8
0
 62
0
 10
127.84602526123203
 20
34.49954042000899
 30
0.0
 11
128.64528569283203
 21
34.49954042000899
 31
0.0
  0
LINE
  8
0
 62
0
 10
128.64528569283203
 20
34.49954042000899
 30
0.0
 11
128.64528569283203
 21
35.49964096006309
 31
0.0
  0
LINE
  8
0
 62
0
 10
128.64528569283203
 20
35.49964096006309
 30
0.0
 11
142.64484325258903
 21
35.49964096006309
 31
0.0
  0
LINE
  8
0
 62
0
 10
142.64484325258903
 20
16.49962816006299
 30
0.0
 11
142.64484325258903
 21
15.49952762000899
 31
0.0
  0
LINE
  8
0
 62
0
 10
142.64484325258903
 20
15.49952762000899
 30
0.0
 11
143.44544368491302
 21
15.49952762000899
 31
0.0
  0
LINE
  8
0
 62
0
 10
143.44544368491302
 20
15.49952762000899
 30
0.0
 11
143.44544368491302
 21
12.40002594627899
 31
0.0
  0
LINE
  8
0
 62
0
 10
143.44544368491302
 20
12.40002594627899
 30
0.0
 11
142.64484325258903
 21
12.40002594627899
 31
0.0
  0
LINE
  8
0
 62
0
 10
142.64484325258903
 20
12.40002594627899
 30
0.0
 11
142.64484325258903
 21
6.59992281422498
 31
0.0
  0
LINE
  8
0
 62
0
 10
142.64484325258903
 20
6.59992281422498
 30
0.0
 11
143.44544368491302
 21
6.59992281422498
 31
0.0
  0
LINE
  8
0
 62
0
 10
143.44544368491302
 20
6.599922814224979
 30
0.0
 11
143.44544368491302
 21
3.499421139955049
 31
0.0
  0
LINE
  8
0
 62
0
 10
143.44544368491302
 20
3.499421139955049
 30
0.0
 11
142.64484325258903
 21
3.499421139955049
 31
0.0
  0
LINE
  8
0
 62
0
 10
142.64484325258903
 20
3.4994211399550488
 30
0.0
 11
142.64484325258903
 21
2.500320600440999
 31
0.0
  0
LINE
  8
0
 62
0
 10
142.64484325258903
 20
2.500320600440999
 30
0.0
 11
128.64528569283203
 21
2.500320600440999
 31
0.0
  0
LINE
  8
0
 62
0
 10
128.64528569283203
 20
2.5003206004409995
 30
0.0
 11
128.64528569283203
 21
3.499421139955049
 31
0.0
  0
LINE
  8
0
 62
0
 10
128.64528569283203
 20
3.499421139955049
 30
0.0
 11
127.84602526123203
 21
3.499421139955049
 31
0.0
  0
LINE
  8
0
 62
0
 10
127.84602526123203
 20
3.49942113995505
 30
0.0
 11
127.84602526123203
 21
6.59992281422498
 31
0.0
  0
LINE
  8
0
 62
0
 10
127.84602526123203
 20
6.59992281422498
 30
0.0
 11
128.64528569283203
 21
6.59992281422498
 31
0.0
  0
LINE
  8
0
 62
0
 10
128.64528569283203
 20
6.599922814224981
 30
0.0
 11
128.64528569283203
 21
12.40002594627899
 31
0.0
  0
LINE
  8
0
 62
0
 10
128.64528569283203
 20
12.40002594627899
 30
0.0
 11
127.84602526123203
 21
12.40002594627899
 31
0.0
  0
LINE
  8
0
 62
0
 10
127.84602526123203
 20
12.40002594627899
 30
0.0
 11
127.84602526123203
 21
15.49952762000899
 31
0.0
  0
LINE
  8
0
 62
0
 10
127.84602526123203
 20
15.49952762000899
 30
0.0
 11
128.64528569283203
 21
15.49952762000899
 31
0.0
  0
LINE
  8
0
 62
0
 10
128.64528569283203
 20
15.499527620008992
 30
0.0
 11
128.64528569283203
 21
16.499628160062993
 31
0.0
  0
LINE
  8
0
 62
0
 10
128.64528569283203
 20
16.499628160062993
 30
0.0
 11
142.64484325258903
 21
16.499628160062993
 31
0.0
  0
LINE
  8
0
 62
0
 10
161.64485605258903
 20
73.499666560063
 30
0.0
 11
161.64485605258903
 21
72.499566020009
 31
0.0
  0
LINE
  8
0
 62
0
 10
161.64485605258903
 20
72.499566020009
 30
0.0
 11
162.44545648491302
 21
72.499566020009
 31
0.0
  0
LINE
  8
0
 62
0
 10
162.44545648491302
 20
72.499566020009
 30
0.0
 11
162.44545648491302
 21
69.400064346279
 31
0.0
  0
LINE
  8
0
 62
0
 10
162.44545648491302
 20
69.400064346279
 30
0.0
 11
161.64485605258903
 21
69.400064346279
 31
0.0
  0
LINE
  8
0
 62
0
 10
161.64485605258903
 20
69.400064346279
 30
0.0
 11
161.64485605258903
 21
63.599961214225
 31
0.0
  0
LINE
  8
0
 62
0
 10
161.64485605258903
 20
63.599961214225
 30
0.0
 11
162.44545648491302
 21
63.599961214225
 31
0.0
  0
LINE
  8
0
 62
0
 10
162.44545648491302
 20
63.599961214225
 30
0.0
 11
162.44545648491302
 21
60.499459539955
 31
0.0
  0
LINE
  8
0
 62
0
 10
162.44545648491302
 20
60.499459539955
 30
0.0
 11
161.64485605258903
 21
60.499459539955
 31
0.0
  0
LINE
  8
0
 62
0
 10
161.64485605258903
 20
60.499459539955
 30
0.0
 11
161.64485605258903
 21
59.500359000441
 31
0.0
  0
LINE
  8
0
 62
0
 10
161.64485605258903
 20
59.500359000441
 30
0.0
 11
147.64529849283204
 21
59.500359000441
 31
0.0
  0
LINE
  8
0
 62
0
 10
147.64529849283204
 20
59.500359000441
 30
0.0
 11
147.64529849283204
 21
60.499459539955
 31
0.0
  0
LINE
  8
0
 62
0
 10
147.64529849283204
 20
60.499459539955
 30
0.0
 11
146.84603806123204
 21
60.499459539955
 31
0.0
  0
LINE
  8
0
 62
0
 10
146.84603806123204
 20
60.499459539955
 30
0.0
 11
146.84603806123204
 21
63.599961214225
 31
0.0
  0
LINE
  8
0
 62
0
 10
146.84603806123204
 20
63.599961214225
 30
0.0
 11
147.64529849283204
 21
63.599961214225
 31
0.0
  0
LINE
  8
0
 62
0
 10
147.64529849283204
 20
63.599961214225
 30
0.0
 11
147.64529849283204
 21
69.400064346279
 31
0.0
  0
LINE
  8
0
 62
0
 10
147.64529849283204
 20
69.400064346279
 30
0.0
 11
146.84603806123204
 21
69.400064346279
 31
0.0
  0
LINE
  8
0
 62
0
 10
146.84603806123204
 20
69.400064346279
 30
0.0
 11
146.84603806123204
 21
72.499566020009
 31
0.0
  0
LINE
  8
0
 62
0
 10
146.84603806123204
 20
72.499566020009
 30
0.0
 11
147.64529849283204
 21
72.499566020009
 31
0.0
  0
LINE
  8
0
 62
0
 10
147.64529849283204
 20
72.499566020009
 30
0.0
 11
147.64529849283204
 21
73.499666560063
 31
0.0
  0
LINE
  8
0
 62
0
 10
147.64529849283204
 20
73.499666560063
 30
0.0
 11
161.64485605258903
 21
73.499666560063
 31
0.0
  0
LINE
  8
0
 62
0
 10
161.64485605258903
 20
54.499653760063
 30
0.0
 11
161.64485605258903
 21
53.499553220009
 31
0.0
  0
LINE
  8
0
 62
0
 10
161.64485605258903
 20
53.499553220009
 30
0.0
 11
162.44545648491302
 21
53.499553220009
 31
0.0
  0
LINE
  8
0
 62
0
 10
162.44545648491302
 20
53.499553220009
 30
0.0
 11
162.44545648491302
 21
50.400051546279
 31
0.0
  0
LINE
  8
0
 62
0
 10
162.44545648491302
 20
50.400051546279
 30
0.0
 11
161.64485605258903
 21
50.400051546279
 31
0.0
  0
LINE
  8
0
 62
0
 10
161.64485605258903
 20
50.400051546278995
 30
0.0
 11
161.64485605258903
 21
44.59994841422499
 31
0.0
  0
LINE
  8
0
 62
0
 10
161.64485605258903
 20
44.59994841422499
 30
0.0
 11
162.44545648491302
 21
44.59994841422499
 31
0.0
  0
LINE
  8
0
 62
0
 10
162.44545648491302
 20
44.59994841422499
 30
0.0
 11
162.44545648491302
 21
41.49944673995509
 31
0.0
  0
LINE
  8
0
 62
0
 10
162.44545648491302
 20
41.49944673995509
 30
0.0
 11
161.64485605258903
 21
41.49944673995509
 31
0.0
  0
LINE
  8
0
 62
0
 10
161.64485605258903
 20
41.49944673995509
 30
0.0
 11
161.64485605258903
 21
40.500346200440994
 31
0.0
  0
LINE
  8
0
 62
0
 10
161.64485605258903
 20
40.500346200440994
 30
0.0
 11
147.64529849283204
 21
40.500346200440994
 31
0.0
  0
LINE
  8
0
 62
0
 10
147.64529849283204
 20
40.500346200440994
 30
0.0
 11
147.64529849283204
 21
41.49944673995509
 31
0.0
  0
LINE
  8
0
 62
0
 10
147.64529849283204
 20
41.49944673995509
 30
0.0
 11
146.84603806123204
 21
41.49944673995509
 31
0.0
  0
LINE
  8
0
 62
0
 10
146.84603806123204
 20
41.49944673995509
 30
0.0
 11
146.84603806123204
 21
44.59994841422499
 31
0.0
  0
LINE
  8
0
 62
0
 10
146.84603806123204
 20
44.59994841422499
 30
0.0
 11
147.64529849283204
 21
44.59994841422499
 31
0.0
  0
LINE
  8
0
 62
0
 10
147.64529849283204
 20
44.599948414225
 30
0.0
 11
147.64529849283204
 21
50.400051546279
 31
0.0
  0
LINE
  8
0
 62
0
 10
147.64529849283204
 20
50.400051546279
 30
0.0
 11
146.84603806123204
 21
50.400051546279
 31
0.0
  0
LINE
  8
0
 62
0
 10
146.84603806123204
 20
50.400051546279
 30
0.0
 11
146.84603806123204
 21
53.499553220009
 31
0.0
  0
LINE
  8
0
 62
0
 10
146.84603806123204
 20
53.499553220009
 30
0.0
 11
147.64529849283204
 21
53.499553220009
 31
0.0
  0
LINE
  8
0
 62
0
 10
147.64529849283204
 20
53.499553220009
 30
0.0
 11
147.64529849283204
 21
54.499653760063
 31
0.0
  0
LINE
  8
0
 62
0
 10
147.64529849283204
 20
54.499653760063
 30
0.0
 11
161.64485605258903
 21
54.499653760063
 31
0.0
  0
LINE
  8
0
 62
0
 10
161.64485605258903
 20
35.49964096006309
 30
0.0
 11
161.64485605258903
 21
34.49954042000899
 31
0.0
  0
LINE
  8
0
 62
0
 10
161.64485605258903
 20
34.49954042000899
 30
0.0
 11
162.44545648491302
 21
34.49954042000899
 31
0.0
  0
LINE
  8
0
 62
0
 10
162.44545648491302
 20
34.499540420009
 30
0.0
 11
162.44545648491302
 21
31.400038746278998
 31
0.0
  0
LINE
  8
0
 62
0
 10
162.44545648491302
 20
31.400038746278998
 30
0.0
 11
161.64485605258903
 21
31.400038746278998
 31
0.0
  0
LINE
  8
0
 62
0
 10
161.64485605258903
 20
31.400038746278998
 30
0.0
 11
161.64485605258903
 21
25.599935614224997
 31
0.0
  0
LINE
  8
0
 62
0
 10
161.64485605258903
 20
25.599935614224997
 30
0.0
 11
162.44545648491302
 21
25.599935614224997
 31
0.0
  0
LINE
  8
0
 62
0
 10
162.44545648491302
 20
25.599935614224993
 30
0.0
 11
162.44545648491302
 21
22.499433939954994
 31
0.0
  0
LINE
  8
0
 62
0
 10
162.44545648491302
 20
22.499433939954994
 30
0.0
 11
161.64485605258903
 21
22.499433939954994
 31
0.0
  0
LINE
  8
0
 62
0
 10
161.64485605258903
 20
22.499433939954994
 30
0.0
 11
161.64485605258903
 21
21.500333400440994
 31
0.0
  0
LINE
  8
0
 62
0
 10
161.64485605258903
 20
21.500333400440994
 30
0.0
 11
147.64529849283204
 21
21.500333400440994
 31
0.0
  0
LINE
  8
0
 62
0
 10
147.64529849283204
 20
21.500333400440994
 30
0.0
 11
147.64529849283204
 21
22.499433939954994
 31
0.0
  0
LINE
  8
0
 62
0
 10
147.64529849283204
 20
22.499433939954994
 30
0.0
 11
146.84603806123204
 21
22.499433939954994
 31
0.0
  0
LINE
  8
0
 62
0
 10
146.84603806123204
 20
22.499433939954997
 30
0.0
 11
146.84603806123204
 21
25.599935614224997
 31
0.0
  0
LINE
  8
0
 62
0
 10
146.84603806123204
 20
25.599935614224997
 30
0.0
 11
147.64529849283204
 21
25.599935614224997
 31
0.0
  0
LINE
  8
0
 62
0
 10
147.64529849283204
 20
25.599935614224997
 30
0.0
 11
147.64529849283204
 21
31.400038746278998
 31
0.0
  0
LINE
  8
0
 62
0
 10
147.64529849283204
 20
31.400038746278998
 30
0.0
 11
146.84603806123204
 21
31.400038746278998
 31
0.0
  0
LINE
  8
0
 62
0
 10
146.84603806123204
 20
31.400038746278994
 30
0.0
 11
146.84603806123204
 21
34.49954042000899
 31
0.0
  0
LINE
  8
0
 62
0
 10
146.84603806123204
 20
34.49954042000899
 30
0.0
 11
147.64529849283204
 21
34.49954042000899
 31
0.0
  0
LINE
  8
0
 62
0
 10
147.64529849283204
 20
34.49954042000899
 30
0.0
 11
147.64529849283204
 21
35.49964096006309
 31
0.0
  0
LINE
  8
0
 62
0
 10
147.64529849283204
 20
35.49964096006309
 30
0.0
 11
161.64485605258903
 21
35.49964096006309
 31
0.0
  0
LINE
  8
0
 62
0
 10
161.64485605258903
 20
16.49962816006299
 30
0.0
 11
161.64485605258903
 21
15.49952762000899
 31
0.0
  0
LINE
  8
0
 62
0
 10
161.64485605258903
 20
15.49952762000899
 30
0.0
 11
162.44545648491302
 21
15.49952762000899
 31
0.0
  0
LINE
  8
0
 62
0
 10
162.44545648491302
 20
15.49952762000899
 30
0.0
 11
162.44545648491302
 21
12.40002594627899
 31
0.0
  0
LINE
  8
0
 62
0
 10
162.44545648491302
 20
12.40002594627899
 30
0.0
 11
161.64485605258903
 21
12.40002594627899
 31
0.0
  0
LINE
  8
0
 62
0
 10
161.64485605258903
 20
12.40002594627899
 30
0.0
 11
161.64485605258903
 21
6.59992281422498
 31
0.0
  0
LINE
  8
0
 62
0
 10
161.64485605258903
 20
6.59992281422498
 30
0.0
 11
162.44545648491302
 21
6.59992281422498
 31
0.0
  0
LINE
  8
0
 62
0
 10
162.44545648491302
 20
6.599922814224979
 30
0.0
 11
162.44545648491302
 21
3.499421139955049
 31
0.0
  0
LINE
  8
0
 62
0
 10
162.44545648491302
 20
3.499421139955049
 30
0.0
 11
161.64485605258903
 21
3.499421139955049
 31
0.0
  0
LINE
  8
0
 62
0
 10
161.64485605258903
 20
3.4994211399550488
 30
0.0
 11
161.64485605258903
 21
2.500320600440999
 31
0.0
  0
LINE
  8
0
 62
0
 10
161.64485605258903
 20
2.500320600440999
 30
0.0
 11
147.64529849283204
 21
2.500320600440999
 31
0.0
  0
LINE
  8
0
 62
0
 10
147.64529849283204
 20
2.5003206004409995
 30
0.0
 11
147.64529849283204
 21
3.499421139955049
 31
0.0
  0
LINE
  8
0
 62
0
 10
147.64529849283204
 20
3.499421139955049
 30
0.0
 11
146.84603806123204
 21
3.499421139955049
 31
0.0
  0
LINE
  8
0
 62
0
 10
146.84603806123204
 20
3.49942113995505
 30
0.0
 11
146.84603806123204
 21
6.59992281422498
 31
0.0
  0
LINE
  8
0
 62
0
 10
146.84603806123204
 20
6.59992281422498
 30
0.0
 11
147.64529849283204
 21
6.59992281422498
 31
0.0
  0
LINE
  8
0
 62
0
 10
147.64529849283204
 20
6.599922814224981
 30
0.0
 11
147.64529849283204
 21
12.40002594627899
 31
0.0
  0
LINE
  8
0
 62
0
 10
147.64529849283204
 20
12.40002594627899
 30
0.0
 11
146.84603806123204
 21
12.40002594627899
 31
0.0
  0
LINE
  8
0
 62
0
 10
146.84603806123204
 20
12.40002594627899
 30
0.0
 11
146.84603806123204
 21
15.49952762000899
 31
0.0
  0
LINE
  8
0
 62
0
 10
146.84603806123204
 20
15.49952762000899
 30
0.0
 11
147.64529849283204
 21
15.49952762000899
 31
0.0
  0
LINE
  8
0
 62
0
 10
147.64529849283204
 20
15.499527620008992
 30
0.0
 11
147.64529849283204
 21
16.499628160062993
 31
0.0
  0
LINE
  8
0
 62
0
 10
147.64529849283204
 20
16.499628160062993
 30
0.0
 11
161.64485605258903
 21
16.499628160062993
 31
0.0
  0
LINE
  8
0
 62
0
 10
-47.35528474741061
 20
92.499679360063
 30
0.0
 11
-47.35528474741061
 21
91.499578820009
 31
0.0
  0
LINE
  8
0
 62
0
 10
-47.35528474741061
 20
91.499578820009
 30
0.0
 11
-46.554684315086604
 21
91.499578820009
 31
0.0
  0
LINE
  8
0
 62
0
 10
-46.554684315086604
 20
91.499578820009
 30
0.0
 11
-46.554684315086604
 21
88.400077146279
 31
0.0
  0
LINE
  8
0
 62
0
 10
-46.554684315086604
 20
88.400077146279
 30
0.0
 11
-47.35528474741061
 21
88.400077146279
 31
0.0
  0
LINE
  8
0
 62
0
 10
-47.35528474741061
 20
88.400077146279
 30
0.0
 11
-47.35528474741061
 21
82.599974014225
 31
0.0
  0
LINE
  8
0
 62
0
 10
-47.35528474741061
 20
82.599974014225
 30
0.0
 11
-46.554684315086604
 21
82.599974014225
 31
0.0
  0
LINE
  8
0
 62
0
 10
-46.554684315086604
 20
82.599974014225
 30
0.0
 11
-46.554684315086604
 21
79.499472339955
 31
0.0
  0
LINE
  8
0
 62
0
 10
-46.554684315086604
 20
79.499472339955
 30
0.0
 11
-47.35528474741061
 21
79.499472339955
 31
0.0
  0
LINE
  8
0
 62
0
 10
-47.35528474741061
 20
79.499472339955
 30
0.0
 11
-47.35528474741061
 21
78.500371800441
 31
0.0
  0
LINE
  8
0
 62
0
 10
-47.355284747410614
 20
78.500371800441
 30
0.0
 11
-61.354842307167715
 21
78.500371800441
 31
0.0
  0
LINE
  8
0
 62
0
 10
-61.354842307167715
 20
78.500371800441
 30
0.0
 11
-61.354842307167715
 21
79.499472339955
 31
0.0
  0
LINE
  8
0
 62
0
 10
-61.354842307167715
 20
79.499472339955
 30
0.0
 11
-62.15410273876802
 21
79.499472339955
 31
0.0
  0
LINE
  8
0
 62
0
 10
-62.15410273876812
 20
79.499472339955
 30
0.0
 11
-62.15410273876812
 21
82.599974014225
 31
0.0
  0
LINE
  8
0
 62
0
 10
-62.15410273876802
 20
82.599974014225
 30
0.0
 11
-61.354842307167715
 21
82.599974014225
 31
0.0
  0
LINE
  8
0
 62
0
 10
-61.354842307167715
 20
82.599974014225
 30
0.0
 11
-61.354842307167715
 21
88.400077146279
 31
0.0
  0
LINE
  8
0
 62
0
 10
-61.354842307167715
 20
88.400077146279
 30
0.0
 11
-62.15410273876802
 21
88.400077146279
 31
0.0
  0
LINE
  8
0
 62
0
 10
-62.15410273876812
 20
88.400077146279
 30
0.0
 11
-62.15410273876812
 21
91.499578820009
 31
0.0
  0
LINE
  8
0
 62
0
 10
-62.15410273876802
 20
91.499578820009
 30
0.0
 11
-61.354842307167715
 21
91.499578820009
 31
0.0
  0
LINE
  8
0
 62
0
 10
-61.354842307167715
 20
91.499578820009
 30
0.0
 11
-61.354842307167715
 21
92.499679360063
 31
0.0
  0
LINE
  8
0
 62
0
 10
-61.35484230716771
 20
92.499679360063
 30
0.0
 11
-47.35528474741061
 21
92.499679360063
 31
0.0
  0
LINE
  8
0
 62
0
 10
-28.355271947410607
 20
92.499679360063
 30
0.0
 11
-28.355271947410607
 21
91.499578820009
 31
0.0
  0
LINE
  8
0
 62
0
 10
-28.355271947410607
 20
91.499578820009
 30
0.0
 11
-27.554671515086607
 21
91.499578820009
 31
0.0
  0
LINE
  8
0
 62
0
 10
-27.554671515086607
 20
91.499578820009
 30
0.0
 11
-27.554671515086607
 21
88.400077146279
 31
0.0
  0
LINE
  8
0
 62
0
 10
-27.554671515086607
 20
88.400077146279
 30
0.0
 11
-28.355271947410607
 21
88.400077146279
 31
0.0
  0
LINE
  8
0
 62
0
 10
-28.355271947410607
 20
88.400077146279
 30
0.0
 11
-28.355271947410607
 21
82.599974014225
 31
0.0
  0
LINE
  8
0
 62
0
 10
-28.355271947410607
 20
82.599974014225
 30
0.0
 11
-27.554671515086607
 21
82.599974014225
 31
0.0
  0
LINE
  8
0
 62
0
 10
-27.554671515086607
 20
82.599974014225
 30
0.0
 11
-27.554671515086607
 21
79.499472339955
 31
0.0
  0
LINE
  8
0
 62
0
 10
-27.554671515086607
 20
79.499472339955
 30
0.0
 11
-28.355271947410607
 21
79.499472339955
 31
0.0
  0
LINE
  8
0
 62
0
 10
-28.355271947410607
 20
79.499472339955
 30
0.0
 11
-28.355271947410607
 21
78.500371800441
 31
0.0
  0
LINE
  8
0
 62
0
 10
-28.355271947410607
 20
78.500371800441
 30
0.0
 11
-42.35482950716771
 21
78.500371800441
 31
0.0
  0
LINE
  8
0
 62
0
 10
-42.35482950716771
 20
78.500371800441
 30
0.0
 11
-42.35482950716771
 21
79.499472339955
 31
0.0
  0
LINE
  8
0
 62
0
 10
-42.35482950716771
 20
79.499472339955
 30
0.0
 11
-43.15408993876811
 21
79.499472339955
 31
0.0
  0
LINE
  8
0
 62
0
 10
-43.15408993876811
 20
79.499472339955
 30
0.0
 11
-43.15408993876811
 21
82.599974014225
 31
0.0
  0
LINE
  8
0
 62
0
 10
-43.15408993876811
 20
82.599974014225
 30
0.0
 11
-42.35482950716771
 21
82.599974014225
 31
0.0
  0
LINE
  8
0
 62
0
 10
-42.35482950716771
 20
82.599974014225
 30
0.0
 11
-42.35482950716771
 21
88.400077146279
 31
0.0
  0
LINE
  8
0
 62
0
 10
-42.35482950716771
 20
88.400077146279
 30
0.0
 11
-43.15408993876811
 21
88.400077146279
 31
0.0
  0
LINE
  8
0
 62
0
 10
-43.15408993876811
 20
88.400077146279
 30
0.0
 11
-43.15408993876811
 21
91.499578820009
 31
0.0
  0
LINE
  8
0
 62
0
 10
-43.15408993876811
 20
91.499578820009
 30
0.0
 11
-42.35482950716771
 21
91.499578820009
 31
0.0
  0
LINE
  8
0
 62
0
 10
-42.35482950716771
 20
91.499578820009
 30
0.0
 11
-42.35482950716771
 21
92.499679360063
 31
0.0
  0
LINE
  8
0
 62
0
 10
-42.35482950716771
 20
92.499679360063
 30
0.0
 11
-28.355271947410607
 21
92.499679360063
 31
0.0
  0
LINE
  8
0
 62
0
 10
-9.355259147410651
 20
92.499679360063
 30
0.0
 11
-9.355259147410651
 21
91.499578820009
 31
0.0
  0
LINE
  8
0
 62
0
 10
-9.355259147410651
 20
91.499578820009
 30
0.0
 11
-8.554658715086601
 21
91.499578820009
 31
0.0
  0
LINE
  8
0
 62
0
 10
-8.554658715086601
 20
91.499578820009
 30
0.0
 11
-8.554658715086601
 21
88.400077146279
 31
0.0
  0
LINE
  8
0
 62
0
 10
-8.554658715086601
 20
88.400077146279
 30
0.0
 11
-9.355259147410651
 21
88.400077146279
 31
0.0
  0
LINE
  8
0
 62
0
 10
-9.355259147410651
 20
88.400077146279
 30
0.0
 11
-9.355259147410651
 21
82.599974014225
 31
0.0
  0
LINE
  8
0
 62
0
 10
-9.355259147410651
 20
82.599974014225
 30
0.0
 11
-8.554658715086601
 21
82.599974014225
 31
0.0
  0
LINE
  8
0
 62
0
 10
-8.554658715086601
 20
82.599974014225
 30
0.0
 11
-8.554658715086601
 21
79.499472339955
 31
0.0
  0
LINE
  8
0
 62
0
 10
-8.554658715086601
 20
79.499472339955
 30
0.0
 11
-9.355259147410651
 21
79.499472339955
 31
0.0
  0
LINE
  8
0
 62
0
 10
-9.355259147410651
 20
79.499472339955
 30
0.0
 11
-9.355259147410651
 21
78.500371800441
 31
0.0
  0
LINE
  8
0
 62
0
 10
-9.355259147410653
 20
78.500371800441
 30
0.0
 11
-23.354816707167704
 21
78.500371800441
 31
0.0
  0
LINE
  8
0
 62
0
 10
-23.354816707167704
 20
78.500371800441
 30
0.0
 11
-23.354816707167704
 21
79.499472339955
 31
0.0
  0
LINE
  8
0
 62
0
 10
-23.354816707167707
 20
79.499472339955
 30
0.0
 11
-24.154077138768105
 21
79.499472339955
 31
0.0
  0
LINE
  8
0
 62
0
 10
-24.154077138768105
 20
79.499472339955
 30
0.0
 11
-24.154077138768105
 21
82.599974014225
 31
0.0
  0
LINE
  8
0
 62
0
 10
-24.154077138768102
 20
82.599974014225
 30
0.0
 11
-23.354816707167704
 21
82.599974014225
 31
0.0
  0
LINE
  8
0
 62
0
 10
-23.354816707167704
 20
82.599974014225
 30
0.0
 11
-23.354816707167704
 21
88.400077146279
 31
0.0
  0
LINE
  8
0
 62
0
 10
-23.354816707167707
 20
88.400077146279
 30
0.0
 11
-24.154077138768105
 21
88.400077146279
 31
0.0
  0
LINE
  8
0
 62
0
 10
-24.154077138768105
 20
88.400077146279
 30
0.0
 11
-24.154077138768105
 21
91.499578820009
 31
0.0
  0
LINE
  8
0
 62
0
 10
-24.154077138768102
 20
91.499578820009
 30
0.0
 11
-23.354816707167704
 21
91.499578820009
 31
0.0
  0
LINE
  8
0
 62
0
 10
-23.354816707167704
 20
91.499578820009
 30
0.0
 11
-23.354816707167704
 21
92.499679360063
 31
0.0
  0
LINE
  8
0
 62
0
 10
-23.3548167071677
 20
92.499679360063
 30
0.0
 11
-9.355259147410651
 21
92.499679360063
 31
0.0
  0
LINE
  8
0
 62
0
 10
9.644753652589342
 20
92.499679360063
 30
0.0
 11
9.644753652589342
 21
91.499578820009
 31
0.0
  0
LINE
  8
0
 62
0
 10
9.644753652589342
 20
91.499578820009
 30
0.0
 11
10.445354084913403
 21
91.499578820009
 31
0.0
  0
LINE
  8
0
 62
0
 10
10.445354084913403
 20
91.499578820009
 30
0.0
 11
10.445354084913403
 21
88.400077146279
 31
0.0
  0
LINE
  8
0
 62
0
 10
10.445354084913403
 20
88.400077146279
 30
0.0
 11
9.644753652589342
 21
88.400077146279
 31
0.0
  0
LINE
  8
0
 62
0
 10
9.644753652589342
 20
88.400077146279
 30
0.0
 11
9.644753652589342
 21
82.599974014225
 31
0.0
  0
LINE
  8
0
 62
0
 10
9.644753652589342
 20
82.599974014225
 30
0.0
 11
10.445354084913403
 21
82.599974014225
 31
0.0
  0
LINE
  8
0
 62
0
 10
10.445354084913403
 20
82.599974014225
 30
0.0
 11
10.445354084913403
 21
79.499472339955
 31
0.0
  0
LINE
  8
0
 62
0
 10
10.445354084913403
 20
79.499472339955
 30
0.0
 11
9.644753652589342
 21
79.499472339955
 31
0.0
  0
LINE
  8
0
 62
0
 10
9.644753652589342
 20
79.499472339955
 30
0.0
 11
9.644753652589342
 21
78.500371800441
 31
0.0
  0
LINE
  8
0
 62
0
 10
9.644753652589339
 20
78.500371800441
 30
0.0
 11
-4.354803907167691
 21
78.500371800441
 31
0.0
  0
LINE
  8
0
 62
0
 10
-4.354803907167691
 20
78.500371800441
 30
0.0
 11
-4.354803907167691
 21
79.499472339955
 31
0.0
  0
LINE
  8
0
 62
0
 10
-4.354803907167691
 20
79.499472339955
 30
0.0
 11
-5.1540643387680705
 21
79.499472339955
 31
0.0
  0
LINE
  8
0
 62
0
 10
-5.1540643387680705
 20
79.499472339955
 30
0.0
 11
-5.1540643387680705
 21
82.599974014225
 31
0.0
  0
LINE
  8
0
 62
0
 10
-5.1540643387680705
 20
82.599974014225
 30
0.0
 11
-4.354803907167691
 21
82.599974014225
 31
0.0
  0
LINE
  8
0
 62
0
 10
-4.354803907167691
 20
82.599974014225
 30
0.0
 11
-4.354803907167691
 21
88.400077146279
 31
0.0
  0
LINE
  8
0
 62
0
 10
-4.354803907167691
 20
88.400077146279
 30
0.0
 11
-5.1540643387680705
 21
88.400077146279
 31
0.0
  0
LINE
  8
0
 62
0
 10
-5.1540643387680705
 20
88.400077146279
 30
0.0
 11
-5.1540643387680705
 21
91.499578820009
 31
0.0
  0
LINE
  8
0
 62
0
 10
-5.1540643387680705
 20
91.499578820009
 30
0.0
 11
-4.354803907167691
 21
91.499578820009
 31
0.0
  0
LINE
  8
0
 62
0
 10
-4.354803907167691
 20
91.499578820009
 30
0.0
 11
-4.354803907167691
 21
92.499679360063
 31
0.0
  0
LINE
  8
0
 62
0
 10
-4.354803907167687
 20
92.499679360063
 30
0.0
 11
9.644753652589342
 21
92.499679360063
 31
0.0
  0
LINE
  8
0
 62
0
 10
28.64476645258931
 20
92.499679360063
 30
0.0
 11
28.64476645258931
 21
91.499578820009
 31
0.0
  0
LINE
  8
0
 62
0
 10
28.64476645258931
 20
91.499578820009
 30
0.0
 11
29.44536688491341
 21
91.499578820009
 31
0.0
  0
LINE
  8
0
 62
0
 10
29.44536688491341
 20
91.499578820009
 30
0.0
 11
29.44536688491341
 21
88.400077146279
 31
0.0
  0
LINE
  8
0
 62
0
 10
29.44536688491341
 20
88.400077146279
 30
0.0
 11
28.64476645258931
 21
88.400077146279
 31
0.0
  0
LINE
  8
0
 62
0
 10
28.64476645258931
 20
88.400077146279
 30
0.0
 11
28.64476645258931
 21
82.599974014225
 31
0.0
  0
LINE
  8
0
 62
0
 10
28.64476645258931
 20
82.599974014225
 30
0.0
 11
29.44536688491341
 21
82.599974014225
 31
0.0
  0
LINE
  8
0
 62
0
 10
29.44536688491341
 20
82.599974014225
 30
0.0
 11
29.44536688491341
 21
79.499472339955
 31
0.0
  0
LINE
  8
0
 62
0
 10
29.44536688491341
 20
79.499472339955
 30
0.0
 11
28.64476645258931
 21
79.499472339955
 31
0.0
  0
LINE
  8
0
 62
0
 10
28.64476645258931
 20
79.499472339955
 30
0.0
 11
28.64476645258931
 21
78.500371800441
 31
0.0
  0
LINE
  8
0
 62
0
 10
28.644766452589305
 20
78.500371800441
 30
0.0
 11
14.645208892832304
 21
78.500371800441
 31
0.0
  0
LINE
  8
0
 62
0
 10
14.645208892832304
 20
78.500371800441
 30
0.0
 11
14.645208892832304
 21
79.499472339955
 31
0.0
  0
LINE
  8
0
 62
0
 10
14.645208892832304
 20
79.499472339955
 30
0.0
 11
13.845948461231904
 21
79.499472339955
 31
0.0
  0
LINE
  8
0
 62
0
 10
13.845948461231904
 20
79.499472339955
 30
0.0
 11
13.845948461231904
 21
82.599974014225
 31
0.0
  0
LINE
  8
0
 62
0
 10
13.845948461231904
 20
82.599974014225
 30
0.0
 11
14.645208892832304
 21
82.599974014225
 31
0.0
  0
LINE
  8
0
 62
0
 10
14.645208892832304
 20
82.599974014225
 30
0.0
 11
14.645208892832304
 21
88.400077146279
 31
0.0
  0
LINE
  8
0
 62
0
 10
14.645208892832304
 20
88.400077146279
 30
0.0
 11
13.845948461231904
 21
88.400077146279
 31
0.0
  0
LINE
  8
0
 62
0
 10
13.845948461231904
 20
88.400077146279
 30
0.0
 11
13.845948461231904
 21
91.499578820009
 31
0.0
  0
LINE
  8
0
 62
0
 10
13.845948461231904
 20
91.499578820009
 30
0.0
 11
14.645208892832304
 21
91.499578820009
 31
0.0
  0
LINE
  8
0
 62
0
 10
14.645208892832304
 20
91.499578820009
 30
0.0
 11
14.645208892832304
 21
92.499679360063
 31
0.0
  0
LINE
  8
0
 62
0
 10
14.645208892832308
 20
92.499679360063
 30
0.0
 11
28.64476645258931
 21
92.499679360063
 31
0.0
  0
LINE
  8
0
 62
0
 10
47.64477925258941
 20
92.499679360063
 30
0.0
 11
47.64477925258941
 21
91.499578820009
 31
0.0
  0
LINE
  8
0
 62
0
 10
47.644779252589416
 20
91.499578820009
 30
0.0
 11
48.44537968491341
 21
91.499578820009
 31
0.0
  0
LINE
  8
0
 62
0
 10
48.44537968491341
 20
91.499578820009
 30
0.0
 11
48.44537968491341
 21
88.400077146279
 31
0.0
  0
LINE
  8
0
 62
0
 10
48.445379684913405
 20
88.400077146279
 30
0.0
 11
47.64477925258941
 21
88.400077146279
 31
0.0
  0
LINE
  8
0
 62
0
 10
47.64477925258941
 20
88.400077146279
 30
0.0
 11
47.64477925258941
 21
82.599974014225
 31
0.0
  0
LINE
  8
0
 62
0
 10
47.644779252589416
 20
82.599974014225
 30
0.0
 11
48.44537968491341
 21
82.599974014225
 31
0.0
  0
LINE
  8
0
 62
0
 10
48.44537968491341
 20
82.599974014225
 30
0.0
 11
48.44537968491341
 21
79.499472339955
 31
0.0
  0
LINE
  8
0
 62
0
 10
48.445379684913405
 20
79.499472339955
 30
0.0
 11
47.64477925258941
 21
79.499472339955
 31
0.0
  0
LINE
  8
0
 62
0
 10
47.64477925258941
 20
79.499472339955
 30
0.0
 11
47.64477925258941
 21
78.500371800441
 31
0.0
  0
LINE
  8
0
 62
0
 10
47.64477925258941
 20
78.500371800441
 30
0.0
 11
33.64522169283231
 21
78.500371800441
 31
0.0
  0
LINE
  8
0
 62
0
 10
33.64522169283231
 20
78.500371800441
 30
0.0
 11
33.64522169283231
 21
79.499472339955
 31
0.0
  0
LINE
  8
0
 62
0
 10
33.64522169283231
 20
79.499472339955
 30
0.0
 11
32.845961261231906
 21
79.499472339955
 31
0.0
  0
LINE
  8
0
 62
0
 10
32.845961261231906
 20
79.499472339955
 30
0.0
 11
32.845961261231906
 21
82.599974014225
 31
0.0
  0
LINE
  8
0
 62
0
 10
32.845961261231906
 20
82.599974014225
 30
0.0
 11
33.64522169283231
 21
82.599974014225
 31
0.0
  0
LINE
  8
0
 62
0
 10
33.64522169283231
 20
82.599974014225
 30
0.0
 11
33.64522169283231
 21
88.400077146279
 31
0.0
  0
LINE
  8
0
 62
0
 10
33.64522169283231
 20
88.400077146279
 30
0.0
 11
32.845961261231906
 21
88.400077146279
 31
0.0
  0
LINE
  8
0
 62
0
 10
32.845961261231906
 20
88.400077146279
 30
0.0
 11
32.845961261231906
 21
91.499578820009
 31
0.0
  0
LINE
  8
0
 62
0
 10
32.845961261231906
 20
91.499578820009
 30
0.0
 11
33.64522169283231
 21
91.499578820009
 31
0.0
  0
LINE
  8
0
 62
0
 10
33.64522169283231
 20
91.499578820009
 30
0.0
 11
33.64522169283231
 21
92.499679360063
 31
0.0
  0
LINE
  8
0
 62
0
 10
33.64522169283231
 20
92.499679360063
 30
0.0
 11
47.64477925258941
 21
92.499679360063
 31
0.0
  0
LINE
  8
0
 62
0
 10
66.64479205258931
 20
92.499679360063
 30
0.0
 11
66.64479205258931
 21
91.499578820009
 31
0.0
  0
LINE
  8
0
 62
0
 10
66.64479205258931
 20
91.499578820009
 30
0.0
 11
67.44539248491341
 21
91.499578820009
 31
0.0
  0
LINE
  8
0
 62
0
 10
67.44539248491341
 20
91.499578820009
 30
0.0
 11
67.44539248491341
 21
88.400077146279
 31
0.0
  0
LINE
  8
0
 62
0
 10
67.44539248491341
 20
88.400077146279
 30
0.0
 11
66.64479205258931
 21
88.400077146279
 31
0.0
  0
LINE
  8
0
 62
0
 10
66.64479205258931
 20
88.400077146279
 30
0.0
 11
66.64479205258931
 21
82.599974014225
 31
0.0
  0
LINE
  8
0
 62
0
 10
66.64479205258931
 20
82.599974014225
 30
0.0
 11
67.44539248491341
 21
82.599974014225
 31
0.0
  0
LINE
  8
0
 62
0
 10
67.44539248491341
 20
82.599974014225
 30
0.0
 11
67.44539248491341
 21
79.499472339955
 31
0.0
  0
LINE
  8
0
 62
0
 10
67.44539248491341
 20
79.499472339955
 30
0.0
 11
66.64479205258931
 21
79.499472339955
 31
0.0
  0
LINE
  8
0
 62
0
 10
66.64479205258931
 20
79.499472339955
 30
0.0
 11
66.64479205258931
 21
78.500371800441
 31
0.0
  0
LINE
  8
0
 62
0
 10
66.64479205258931
 20
78.500371800441
 30
0.0
 11
52.645234492832316
 21
78.500371800441
 31
0.0
  0
LINE
  8
0
 62
0
 10
52.645234492832316
 20
78.500371800441
 30
0.0
 11
52.645234492832316
 21
79.499472339955
 31
0.0
  0
LINE
  8
0
 62
0
 10
52.645234492832316
 20
79.499472339955
 30
0.0
 11
51.845974061231914
 21
79.499472339955
 31
0.0
  0
LINE
  8
0
 62
0
 10
51.845974061231914
 20
79.499472339955
 30
0.0
 11
51.845974061231914
 21
82.599974014225
 31
0.0
  0
LINE
  8
0
 62
0
 10
51.845974061231914
 20
82.599974014225
 30
0.0
 11
52.645234492832316
 21
82.599974014225
 31
0.0
  0
LINE
  8
0
 62
0
 10
52.645234492832316
 20
82.599974014225
 30
0.0
 11
52.645234492832316
 21
88.400077146279
 31
0.0
  0
LINE
  8
0
 62
0
 10
52.645234492832316
 20
88.400077146279
 30
0.0
 11
51.845974061231914
 21
88.400077146279
 31
0.0
  0
LINE
  8
0
 62
0
 10
51.845974061231914
 20
88.400077146279
 30
0.0
 11
51.845974061231914
 21
91.499578820009
 31
0.0
  0
LINE
  8
0
 62
0
 10
51.845974061231914
 20
91.499578820009
 30
0.0
 11
52.645234492832316
 21
91.499578820009
 31
0.0
  0
LINE
  8
0
 62
0
 10
52.645234492832316
 20
91.499578820009
 30
0.0
 11
52.645234492832316
 21
92.499679360063
 31
0.0
  0
LINE
  8
0
 62
0
 10
52.645234492832316
 20
92.499679360063
 30
0.0
 11
66.64479205258931
 21
92.499679360063
 31
0.0
  0
LINE
  8
0
 62
0
 10
85.64480485258932
 20
92.499679360063
 30
0.0
 11
85.64480485258932
 21
91.499578820009
 31
0.0
  0
LINE
  8
0
 62
0
 10
85.64480485258932
 20
91.499578820009
 30
0.0
 11
86.44540528491342
 21
91.499578820009
 31
0.0
  0
LINE
  8
0
 62
0
 10
86.44540528491342
 20
91.499578820009
 30
0.0
 11
86.44540528491342
 21
88.400077146279
 31
0.0
  0
LINE
  8
0
 62
0
 10
86.44540528491342
 20
88.400077146279
 30
0.0
 11
85.64480485258932
 21
88.400077146279
 31
0.0
  0
LINE
  8
0
 62
0
 10
85.64480485258932
 20
88.400077146279
 30
0.0
 11
85.64480485258932
 21
82.599974014225
 31
0.0
  0
LINE
  8
0
 62
0
 10
85.64480485258932
 20
82.599974014225
 30
0.0
 11
86.44540528491342
 21
82.599974014225
 31
0.0
  0
LINE
  8
0
 62
0
 10
86.44540528491342
 20
82.599974014225
 30
0.0
 11
86.44540528491342
 21
79.499472339955
 31
0.0
  0
LINE
  8
0
 62
0
 10
86.44540528491342
 20
79.499472339955
 30
0.0
 11
85.64480485258932
 21
79.499472339955
 31
0.0
  0
LINE
  8
0
 62
0
 10
85.64480485258932
 20
79.499472339955
 30
0.0
 11
85.64480485258932
 21
78.500371800441
 31
0.0
  0
LINE
  8
0
 62
0
 10
85.64480485258932
 20
78.500371800441
 30
0.0
 11
71.64524729283231
 21
78.500371800441
 31
0.0
  0
LINE
  8
0
 62
0
 10
71.64524729283231
 20
78.500371800441
 30
0.0
 11
71.64524729283231
 21
79.499472339955
 31
0.0
  0
LINE
  8
0
 62
0
 10
71.64524729283231
 20
79.499472339955
 30
0.0
 11
70.84598686123192
 21
79.499472339955
 31
0.0
  0
LINE
  8
0
 62
0
 10
70.84598686123192
 20
79.499472339955
 30
0.0
 11
70.84598686123192
 21
82.599974014225
 31
0.0
  0
LINE
  8
0
 62
0
 10
70.84598686123192
 20
82.599974014225
 30
0.0
 11
71.64524729283231
 21
82.599974014225
 31
0.0
  0
LINE
  8
0
 62
0
 10
71.64524729283231
 20
82.599974014225
 30
0.0
 11
71.64524729283231
 21
88.400077146279
 31
0.0
  0
LINE
  8
0
 62
0
 10
71.64524729283231
 20
88.400077146279
 30
0.0
 11
70.84598686123192
 21
88.400077146279
 31
0.0
  0
LINE
  8
0
 62
0
 10
70.84598686123192
 20
88.400077146279
 30
0.0
 11
70.84598686123192
 21
91.499578820009
 31
0.0
  0
LINE
  8
0
 62
0
 10
70.84598686123192
 20
91.499578820009
 30
0.0
 11
71.64524729283231
 21
91.499578820009
 31
0.0
  0
LINE
  8
0
 62
0
 10
71.64524729283231
 20
91.499578820009
 30
0.0
 11
71.64524729283231
 21
92.499679360063
 31
0.0
  0
LINE
  8
0
 62
0
 10
71.64524729283231
 20
92.499679360063
 30
0.0
 11
85.64480485258932
 21
92.499679360063
 31
0.0
  0
LINE
  8
0
 62
0
 10
104.64481765258903
 20
92.499679360063
 30
0.0
 11
104.64481765258903
 21
91.499578820009
 31
0.0
  0
LINE
  8
0
 62
0
 10
104.64481765258903
 20
91.499578820009
 30
0.0
 11
105.44541808491303
 21
91.499578820009
 31
0.0
  0
LINE
  8
0
 62
0
 10
105.44541808491303
 20
91.499578820009
 30
0.0
 11
105.44541808491303
 21
88.400077146279
 31
0.0
  0
LINE
  8
0
 62
0
 10
105.44541808491303
 20
88.400077146279
 30
0.0
 11
104.64481765258903
 21
88.400077146279
 31
0.0
  0
LINE
  8
0
 62
0
 10
104.64481765258903
 20
88.400077146279
 30
0.0
 11
104.64481765258903
 21
82.599974014225
 31
0.0
  0
LINE
  8
0
 62
0
 10
104.64481765258903
 20
82.599974014225
 30
0.0
 11
105.44541808491303
 21
82.599974014225
 31
0.0
  0
LINE
  8
0
 62
0
 10
105.44541808491303
 20
82.599974014225
 30
0.0
 11
105.44541808491303
 21
79.499472339955
 31
0.0
  0
LINE
  8
0
 62
0
 10
105.44541808491303
 20
79.499472339955
 30
0.0
 11
104.64481765258903
 21
79.499472339955
 31
0.0
  0
LINE
  8
0
 62
0
 10
104.64481765258903
 20
79.499472339955
 30
0.0
 11
104.64481765258903
 21
78.500371800441
 31
0.0
  0
LINE
  8
0
 62
0
 10
104.64481765258901
 20
78.500371800441
 30
0.0
 11
90.64526009283232
 21
78.500371800441
 31
0.0
  0
LINE
  8
0
 62
0
 10
90.64526009283232
 20
78.500371800441
 30
0.0
 11
90.64526009283232
 21
79.499472339955
 31
0.0
  0
LINE
  8
0
 62
0
 10
90.64526009283232
 20
79.499472339955
 30
0.0
 11
89.84599966123191
 21
79.499472339955
 31
0.0
  0
LINE
  8
0
 62
0
 10
89.84599966123191
 20
79.499472339955
 30
0.0
 11
89.84599966123191
 21
82.599974014225
 31
0.0
  0
LINE
  8
0
 62
0
 10
89.84599966123191
 20
82.599974014225
 30
0.0
 11
90.64526009283232
 21
82.599974014225
 31
0.0
  0
LINE
  8
0
 62
0
 10
90.64526009283232
 20
82.599974014225
 30
0.0
 11
90.64526009283232
 21
88.400077146279
 31
0.0
  0
LINE
  8
0
 62
0
 10
90.64526009283232
 20
88.400077146279
 30
0.0
 11
89.84599966123191
 21
88.400077146279
 31
0.0
  0
LINE
  8
0
 62
0
 10
89.84599966123191
 20
88.400077146279
 30
0.0
 11
89.84599966123191
 21
91.499578820009
 31
0.0
  0
LINE
  8
0
 62
0
 10
89.84599966123191
 20
91.499578820009
 30
0.0
 11
90.64526009283232
 21
91.499578820009
 31
0.0
  0
LINE
  8
0
 62
0
 10
90.64526009283232
 20
91.499578820009
 30
0.0
 11
90.64526009283232
 21
92.499679360063
 31
0.0
  0
LINE
  8
0
 62
0
 10
90.64526009283233
 20
92.499679360063
 30
0.0
 11
104.64481765258903
 21
92.499679360063
 31
0.0
  0
LINE
  8
0
 62
0
 10
123.64483045258903
 20
92.499679360063
 30
0.0
 11
123.64483045258903
 21
91.499578820009
 31
0.0
  0
LINE
  8
0
 62
0
 10
123.64483045258903
 20
91.499578820009
 30
0.0
 11
124.44543088491302
 21
91.499578820009
 31
0.0
  0
LINE
  8
0
 62
0
 10
124.44543088491302
 20
91.499578820009
 30
0.0
 11
124.44543088491302
 21
88.400077146279
 31
0.0
  0
LINE
  8
0
 62
0
 10
124.44543088491302
 20
88.400077146279
 30
0.0
 11
123.64483045258903
 21
88.400077146279
 31
0.0
  0
LINE
  8
0
 62
0
 10
123.64483045258903
 20
88.400077146279
 30
0.0
 11
123.64483045258903
 21
82.599974014225
 31
0.0
  0
LINE
  8
0
 62
0
 10
123.64483045258903
 20
82.599974014225
 30
0.0
 11
124.44543088491302
 21
82.599974014225
 31
0.0
  0
LINE
  8
0
 62
0
 10
124.44543088491302
 20
82.599974014225
 30
0.0
 11
124.44543088491302
 21
79.499472339955
 31
0.0
  0
LINE
  8
0
 62
0
 10
124.44543088491302
 20
79.499472339955
 30
0.0
 11
123.64483045258903
 21
79.499472339955
 31
0.0
  0
LINE
  8
0
 62
0
 10
123.64483045258903
 20
79.499472339955
 30
0.0
 11
123.64483045258903
 21
78.500371800441
 31
0.0
  0
LINE
  8
0
 62
0
 10
123.64483045258903
 20
78.500371800441
 30
0.0
 11
109.64527289283203
 21
78.500371800441
 31
0.0
  0
LINE
  8
0
 62
0
 10
109.64527289283203
 20
78.500371800441
 30
0.0
 11
109.64527289283203
 21
79.499472339955
 31
0.0
  0
LINE
  8
0
 62
0
 10
109.64527289283203
 20
79.499472339955
 30
0.0
 11
108.84601246123202
 21
79.499472339955
 31
0.0
  0
LINE
  8
0
 62
0
 10
108.84601246123202
 20
79.499472339955
 30
0.0
 11
108.84601246123202
 21
82.599974014225
 31
0.0
  0
LINE
  8
0
 62
0
 10
108.84601246123202
 20
82.599974014225
 30
0.0
 11
109.64527289283203
 21
82.599974014225
 31
0.0
  0
LINE
  8
0
 62
0
 10
109.64527289283203
 20
82.599974014225
 30
0.0
 11
109.64527289283203
 21
88.400077146279
 31
0.0
  0
LINE
  8
0
 62
0
 10
109.64527289283203
 20
88.400077146279
 30
0.0
 11
108.84601246123202
 21
88.400077146279
 31
0.0
  0
LINE
  8
0
 62
0
 10
108.84601246123202
 20
88.400077146279
 30
0.0
 11
108.84601246123202
 21
91.499578820009
 31
0.0
  0
LINE
  8
0
 62
0
 10
108.84601246123202
 20
91.499578820009
 30
0.0
 11
109.64527289283203
 21
91.499578820009
 31
0.0
  0
LINE
  8
0
 62
0
 10
109.64527289283203
 20
91.499578820009
 30
0.0
 11
109.64527289283203
 21
92.499679360063
 31
0.0
  0
LINE
  8
0
 62
0
 10
109.64527289283203
 20
92.499679360063
 30
0.0
 11
123.64483045258903
 21
92.499679360063
 31
0.0
  0
LINE
  8
0
 62
0
 10
142.64484325258903
 20
92.499679360063
 30
0.0
 11
142.64484325258903
 21
91.499578820009
 31
0.0
  0
LINE
  8
0
 62
0
 10
142.64484325258903
 20
91.499578820009
 30
0.0
 11
143.44544368491302
 21
91.499578820009
 31
0.0
  0
LINE
  8
0
 62
0
 10
143.44544368491302
 20
91.499578820009
 30
0.0
 11
143.44544368491302
 21
88.400077146279
 31
0.0
  0
LINE
  8
0
 62
0
 10
143.44544368491302
 20
88.400077146279
 30
0.0
 11
142.64484325258903
 21
88.400077146279
 31
0.0
  0
LINE
  8
0
 62
0
 10
142.64484325258903
 20
88.400077146279
 30
0.0
 11
142.64484325258903
 21
82.599974014225
 31
0.0
  0
LINE
  8
0
 62
0
 10
142.64484325258903
 20
82.599974014225
 30
0.0
 11
143.44544368491302
 21
82.599974014225
 31
0.0
  0
LINE
  8
0
 62
0
 10
143.44544368491302
 20
82.599974014225
 30
0.0
 11
143.44544368491302
 21
79.499472339955
 31
0.0
  0
LINE
  8
0
 62
0
 10
143.44544368491302
 20
79.499472339955
 30
0.0
 11
142.64484325258903
 21
79.499472339955
 31
0.0
  0
LINE
  8
0
 62
0
 10
142.64484325258903
 20
79.499472339955
 30
0.0
 11
142.64484325258903
 21
78.500371800441
 31
0.0
  0
LINE
  8
0
 62
0
 10
142.64484325258903
 20
78.500371800441
 30
0.0
 11
128.64528569283203
 21
78.500371800441
 31
0.0
  0
LINE
  8
0
 62
0
 10
128.64528569283203
 20
78.500371800441
 30
0.0
 11
128.64528569283203
 21
79.499472339955
 31
0.0
  0
LINE
  8
0
 62
0
 10
128.64528569283203
 20
79.499472339955
 30
0.0
 11
127.84602526123203
 21
79.499472339955
 31
0.0
  0
LINE
  8
0
 62
0
 10
127.84602526123203
 20
79.499472339955
 30
0.0
 11
127.84602526123203
 21
82.599974014225
 31
0.0
  0
LINE
  8
0
 62
0
 10
127.84602526123203
 20
82.599974014225
 30
0.0
 11
128.64528569283203
 21
82.599974014225
 31
0.0
  0
LINE
  8
0
 62
0
 10
128.64528569283203
 20
82.599974014225
 30
0.0
 11
128.64528569283203
 21
88.400077146279
 31
0.0
  0
LINE
  8
0
 62
0
 10
128.64528569283203
 20
88.400077146279
 30
0.0
 11
127.84602526123203
 21
88.400077146279
 31
0.0
  0
LINE
  8
0
 62
0
 10
127.84602526123203
 20
88.400077146279
 30
0.0
 11
127.84602526123203
 21
91.499578820009
 31
0.0
  0
LINE
  8
0
 62
0
 10
127.84602526123203
 20
91.499578820009
 30
0.0
 11
128.64528569283203
 21
91.499578820009
 31
0.0
  0
LINE
  8
0
 62
0
 10
128.64528569283203
 20
91.499578820009
 30
0.0
 11
128.64528569283203
 21
92.499679360063
 31
0.0
  0
LINE
  8
0
 62
0
 10
128.64528569283203
 20
92.499679360063
 30
0.0
 11
142.64484325258903
 21
92.499679360063
 31
0.0
  0
LINE
  8
0
 62
0
 10
161.64485605258903
 20
92.499679360063
 30
0.0
 11
161.64485605258903
 21
91.499578820009
 31
0.0
  0
LINE
  8
0
 62
0
 10
161.64485605258903
 20
91.499578820009
 30
0.0
 11
162.44545648491302
 21
91.499578820009
 31
0.0
  0
LINE
  8
0
 62
0
 10
162.44545648491302
 20
91.499578820009
 30
0.0
 11
162.44545648491302
 21
88.400077146279
 31
0.0
  0
LINE
  8
0
 62
0
 10
162.44545648491302
 20
88.400077146279
 30
0.0
 11
161.64485605258903
 21
88.400077146279
 31
0.0
  0
LINE
  8
0
 62
0
 10
161.64485605258903
 20
88.400077146279
 30
0.0
 11
161.64485605258903
 21
82.599974014225
 31
0.0
  0
LINE
  8
0
 62
0
 10
161.64485605258903
 20
82.599974014225
 30
0.0
 11
162.44545648491302
 21
82.599974014225
 31
0.0
  0
LINE
  8
0
 62
0
 10
162.44545648491302
 20
82.599974014225
 30
0.0
 11
162.44545648491302
 21
79.499472339955
 31
0.0
  0
LINE
  8
0
 62
0
 10
162.44545648491302
 20
79.499472339955
 30
0.0
 11
161.64485605258903
 21
79.499472339955
 31
0.0
  0
LINE
  8
0
 62
0
 10
161.64485605258903
 20
79.499472339955
 30
0.0
 11
161.64485605258903
 21
78.500371800441
 31
0.0
  0
LINE
  8
0
 62
0
 10
161.64485605258903
 20
78.500371800441
 30
0.0
 11
147.64529849283204
 21
78.500371800441
 31
0.0
  0
LINE
  8
0
 62
0
 10
147.64529849283204
 20
78.500371800441
 30
0.0
 11
147.64529849283204
 21
79.499472339955
 31
0.0
  0
LINE
  8
0
 62
0
 10
147.64529849283204
 20
79.499472339955
 30
0.0
 11
146.84603806123204
 21
79.499472339955
 31
0.0
  0
LINE
  8
0
 62
0
 10
146.84603806123204
 20
79.499472339955
 30
0.0
 11
146.84603806123204
 21
82.599974014225
 31
0.0
  0
LINE
  8
0
 62
0
 10
146.84603806123204
 20
82.599974014225
 30
0.0
 11
147.64529849283204
 21
82.599974014225
 31
0.0
  0
LINE
  8
0
 62
0
 10
147.64529849283204
 20
82.599974014225
 30
0.0
 11
147.64529849283204
 21
88.400077146279
 31
0.0
  0
LINE
  8
0
 62
0
 10
147.64529849283204
 20
88.400077146279
 30
0.0
 11
146.84603806123204
 21
88.400077146279
 31
0.0
  0
LINE
  8
0
 62
0
 10
146.84603806123204
 20
88.400077146279
 30
0.0
 11
146.84603806123204
 21
91.499578820009
 31
0.0
  0
LINE
  8
0
 62
0
 10
146.84603806123204
 20
91.499578820009
 30
0.0
 11
147.64529849283204
 21
91.499578820009
 31
0.0
  0
LINE
  8
0
 62
0
 10
147.64529849283204
 20
91.499578820009
 30
0.0
 11
147.64529849283204
 21
92.499679360063
 31
0.0
  0
LINE
  8
0
 62
0
 10
147.64529849283204
 20
92.499679360063
 30
0.0
 11
161.64485605258903
 21
92.499679360063
 31
0.0
  0
LINE
  8
0
 62
0
 10
-47.35528474741061
 20
73.499666560063
 30
0.0
 11
-47.35528474741061
 21
72.499566020009
 31
0.0
  0
LINE
  8
0
 62
0
 10
-47.35528474741061
 20
72.499566020009
 30
0.0
 11
-46.554684315086604
 21
72.499566020009
 31
0.0
  0
LINE
  8
0
 62
0
 10
-46.554684315086604
 20
72.499566020009
 30
0.0
 11
-46.554684315086604
 21
69.400064346279
 31
0.0
  0
LINE
  8
0
 62
0
 10
-46.554684315086604
 20
69.400064346279
 30
0.0
 11
-47.35528474741061
 21
69.400064346279
 31
0.0
  0
LINE
  8
0
 62
0
 10
-47.35528474741061
 20
69.400064346279
 30
0.0
 11
-47.35528474741061
 21
63.599961214225
 31
0.0
  0
LINE
  8
0
 62
0
 10
-47.35528474741061
 20
63.599961214225
 30
0.0
 11
-46.554684315086604
 21
63.599961214225
 31
0.0
  0
LINE
  8
0
 62
0
 10
-46.554684315086604
 20
63.599961214225
 30
0.0
 11
-46.554684315086604
 21
60.499459539955
 31
0.0
  0
LINE
  8
0
 62
0
 10
-46.554684315086604
 20
60.499459539955
 30
0.0
 11
-47.35528474741061
 21
60.499459539955
 31
0.0
  0
LINE
  8
0
 62
0
 10
-47.35528474741061
 20
60.499459539955
 30
0.0
 11
-47.35528474741061
 21
59.500359000441
 31
0.0
  0
LINE
  8
0
 62
0
 10
-47.355284747410614
 20
59.500359000441
 30
0.0
 11
-61.354842307167715
 21
59.500359000441
 31
0.0
  0
LINE
  8
0
 62
0
 10
-61.354842307167715
 20
59.500359000441
 30
0.0
 11
-61.354842307167715
 21
60.499459539955
 31
0.0
  0
LINE
  8
0
 62
0
 10
-61.354842307167715
 20
60.499459539955
 30
0.0
 11
-62.15410273876802
 21
60.499459539955
 31
0.0
  0
LINE
  8
0
 62
0
 10
-62.15410273876812
 20
60.499459539955
 30
0.0
 11
-62.15410273876812
 21
63.599961214225
 31
0.0
  0
LINE
  8
0
 62
0
 10
-62.15410273876802
 20
63.599961214225
 30
0.0
 11
-61.354842307167715
 21
63.599961214225
 31
0.0
  0
LINE
  8
0
 62
0
 10
-61.354842307167715
 20
63.599961214225
 30
0.0
 11
-61.354842307167715
 21
69.400064346279
 31
0.0
  0
LINE
  8
0
 62
0
 10
-61.354842307167715
 20
69.400064346279
 30
0.0
 11
-62.15410273876802
 21
69.400064346279
 31
0.0
  0
LINE
  8
0
 62
0
 10
-62.15410273876812
 20
69.400064346279
 30
0.0
 11
-62.15410273876812
 21
72.499566020009
 31
0.0
  0
LINE
  8
0
 62
0
 10
-62.15410273876802
 20
72.499566020009
 30
0.0
 11
-61.354842307167715
 21
72.499566020009
 31
0.0
  0
LINE
  8
0
 62
0
 10
-61.354842307167715
 20
72.499566020009
 30
0.0
 11
-61.354842307167715
 21
73.499666560063
 31
0.0
  0
LINE
  8
0
 62
0
 10
-61.35484230716771
 20
73.499666560063
 30
0.0
 11
-47.35528474741061
 21
73.499666560063
 31
0.0
  0
LINE
  8
0
 62
0
 10
-47.35528474741061
 20
54.499653760063
 30
0.0
 11
-47.35528474741061
 21
53.499553220009
 31
0.0
  0
LINE
  8
0
 62
0
 10
-47.35528474741061
 20
53.499553220009
 30
0.0
 11
-46.554684315086604
 21
53.499553220009
 31
0.0
  0
LINE
  8
0
 62
0
 10
-46.554684315086604
 20
53.499553220009
 30
0.0
 11
-46.554684315086604
 21
50.400051546279
 31
0.0
  0
LINE
  8
0
 62
0
 10
-46.554684315086604
 20
50.400051546279
 30
0.0
 11
-47.35528474741061
 21
50.400051546279
 31
0.0
  0
LINE
  8
0
 62
0
 10
-47.35528474741061
 20
50.400051546278995
 30
0.0
 11
-47.35528474741061
 21
44.59994841422499
 31
0.0
  0
LINE
  8
0
 62
0
 10
-47.35528474741061
 20
44.59994841422499
 30
0.0
 11
-46.554684315086604
 21
44.59994841422499
 31
0.0
  0
LINE
  8
0
 62
0
 10
-46.554684315086604
 20
44.59994841422499
 30
0.0
 11
-46.554684315086604
 21
41.49944673995509
 31
0.0
  0
LINE
  8
0
 62
0
 10
-46.554684315086604
 20
41.49944673995509
 30
0.0
 11
-47.35528474741061
 21
41.49944673995509
 31
0.0
  0
LINE
  8
0
 62
0
 10
-47.35528474741061
 20
41.49944673995509
 30
0.0
 11
-47.35528474741061
 21
40.500346200440994
 31
0.0
  0
LINE
  8
0
 62
0
 10
-47.355284747410614
 20
40.500346200440994
 30
0.0
 11
-61.354842307167715
 21
40.500346200440994
 31
0.0
  0
LINE
  8
0
 62
0
 10
-61.354842307167715
 20
40.500346200440994
 30
0.0
 11
-61.354842307167715
 21
41.49944673995509
 31
0.0
  0
LINE
  8
0
 62
0
 10
-61.354842307167715
 20
41.49944673995509
 30
0.0
 11
-62.15410273876802
 21
41.49944673995509
 31
0.0
  0
LINE
  8
0
 62
0
 10
-62.15410273876812
 20
41.49944673995509
 30
0.0
 11
-62.15410273876812
 21
44.59994841422499
 31
0.0
  0
LINE
  8
0
 62
0
 10
-62.15410273876802
 20
44.59994841422499
 30
0.0
 11
-61.354842307167715
 21
44.59994841422499
 31
0.0
  0
LINE
  8
0
 62
0
 10
-61.354842307167715
 20
44.599948414225
 30
0.0
 11
-61.354842307167715
 21
50.400051546279
 31
0.0
  0
LINE
  8
0
 62
0
 10
-61.354842307167715
 20
50.400051546279
 30
0.0
 11
-62.15410273876802
 21
50.400051546279
 31
0.0
  0
LINE
  8
0
 62
0
 10
-62.15410273876812
 20
50.400051546279
 30
0.0
 11
-62.15410273876812
 21
53.499553220009
 31
0.0
  0
LINE
  8
0
 62
0
 10
-62.15410273876802
 20
53.499553220009
 30
0.0
 11
-61.354842307167715
 21
53.499553220009
 31
0.0
  0
LINE
  8
0
 62
0
 10
-61.354842307167715
 20
53.499553220009
 30
0.0
 11
-61.354842307167715
 21
54.499653760063
 31
0.0
  0
LINE
  8
0
 62
0
 10
-61.35484230716771
 20
54.499653760063
 30
0.0
 11
-47.35528474741061
 21
54.499653760063
 31
0.0
  0
LINE
  8
0
 62
0
 10
-47.35528474741061
 20
35.49964096006309
 30
0.0
 11
-47.35528474741061
 21
34.49954042000899
 31
0.0
  0
LINE
  8
0
 62
0
 10
-47.35528474741061
 20
34.49954042000899
 30
0.0
 11
-46.554684315086604
 21
34.49954042000899
 31
0.0
  0
LINE
  8
0
 62
0
 10
-46.554684315086604
 20
34.499540420009
 30
0.0
 11
-46.554684315086604
 21
31.400038746278998
 31
0.0
  0
LINE
  8
0
 62
0
 10
-46.554684315086604
 20
31.400038746278998
 30
0.0
 11
-47.35528474741061
 21
31.400038746278998
 31
0.0
  0
LINE
  8
0
 62
0
 10
-47.35528474741061
 20
31.400038746278998
 30
0.0
 11
-47.35528474741061
 21
25.599935614224997
 31
0.0
  0
LINE
  8
0
 62
0
 10
-47.35528474741061
 20
25.599935614224997
 30
0.0
 11
-46.554684315086604
 21
25.599935614224997
 31
0.0
  0
LINE
  8
0
 62
0
 10
-46.554684315086604
 20
25.599935614224993
 30
0.0
 11
-46.554684315086604
 21
22.499433939954994
 31
0.0
  0
LINE
  8
0
 62
0
 10
-46.554684315086604
 20
22.499433939954994
 30
0.0
 11
-47.35528474741061
 21
22.499433939954994
 31
0.0
  0
LINE
  8
0
 62
0
 10
-47.35528474741061
 20
22.499433939954994
 30
0.0
 11
-47.35528474741061
 21
21.500333400440994
 31
0.0
  0
LINE
  8
0
 62
0
 10
-47.355284747410614
 20
21.500333400440994
 30
0.0
 11
-61.354842307167715
 21
21.500333400440994
 31
0.0
  0
LINE
  8
0
 62
0
 10
-61.354842307167715
 20
21.500333400440994
 30
0.0
 11
-61.354842307167715
 21
22.499433939954994
 31
0.0
  0
LINE
  8
0
 62
0
 10
-61.354842307167715
 20
22.499433939954994
 30
0.0
 11
-62.15410273876802
 21
22.499433939954994
 31
0.0
  0
LINE
  8
0
 62
0
 10
-62.15410273876812
 20
22.499433939954997
 30
0.0
 11
-62.15410273876812
 21
25.599935614224997
 31
0.0
  0
LINE
  8
0
 62
0
 10
-62.15410273876802
 20
25.599935614224997
 30
0.0
 11
-61.354842307167715
 21
25.599935614224997
 31
0.0
  0
LINE
  8
0
 62
0
 10
-61.354842307167715
 20
25.599935614224997
 30
0.0
 11
-61.354842307167715
 21
31.400038746278998
 31
0.0
  0
LINE
  8
0
 62
0
 10
-61.354842307167715
 20
31.400038746278998
 30
0.0
 11
-62.15410273876802
 21
31.400038746278998
 31
0.0
  0
LINE
  8
0
 62
0
 10
-62.15410273876812
 20
31.400038746278994
 30
0.0
 11
-62.15410273876812
 21
34.49954042000899
 31
0.0
  0
LINE
  8
0
 62
0
 10
-62.15410273876802
 20
34.49954042000899
 30
0.0
 11
-61.354842307167715
 21
34.49954042000899
 31
0.0
  0
LINE
  8
0
 62
0
 10
-61.354842307167715
 20
34.49954042000899
 30
0.0
 11
-61.354842307167715
 21
35.49964096006309
 31
0.0
  0
LINE
  8
0
 62
0
 10
-61.35484230716771
 20
35.49964096006309
 30
0.0
 11
-47.35528474741061
 21
35.49964096006309
 31
0.0
  0
LINE
  8
0
 62
0
 10
-47.35528474741061
 20
16.49962816006299
 30
0.0
 11
-47.35528474741061
 21
15.49952762000899
 31
0.0
  0
LINE
  8
0
 62
0
 10
-47.35528474741061
 20
15.49952762000899
 30
0.0
 11
-46.554684315086604
 21
15.49952762000899
 31
0.0
  0
LINE
  8
0
 62
0
 10
-46.554684315086604
 20
15.49952762000899
 30
0.0
 11
-46.554684315086604
 21
12.40002594627899
 31
0.0
  0
LINE
  8
0
 62
0
 10
-46.554684315086604
 20
12.40002594627899
 30
0.0
 11
-47.35528474741061
 21
12.40002594627899
 31
0.0
  0
LINE
  8
0
 62
0
 10
-47.35528474741061
 20
12.40002594627899
 30
0.0
 11
-47.35528474741061
 21
6.59992281422498
 31
0.0
  0
LINE
  8
0
 62
0
 10
-47.35528474741061
 20
6.59992281422498
 30
0.0
 11
-46.554684315086604
 21
6.59992281422498
 31
0.0
  0
LINE
  8
0
 62
0
 10
-46.554684315086604
 20
6.599922814224979
 30
0.0
 11
-46.554684315086604
 21
3.499421139955049
 31
0.0
  0
LINE
  8
0
 62
0
 10
-46.554684315086604
 20
3.499421139955049
 30
0.0
 11
-47.35528474741061
 21
3.499421139955049
 31
0.0
  0
LINE
  8
0
 62
0
 10
-47.35528474741061
 20
3.4994211399550488
 30
0.0
 11
-47.35528474741061
 21
2.500320600440999
 31
0.0
  0
LINE
  8
0
 62
0
 10
-47.355284747410614
 20
2.500320600440999
 30
0.0
 11
-61.354842307167715
 21
2.500320600440999
 31
0.0
  0
LINE
  8
0
 62
0
 10
-61.354842307167715
 20
2.5003206004409995
 30
0.0
 11
-61.354842307167715
 21
3.499421139955049
 31
0.0
  0
LINE
  8
0
 62
0
 10
-61.354842307167715
 20
3.499421139955049
 30
0.0
 11
-62.15410273876802
 21
3.499421139955049
 31
0.0
  0
LINE
  8
0
 62
0
 10
-62.15410273876812
 20
3.49942113995505
 30
0.0
 11
-62.15410273876812
 21
6.59992281422498
 31
0.0
  0
LINE
  8
0
 62
0
 10
-62.15410273876802
 20
6.59992281422498
 30
0.0
 11
-61.354842307167715
 21
6.59992281422498
 31
0.0
  0
LINE
  8
0
 62
0
 10
-61.354842307167715
 20
6.599922814224981
 30
0.0
 11
-61.354842307167715
 21
12.40002594627899
 31
0.0
  0
LINE
  8
0
 62
0
 10
-61.354842307167715
 20
12.40002594627899
 30
0.0
 11
-62.15410273876802
 21
12.40002594627899
 31
0.0
  0
LINE
  8
0
 62
0
 10
-62.15410273876812
 20
12.40002594627899
 30
0.0
 11
-62.15410273876812
 21
15.49952762000899
 31
0.0
  0
LINE
  8
0
 62
0
 10
-62.15410273876802
 20
15.49952762000899
 30
0.0
 11
-61.354842307167715
 21
15.49952762000899
 31
0.0
  0
LINE
  8
0
 62
0
 10
-61.354842307167715
 20
15.499527620008992
 30
0.0
 11
-61.354842307167715
 21
16.499628160062993
 31
0.0
  0
LINE
  8
0
 62
0
 10
-61.35484230716771
 20
16.499628160062993
 30
0.0
 11
-47.35528474741061
 21
16.499628160062993
 31
0.0
  0
LINE
  8
0
 62
0
 10
-28.355271947410607
 20
73.499666560063
 30
0.0
 11
-28.355271947410607
 21
72.499566020009
 31
0.0
  0
LINE
  8
0
 62
0
 10
-28.355271947410607
 20
72.499566020009
 30
0.0
 11
-27.554671515086607
 21
72.499566020009
 31
0.0
  0
LINE
  8
0
 62
0
 10
-27.554671515086607
 20
72.499566020009
 30
0.0
 11
-27.554671515086607
 21
69.400064346279
 31
0.0
  0
LINE
  8
0
 62
0
 10
-27.554671515086607
 20
69.400064346279
 30
0.0
 11
-28.355271947410607
 21
69.400064346279
 31
0.0
  0
LINE
  8
0
 62
0
 10
-28.355271947410607
 20
69.400064346279
 30
0.0
 11
-28.355271947410607
 21
63.599961214225
 31
0.0
  0
LINE
  8
0
 62
0
 10
-28.355271947410607
 20
63.599961214225
 30
0.0
 11
-27.554671515086607
 21
63.599961214225
 31
0.0
  0
LINE
  8
0
 62
0
 10
-27.554671515086607
 20
63.599961214225
 30
0.0
 11
-27.554671515086607
 21
60.499459539955
 31
0.0
  0
LINE
  8
0
 62
0
 10
-27.554671515086607
 20
60.499459539955
 30
0.0
 11
-28.355271947410607
 21
60.499459539955
 31
0.0
  0
LINE
  8
0
 62
0
 10
-28.355271947410607
 20
60.499459539955
 30
0.0
 11
-28.355271947410607
 21
59.500359000441
 31
0.0
  0
LINE
  8
0
 62
0
 10
-28.355271947410607
 20
59.500359000441
 30
0.0
 11
-42.35482950716771
 21
59.500359000441
 31
0.0
  0
LINE
  8
0
 62
0
 10
-42.35482950716771
 20
59.500359000441
 30
0.0
 11
-42.35482950716771
 21
60.499459539955
 31
0.0
  0
LINE
  8
0
 62
0
 10
-42.35482950716771
 20
60.499459539955
 30
0.0
 11
-43.15408993876811
 21
60.499459539955
 31
0.0
  0
LINE
  8
0
 62
0
 10
-43.15408993876811
 20
60.499459539955
 30
0.0
 11
-43.15408993876811
 21
63.599961214225
 31
0.0
  0
LINE
  8
0
 62
0
 10
-43.15408993876811
 20
63.599961214225
 30
0.0
 11
-42.35482950716771
 21
63.599961214225
 31
0.0
  0
LINE
  8
0
 62
0
 10
-42.35482950716771
 20
63.599961214225
 30
0.0
 11
-42.35482950716771
 21
69.400064346279
 31
0.0
  0
LINE
  8
0
 62
0
 10
-42.35482950716771
 20
69.400064346279
 30
0.0
 11
-43.15408993876811
 21
69.400064346279
 31
0.0
  0
LINE
  8
0
 62
0
 10
-43.15408993876811
 20
69.400064346279
 30
0.0
 11
-43.15408993876811
 21
72.499566020009
 31
0.0
  0
LINE
  8
0
 62
0
 10
-43.15408993876811
 20
72.499566020009
 30
0.0
 11
-42.35482950716771
 21
72.499566020009
 31
0.0
  0
LINE
  8
0
 62
0
 10
-42.35482950716771
 20
72.499566020009
 30
0.0
 11
-42.35482950716771
 21
73.499666560063
 31
0.0
  0
LINE
  8
0
 62
0
 10
-42.35482950716771
 20
73.499666560063
 30
0.0
 11
-28.355271947410607
 21
73.499666560063
 31
0.0
  0
LINE
  8
0
 62
0
 10
-28.355271947410607
 20
54.499653760063
 30
0.0
 11
-28.355271947410607
 21
53.499553220009
 31
0.0
  0
LINE
  8
0
 62
0
 10
-28.355271947410607
 20
53.499553220009
 30
0.0
 11
-27.554671515086607
 21
53.499553220009
 31
0.0
  0
LINE
  8
0
 62
0
 10
-27.554671515086607
 20
53.499553220009
 30
0.0
 11
-27.554671515086607
 21
50.400051546279
 31
0.0
  0
LINE
  8
0
 62
0
 10
-27.554671515086607
 20
50.400051546279
 30
0.0
 11
-28.355271947410607
 21
50.400051546279
 31
0.0
  0
LINE
  8
0
 62
0
 10
-28.355271947410607
 20
50.400051546278995
 30
0.0
 11
-28.355271947410607
 21
44.59994841422499
 31
0.0
  0
LINE
  8
0
 62
0
 10
-28.355271947410607
 20
44.59994841422499
 30
0.0
 11
-27.554671515086607
 21
44.59994841422499
 31
0.0
  0
LINE
  8
0
 62
0
 10
-27.554671515086607
 20
44.59994841422499
 30
0.0
 11
-27.554671515086607
 21
41.49944673995509
 31
0.0
  0
LINE
  8
0
 62
0
 10
-27.554671515086607
 20
41.49944673995509
 30
0.0
 11
-28.355271947410607
 21
41.49944673995509
 31
0.0
  0
LINE
  8
0
 62
0
 10
-28.355271947410607
 20
41.49944673995509
 30
0.0
 11
-28.355271947410607
 21
40.500346200440994
 31
0.0
  0
LINE
  8
0
 62
0
 10
-28.355271947410607
 20
40.500346200440994
 30
0.0
 11
-42.35482950716771
 21
40.500346200440994
 31
0.0
  0
LINE
  8
0
 62
0
 10
-42.35482950716771
 20
40.500346200440994
 30
0.0
 11
-42.35482950716771
 21
41.49944673995509
 31
0.0
  0
LINE
  8
0
 62
0
 10
-42.35482950716771
 20
41.49944673995509
 30
0.0
 11
-43.15408993876811
 21
41.49944673995509
 31
0.0
  0
LINE
  8
0
 62
0
 10
-43.15408993876811
 20
41.49944673995509
 30
0.0
 11
-43.15408993876811
 21
44.59994841422499
 31
0.0
  0
LINE
  8
0
 62
0
 10
-43.15408993876811
 20
44.59994841422499
 30
0.0
 11
-42.35482950716771
 21
44.59994841422499
 31
0.0
  0
LINE
  8
0
 62
0
 10
-42.35482950716771
 20
44.599948414225
 30
0.0
 11
-42.35482950716771
 21
50.400051546279
 31
0.0
  0
LINE
  8
0
 62
0
 10
-42.35482950716771
 20
50.400051546279
 30
0.0
 11
-43.15408993876811
 21
50.400051546279
 31
0.0
  0
LINE
  8
0
 62
0
 10
-43.15408993876811
 20
50.400051546279
 30
0.0
 11
-43.15408993876811
 21
53.499553220009
 31
0.0
  0
LINE
  8
0
 62
0
 10
-43.15408993876811
 20
53.499553220009
 30
0.0
 11
-42.35482950716771
 21
53.499553220009
 31
0.0
  0
LINE
  8
0
 62
0
 10
-42.35482950716771
 20
53.499553220009
 30
0.0
 11
-42.35482950716771
 21
54.499653760063
 31
0.0
  0
LINE
  8
0
 62
0
 10
-42.35482950716771
 20
54.499653760063
 30
0.0
 11
-28.355271947410607
 21
54.499653760063
 31
0.0
  0
LINE
  8
0
 62
0
 10
-28.355271947410607
 20
35.49964096006309
 30
0.0
 11
-28.355271947410607
 21
34.49954042000899
 31
0.0
  0
LINE
  8
0
 62
0
 10
-28.355271947410607
 20
34.49954042000899
 30
0.0
 11
-27.554671515086607
 21
34.49954042000899
 31
0.0
  0
LINE
  8
0
 62
0
 10
-27.554671515086607
 20
34.499540420009
 30
0.0
 11
-27.554671515086607
 21
31.400038746278998
 31
0.0
  0
LINE
  8
0
 62
0
 10
-27.554671515086607
 20
31.400038746278998
 30
0.0
 11
-28.355271947410607
 21
31.400038746278998
 31
0.0
  0
LINE
  8
0
 62
0
 10
-28.355271947410607
 20
31.400038746278998
 30
0.0
 11
-28.355271947410607
 21
25.599935614224997
 31
0.0
  0
LINE
  8
0
 62
0
 10
-28.355271947410607
 20
25.599935614224997
 30
0.0
 11
-27.554671515086607
 21
25.599935614224997
 31
0.0
  0
LINE
  8
0
 62
0
 10
-27.554671515086607
 20
25.599935614224993
 30
0.0
 11
-27.554671515086607
 21
22.499433939954994
 31
0.0
  0
LINE
  8
0
 62
0
 10
-27.554671515086607
 20
22.499433939954994
 30
0.0
 11
-28.355271947410607
 21
22.499433939954994
 31
0.0
  0
LINE
  8
0
 62
0
 10
-28.355271947410607
 20
22.499433939954994
 30
0.0
 11
-28.355271947410607
 21
21.500333400440994
 31
0.0
  0
LINE
  8
0
 62
0
 10
-28.355271947410607
 20
21.500333400440994
 30
0.0
 11
-42.35482950716771
 21
21.500333400440994
 31
0.0
  0
LINE
  8
0
 62
0
 10
-42.35482950716771
 20
21.500333400440994
 30
0.0
 11
-42.35482950716771
 21
22.499433939954994
 31
0.0
  0
LINE
  8
0
 62
0
 10
-42.35482950716771
 20
22.499433939954994
 30
0.0
 11
-43.15408993876811
 21
22.499433939954994
 31
0.0
  0
LINE
  8
0
 62
0
 10
-43.15408993876811
 20
22.499433939954997
 30
0.0
 11
-43.15408993876811
 21
25.599935614224997
 31
0.0
  0
LINE
  8
0
 62
0
 10
-43.15408993876811
 20
25.599935614224997
 30
0.0
 11
-42.35482950716771
 21
25.599935614224997
 31
0.0
  0
LINE
  8
0
 62
0
 10
-42.35482950716771
 20
25.599935614224997
 30
0.0
 11
-42.35482950716771
 21
31.400038746278998
 31
0.0
  0
LINE
  8
0
 62
0
 10
-42.35482950716771
 20
31.400038746278998
 30
0.0
 11
-43.15408993876811
 21
31.400038746278998
 31
0.0
  0
LINE
  8
0
 62
0
 10
-43.15408993876811
 20
31.400038746278994
 30
0.0
 11
-43.15408993876811
 21
34.49954042000899
 31
0.0
  0
LINE
  8
0
 62
0
 10
-43.15408993876811
 20
34.49954042000899
 30
0.0
 11
-42.35482950716771
 21
34.49954042000899
 31
0.0
  0
LINE
  8
0
 62
0
 10
-42.35482950716771
 20
34.49954042000899
 30
0.0
 11
-42.35482950716771
 21
35.49964096006309
 31
0.0
  0
LINE
  8
0
 62
0
 10
-42.35482950716771
 20
35.49964096006309
 30
0.0
 11
-28.355271947410607
 21
35.49964096006309
 31
0.0
  0
LINE
  8
0
 62
0
 10
-28.355271947410607
 20
16.49962816006299
 30
0.0
 11
-28.355271947410607
 21
15.49952762000899
 31
0.0
  0
LINE
  8
0
 62
0
 10
-28.355271947410607
 20
15.49952762000899
 30
0.0
 11
-27.554671515086607
 21
15.49952762000899
 31
0.0
  0
LINE
  8
0
 62
0
 10
-27.554671515086607
 20
15.49952762000899
 30
0.0
 11
-27.554671515086607
 21
12.40002594627899
 31
0.0
  0
LINE
  8
0
 62
0
 10
-27.554671515086607
 20
12.40002594627899
 30
0.0
 11
-28.355271947410607
 21
12.40002594627899
 31
0.0
  0
LINE
  8
0
 62
0
 10
-28.355271947410607
 20
12.40002594627899
 30
0.0
 11
-28.355271947410607
 21
6.59992281422498
 31
0.0
  0
LINE
  8
0
 62
0
 10
-28.355271947410607
 20
6.59992281422498
 30
0.0
 11
-27.554671515086607
 21
6.59992281422498
 31
0.0
  0
LINE
  8
0
 62
0
 10
-27.554671515086607
 20
6.599922814224979
 30
0.0
 11
-27.554671515086607
 21
3.499421139955049
 31
0.0
  0
LINE
  8
0
 62
0
 10
-27.554671515086607
 20
3.499421139955049
 30
0.0
 11
-28.355271947410607
 21
3.499421139955049
 31
0.0
  0
LINE
  8
0
 62
0
 10
-28.355271947410607
 20
3.4994211399550488
 30
0.0
 11
-28.355271947410607
 21
2.500320600440999
 31
0.0
  0
LINE
  8
0
 62
0
 10
-28.355271947410607
 20
2.500320600440999
 30
0.0
 11
-42.35482950716771
 21
2.500320600440999
 31
0.0
  0
LINE
  8
0
 62
0
 10
-42.35482950716771
 20
2.5003206004409995
 30
0.0
 11
-42.35482950716771
 21
3.499421139955049
 31
0.0
  0
LINE
  8
0
 62
0
 10
-42.35482950716771
 20
3.499421139955049
 30
0.0
 11
-43.15408993876811
 21
3.499421139955049
 31
0.0
  0
LINE
  8
0
 62
0
 10
-43.15408993876811
 20
3.49942113995505
 30
0.0
 11
-43.15408993876811
 21
6.59992281422498
 31
0.0
  0
LINE
  8
0
 62
0
 10
-43.15408993876811
 20
6.59992281422498
 30
0.0
 11
-42.35482950716771
 21
6.59992281422498
 31
0.0
  0
LINE
  8
0
 62
0
 10
-42.35482950716771
 20
6.599922814224981
 30
0.0
 11
-42.35482950716771
 21
12.40002594627899
 31
0.0
  0
LINE
  8
0
 62
0
 10
-42.35482950716771
 20
12.40002594627899
 30
0.0
 11
-43.15408993876811
 21
12.40002594627899
 31
0.0
  0
LINE
  8
0
 62
0
 10
-43.15408993876811
 20
12.40002594627899
 30
0.0
 11
-43.15408993876811
 21
15.49952762000899
 31
0.0
  0
LINE
  8
0
 62
0
 10
-43.15408993876811
 20
15.49952762000899
 30
0.0
 11
-42.35482950716771
 21
15.49952762000899
 31
0.0
  0
LINE
  8
0
 62
0
 10
-42.35482950716771
 20
15.499527620008992
 30
0.0
 11
-42.35482950716771
 21
16.499628160062993
 31
0.0
  0
LINE
  8
0
 62
0
 10
-42.35482950716771
 20
16.499628160062993
 30
0.0
 11
-28.355271947410607
 21
16.499628160062993
 31
0.0
  0
LINE
  8
0
 62
0
 10
-9.355259147410651
 20
73.499666560063
 30
0.0
 11
-9.355259147410651
 21
72.499566020009
 31
0.0
  0
LINE
  8
0
 62
0
 10
-9.355259147410651
 20
72.499566020009
 30
0.0
 11
-8.554658715086601
 21
72.499566020009
 31
0.0
  0
LINE
  8
0
 62
0
 10
-8.554658715086601
 20
72.499566020009
 30
0.0
 11
-8.554658715086601
 21
69.400064346279
 31
0.0
  0
LINE
  8
0
 62
0
 10
-8.554658715086601
 20
69.400064346279
 30
0.0
 11
-9.355259147410651
 21
69.400064346279
 31
0.0
  0
LINE
  8
0
 62
0
 10
-9.355259147410651
 20
69.400064346279
 30
0.0
 11
-9.355259147410651
 21
63.599961214225
 31
0.0
  0
LINE
  8
0
 62
0
 10
-9.355259147410651
 20
63.599961214225
 30
0.0
 11
-8.554658715086601
 21
63.599961214225
 31
0.0
  0
LINE
  8
0
 62
0
 10
-8.554658715086601
 20
63.599961214225
 30
0.0
 11
-8.554658715086601
 21
60.499459539955
 31
0.0
  0
LINE
  8
0
 62
0
 10
-8.554658715086601
 20
60.499459539955
 30
0.0
 11
-9.355259147410651
 21
60.499459539955
 31
0.0
  0
LINE
  8
0
 62
0
 10
-9.355259147410651
 20
60.499459539955
 30
0.0
 11
-9.355259147410651
 21
59.500359000441
 31
0.0
  0
LINE
  8
0
 62
0
 10
-9.355259147410653
 20
59.500359000441
 30
0.0
 11
-23.354816707167704
 21
59.500359000441
 31
0.0
  0
LINE
  8
0
 62
0
 10
-23.354816707167704
 20
59.500359000441
 30
0.0
 11
-23.354816707167704
 21
60.499459539955
 31
0.0
  0
LINE
  8
0
 62
0
 10
-23.354816707167707
 20
60.499459539955
 30
0.0
 11
-24.154077138768105
 21
60.499459539955
 31
0.0
  0
LINE
  8
0
 62
0
 10
-24.154077138768105
 20
60.499459539955
 30
0.0
 11
-24.154077138768105
 21
63.599961214225
 31
0.0
  0
LINE
  8
0
 62
0
 10
-24.154077138768102
 20
63.599961214225
 30
0.0
 11
-23.354816707167704
 21
63.599961214225
 31
0.0
  0
LINE
  8
0
 62
0
 10
-23.354816707167704
 20
63.599961214225
 30
0.0
 11
-23.354816707167704
 21
69.400064346279
 31
0.0
  0
LINE
  8
0
 62
0
 10
-23.354816707167707
 20
69.400064346279
 30
0.0
 11
-24.154077138768105
 21
69.400064346279
 31
0.0
  0
LINE
  8
0
 62
0
 10
-24.154077138768105
 20
69.400064346279
 30
0.0
 11
-24.154077138768105
 21
72.499566020009
 31
0.0
  0
LINE
  8
0
 62
0
 10
-24.154077138768102
 20
72.499566020009
 30
0.0
 11
-23.354816707167704
 21
72.499566020009
 31
0.0
  0
LINE
  8
0
 62
0
 10
-23.354816707167704
 20
72.499566020009
 30
0.0
 11
-23.354816707167704
 21
73.499666560063
 31
0.0
  0
LINE
  8
0
 62
0
 10
-23.3548167071677
 20
73.499666560063
 30
0.0
 11
-9.355259147410651
 21
73.499666560063
 31
0.0
  0
LINE
  8
0
 62
0
 10
-9.355259147410651
 20
54.499653760063
 30
0.0
 11
-9.355259147410651
 21
53.499553220009
 31
0.0
  0
LINE
  8
0
 62
0
 10
-9.355259147410651
 20
53.499553220009
 30
0.0
 11
-8.554658715086601
 21
53.499553220009
 31
0.0
  0
LINE
  8
0
 62
0
 10
-8.554658715086601
 20
53.499553220009
 30
0.0
 11
-8.554658715086601
 21
50.400051546279
 31
0.0
  0
LINE
  8
0
 62
0
 10
-8.554658715086601
 20
50.400051546279
 30
0.0
 11
-9.355259147410651
 21
50.400051546279
 31
0.0
  0
LINE
  8
0
 62
0
 10
-9.355259147410651
 20
50.400051546278995
 30
0.0
 11
-9.355259147410651
 21
44.59994841422499
 31
0.0
  0
LINE
  8
0
 62
0
 10
-9.355259147410651
 20
44.59994841422499
 30
0.0
 11
-8.554658715086601
 21
44.59994841422499
 31
0.0
  0
LINE
  8
0
 62
0
 10
-8.554658715086601
 20
44.59994841422499
 30
0.0
 11
-8.554658715086601
 21
41.49944673995509
 31
0.0
  0
LINE
  8
0
 62
0
 10
-8.554658715086601
 20
41.49944673995509
 30
0.0
 11
-9.355259147410651
 21
41.49944673995509
 31
0.0
  0
LINE
  8
0
 62
0
 10
-9.355259147410651
 20
41.49944673995509
 30
0.0
 11
-9.355259147410651
 21
40.500346200440994
 31
0.0
  0
LINE
  8
0
 62
0
 10
-9.355259147410653
 20
40.500346200440994
 30
0.0
 11
-23.354816707167704
 21
40.500346200440994
 31
0.0
  0
LINE
  8
0
 62
0
 10
-23.354816707167704
 20
40.500346200440994
 30
0.0
 11
-23.354816707167704
 21
41.49944673995509
 31
0.0
  0
LINE
  8
0
 62
0
 10
-23.354816707167707
 20
41.49944673995509
 30
0.0
 11
-24.154077138768105
 21
41.49944673995509
 31
0.0
  0
LINE
  8
0
 62
0
 10
-24.154077138768105
 20
41.49944673995509
 30
0.0
 11
-24.154077138768105
 21
44.59994841422499
 31
0.0
  0
LINE
  8
0
 62
0
 10
-24.154077138768102
 20
44.59994841422499
 30
0.0
 11
-23.354816707167704
 21
44.59994841422499
 31
0.0
  0
LINE
  8
0
 62
0
 10
-23.354816707167704
 20
44.599948414225
 30
0.0
 11
-23.354816707167704
 21
50.400051546279
 31
0.0
  0
LINE
  8
0
 62
0
 10
-23.354816707167707
 20
50.400051546279
 30
0.0
 11
-24.154077138768105
 21
50.400051546279
 31
0.0
  0
LINE
  8
0
 62
0
 10
-24.154077138768105
 20
50.400051546279
 30
0.0
 11
-24.154077138768105
 21
53.499553220009
 31
0.0
  0
LINE
  8
0
 62
0
 10
-24.154077138768102
 20
53.499553220009
 30
0.0
 11
-23.354816707167704
 21
53.499553220009
 31
0.0
  0
LINE
  8
0
 62
0
 10
-23.354816707167704
 20
53.499553220009
 30
0.0
 11
-23.354816707167704
 21
54.499653760063
 31
0.0
  0
LINE
  8
0
 62
0
 10
-23.3548167071677
 20
54.499653760063
 30
0.0
 11
-9.355259147410651
 21
54.499653760063
 31
0.0
  0
LINE
  8
0
 62
0
 10
-9.355259147410651
 20
35.49964096006309
 30
0.0
 11
-9.355259147410651
 21
34.49954042000899
 31
0.0
  0
LINE
  8
0
 62
0
 10
-9.355259147410651
 20
34.49954042000899
 30
0.0
 11
-8.554658715086601
 21
34.49954042000899
 31
0.0
  0
LINE
  8
0
 62
0
 10
-8.554658715086601
 20
34.499540420009
 30
0.0
 11
-8.554658715086601
 21
31.400038746278998
 31
0.0
  0
LINE
  8
0
 62
0
 10
-8.554658715086601
 20
31.400038746278998
 30
0.0
 11
-9.355259147410651
 21
31.400038746278998
 31
0.0
  0
LINE
  8
0
 62
0
 10
-9.355259147410651
 20
31.400038746278998
 30
0.0
 11
-9.355259147410651
 21
25.599935614224997
 31
0.0
  0
LINE
  8
0
 62
0
 10
-9.355259147410651
 20
25.599935614224997
 30
0.0
 11
-8.554658715086601
 21
25.599935614224997
 31
0.0
  0
LINE
  8
0
 62
0
 10
-8.554658715086601
 20
25.599935614224993
 30
0.0
 11
-8.554658715086601
 21
22.499433939954994
 31
0.0
  0
LINE
  8
0
 62
0
 10
-8.554658715086601
 20
22.499433939954994
 30
0.0
 11
-9.355259147410651
 21
22.499433939954994
 31
0.0
  0
LINE
  8
0
 62
0
 10
-9.355259147410651
 20
22.499433939954994
 30
0.0
 11
-9.355259147410651
 21
21.500333400440994
 31
0.0
  0
LINE
  8
0
 62
0
 10
-9.355259147410653
 20
21.500333400440994
 30
0.0
 11
-23.354816707167704
 21
21.500333400440994
 31
0.0
  0
LINE
  8
0
 62
0
 10
-23.354816707167704
 20
21.500333400440994
 30
0.0
 11
-23.354816707167704
 21
22.499433939954994
 31
0.0
  0
LINE
  8
0
 62
0
 10
-23.354816707167707
 20
22.499433939954994
 30
0.0
 11
-24.154077138768105
 21
22.499433939954994
 31
0.0
  0
LINE
  8
0
 62
0
 10
-24.154077138768105
 20
22.499433939954997
 30
0.0
 11
-24.154077138768105
 21
25.599935614224997
 31
0.0
  0
LINE
  8
0
 62
0
 10
-24.154077138768102
 20
25.599935614224997
 30
0.0
 11
-23.354816707167704
 21
25.599935614224997
 31
0.0
  0
LINE
  8
0
 62
0
 10
-23.354816707167704
 20
25.599935614224997
 30
0.0
 11
-23.354816707167704
 21
31.400038746278998
 31
0.0
  0
LINE
  8
0
 62
0
 10
-23.354816707167707
 20
31.400038746278998
 30
0.0
 11
-24.154077138768105
 21
31.400038746278998
 31
0.0
  0
LINE
  8
0
 62
0
 10
-24.154077138768105
 20
31.400038746278994
 30
0.0
 11
-24.154077138768105
 21
34.49954042000899
 31
0.0
  0
LINE
  8
0
 62
0
 10
-24.154077138768102
 20
34.49954042000899
 30
0.0
 11
-23.354816707167704
 21
34.49954042000899
 31
0.0
  0
LINE
  8
0
 62
0
 10
-23.354816707167704
 20
34.49954042000899
 30
0.0
 11
-23.354816707167704
 21
35.49964096006309
 31
0.0
  0
LINE
  8
0
 62
0
 10
-23.3548167071677
 20
35.49964096006309
 30
0.0
 11
-9.355259147410651
 21
35.49964096006309
 31
0.0
  0
LINE
  8
0
 62
0
 10
-9.355259147410651
 20
16.49962816006299
 30
0.0
 11
-9.355259147410651
 21
15.49952762000899
 31
0.0
  0
LINE
  8
0
 62
0
 10
-9.355259147410651
 20
15.49952762000899
 30
0.0
 11
-8.554658715086601
 21
15.49952762000899
 31
0.0
  0
LINE
  8
0
 62
0
 10
-8.554658715086601
 20
15.49952762000899
 30
0.0
 11
-8.554658715086601
 21
12.40002594627899
 31
0.0
  0
LINE
  8
0
 62
0
 10
-8.554658715086601
 20
12.40002594627899
 30
0.0
 11
-9.355259147410651
 21
12.40002594627899
 31
0.0
  0
LINE
  8
0
 62
0
 10
-9.355259147410651
 20
12.40002594627899
 30
0.0
 11
-9.355259147410651
 21
6.59992281422498
 31
0.0
  0
LINE
  8
0
 62
0
 10
-9.355259147410651
 20
6.59992281422498
 30
0.0
 11
-8.554658715086601
 21
6.59992281422498
 31
0.0
  0
LINE
  8
0
 62
0
 10
-8.554658715086601
 20
6.599922814224979
 30
0.0
 11
-8.554658715086601
 21
3.499421139955049
 31
0.0
  0
LINE
  8
0
 62
0
 10
-8.554658715086601
 20
3.499421139955049
 30
0.0
 11
-9.355259147410651
 21
3.499421139955049
 31
0.0
  0
LINE
  8
0
 62
0
 10
-9.355259147410651
 20
3.4994211399550488
 30
0.0
 11
-9.355259147410651
 21
2.500320600440999
 31
0.0
  0
LINE
  8
0
 62
0
 10
-9.355259147410653
 20
2.500320600440999
 30
0.0
 11
-23.354816707167704
 21
2.500320600440999
 31
0.0
  0
LINE
  8
0
 62
0
 10
-23.354816707167704
 20
2.5003206004409995
 30
0.0
 11
-23.354816707167704
 21
3.499421139955049
 31
0.0
  0
LINE
  8
0
 62
0
 10
-23.354816707167707
 20
3.499421139955049
 30
0.0
 11
-24.154077138768105
 21
3.499421139955049
 31
0.0
  0
LINE
  8
0
 62
0
 10
-24.154077138768105
 20
3.49942113995505
 30
0.0
 11
-24.154077138768105
 21
6.59992281422498
 31
0.0
  0
LINE
  8
0
 62
0
 10
-24.154077138768102
 20
6.59992281422498
 30
0.0
 11
-23.354816707167704
 21
6.59992281422498
 31
0.0
  0
LINE
  8
0
 62
0
 10
-23.354816707167704
 20
6.599922814224981
 30
0.0
 11
-23.354816707167704
 21
12.40002594627899
 31
0.0
  0
LINE
  8
0
 62
0
 10
-23.354816707167707
 20
12.40002594627899
 30
0.0
 11
-24.154077138768105
 21
12.40002594627899
 31
0.0
  0
LINE
  8
0
 62
0
 10
-24.154077138768105
 20
12.40002594627899
 30
0.0
 11
-24.154077138768105
 21
15.49952762000899
 31
0.0
  0
LINE
  8
0
 62
0
 10
-24.154077138768102
 20
15.49952762000899
 30
0.0
 11
-23.354816707167704
 21
15.49952762000899
 31
0.0
  0
LINE
  8
0
 62
0
 10
-23.354816707167704
 20
15.499527620008992
 30
0.0
 11
-23.354816707167704
 21
16.499628160062993
 31
0.0
  0
LINE
  8
0
 62
0
 10
-23.3548167071677
 20
16.499628160062993
 30
0.0
 11
-9.355259147410651
 21
16.499628160062993
 31
0.0
  0
LINE
  8
0
 62
0
 10
9.644753652589342
 20
73.499666560063
 30
0.0
 11
9.644753652589342
 21
72.499566020009
 31
0.0
  0
LINE
  8
0
 62
0
 10
9.644753652589342
 20
72.499566020009
 30
0.0
 11
10.445354084913403
 21
72.499566020009
 31
0.0
  0
LINE
  8
0
 62
0
 10
10.445354084913403
 20
72.499566020009
 30
0.0
 11
10.445354084913403
 21
69.400064346279
 31
0.0
  0
LINE
  8
0
 62
0
 10
10.445354084913403
 20
69.400064346279
 30
0.0
 11
9.644753652589342
 21
69.400064346279
 31
0.0
  0
LINE
  8
0
 62
0
 10
9.644753652589342
 20
69.400064346279
 30
0.0
 11
9.644753652589342
 21
63.599961214225
 31
0.0
  0
LINE
  8
0
 62
0
 10
9.644753652589342
 20
63.599961214225
 30
0.0
 11
10.445354084913403
 21
63.599961214225
 31
0.0
  0
LINE
  8
0
 62
0
 10
10.445354084913403
 20
63.599961214225
 30
0.0
 11
10.445354084913403
 21
60.499459539955
 31
0.0
  0
LINE
  8
0
 62
0
 10
10.445354084913403
 20
60.499459539955
 30
0.0
 11
9.644753652589342
 21
60.499459539955
 31
0.0
  0
LINE
  8
0
 62
0
 10
9.644753652589342
 20
60.499459539955
 30
0.0
 11
9.644753652589342
 21
59.500359000441
 31
0.0
  0
LINE
  8
0
 62
0
 10
9.644753652589339
 20
59.500359000441
 30
0.0
 11
-4.354803907167691
 21
59.500359000441
 31
0.0
  0
LINE
  8
0
 62
0
 10
-4.354803907167691
 20
59.500359000441
 30
0.0
 11
-4.354803907167691
 21
60.499459539955
 31
0.0
  0
LINE
  8
0
 62
0
 10
-4.354803907167691
 20
60.499459539955
 30
0.0
 11
-5.1540643387680705
 21
60.499459539955
 31
0.0
  0
LINE
  8
0
 62
0
 10
-5.1540643387680705
 20
60.499459539955
 30
0.0
 11
-5.1540643387680705
 21
63.599961214225
 31
0.0
  0
LINE
  8
0
 62
0
 10
-5.1540643387680705
 20
63.599961214225
 30
0.0
 11
-4.354803907167691
 21
63.599961214225
 31
0.0
  0
LINE
  8
0
 62
0
 10
-4.354803907167691
 20
63.599961214225
 30
0.0
 11
-4.354803907167691
 21
69.400064346279
 31
0.0
  0
LINE
  8
0
 62
0
 10
-4.354803907167691
 20
69.400064346279
 30
0.0
 11
-5.1540643387680705
 21
69.400064346279
 31
0.0
  0
LINE
  8
0
 62
0
 10
-5.1540643387680705
 20
69.400064346279
 30
0.0
 11
-5.1540643387680705
 21
72.499566020009
 31
0.0
  0
LINE
  8
0
 62
0
 10
-5.1540643387680705
 20
72.499566020009
 30
0.0
 11
-4.354803907167691
 21
72.499566020009
 31
0.0
  0
LINE
  8
0
 62
0
 10
-4.354803907167691
 20
72.499566020009
 30
0.0
 11
-4.354803907167691
 21
73.499666560063
 31
0.0
  0
LINE
  8
0
 62
0
 10
-4.354803907167687
 20
73.499666560063
 30
0.0
 11
9.644753652589342
 21
73.499666560063
 31
0.0
  0
LINE
  8
0
 62
0
 10
9.644753652589342
 20
54.499653760063
 30
0.0
 11
9.644753652589342
 21
53.499553220009
 31
0.0
  0
LINE
  8
0
 62
0
 10
9.644753652589342
 20
53.499553220009
 30
0.0
 11
10.445354084913403
 21
53.499553220009
 31
0.0
  0
LINE
  8
0
 62
0
 10
10.445354084913403
 20
53.499553220009
 30
0.0
 11
10.445354084913403
 21
50.400051546279
 31
0.0
  0
LINE
  8
0
 62
0
 10
10.445354084913403
 20
50.400051546279
 30
0.0
 11
9.644753652589342
 21
50.400051546279
 31
0.0
  0
LINE
  8
0
 62
0
 10
9.644753652589342
 20
50.400051546278995
 30
0.0
 11
9.644753652589342
 21
44.59994841422499
 31
0.0
  0
LINE
  8
0
 62
0
 10
9.644753652589342
 20
44.59994841422499
 30
0.0
 11
10.445354084913403
 21
44.59994841422499
 31
0.0
  0
LINE
  8
0
 62
0
 10
10.445354084913403
 20
44.59994841422499
 30
0.0
 11
10.445354084913403
 21
41.49944673995509
 31
0.0
  0
LINE
  8
0
 62
0
 10
10.445354084913403
 20
41.49944673995509
 30
0.0
 11
9.644753652589342
 21
41.49944673995509
 31
0.0
  0
LINE
  8
0
 62
0
 10
9.644753652589342
 20
41.49944673995509
 30
0.0
 11
9.644753652589342
 21
40.500346200440994
 31
0.0
  0
LINE
  8
0
 62
0
 10
9.644753652589339
 20
40.500346200440994
 30
0.0
 11
-4.354803907167691
 21
40.500346200440994
 31
0.0
  0
LINE
  8
0
 62
0
 10
-4.354803907167691
 20
40.500346200440994
 30
0.0
 11
-4.354803907167691
 21
41.49944673995509
 31
0.0
  0
LINE
  8
0
 62
0
 10
-4.354803907167691
 20
41.49944673995509
 30
0.0
 11
-5.1540643387680705
 21
41.49944673995509
 31
0.0
  0
LINE
  8
0
 62
0
 10
-5.1540643387680705
 20
41.49944673995509
 30
0.0
 11
-5.1540643387680705
 21
44.59994841422499
 31
0.0
  0
LINE
  8
0
 62
0
 10
-5.1540643387680705
 20
44.59994841422499
 30
0.0
 11
-4.354803907167691
 21
44.59994841422499
 31
0.0
  0
LINE
  8
0
 62
0
 10
-4.354803907167691
 20
44.599948414225
 30
0.0
 11
-4.354803907167691
 21
50.400051546279
 31
0.0
  0
LINE
  8
0
 62
0
 10
-4.354803907167691
 20
50.400051546279
 30
0.0
 11
-5.1540643387680705
 21
50.400051546279
 31
0.0
  0
LINE
  8
0
 62
0
 10
-5.1540643387680705
 20
50.400051546279
 30
0.0
 11
-5.1540643387680705
 21
53.499553220009
 31
0.0
  0
LINE
  8
0
 62
0
 10
-5.1540643387680705
 20
53.499553220009
 30
0.0
 11
-4.354803907167691
 21
53.499553220009
 31
0.0
  0
LINE
  8
0
 62
0
 10
-4.354803907167691
 20
53.499553220009
 30
0.0
 11
-4.354803907167691
 21
54.499653760063
 31
0.0
  0
LINE
  8
0
 62
0
 10
-4.354803907167687
 20
54.499653760063
 30
0.0
 11
9.644753652589342
 21
54.499653760063
 31
0.0
  0
LINE
  8
0
 62
0
 10
9.644753652589342
 20
35.49964096006309
 30
0.0
 11
9.644753652589342
 21
34.49954042000899
 31
0.0
  0
LINE
  8
0
 62
0
 10
9.644753652589342
 20
34.49954042000899
 30
0.0
 11
10.445354084913403
 21
34.49954042000899
 31
0.0
  0
LINE
  8
0
 62
0
 10
10.445354084913403
 20
34.499540420009
 30
0.0
 11
10.445354084913403
 21
31.400038746278998
 31
0.0
  0
LINE
  8
0
 62
0
 10
10.445354084913403
 20
31.400038746278998
 30
0.0
 11
9.644753652589342
 21
31.400038746278998
 31
0.0
  0
LINE
  8
0
 62
0
 10
9.644753652589342
 20
31.400038746278998
 30
0.0
 11
9.644753652589342
 21
25.599935614224997
 31
0.0
  0
LINE
  8
0
 62
0
 10
9.644753652589342
 20
25.599935614224997
 30
0.0
 11
10.445354084913403
 21
25.599935614224997
 31
0.0
  0
LINE
  8
0
 62
0
 10
10.445354084913403
 20
25.599935614224993
 30
0.0
 11
10.445354084913403
 21
22.499433939954994
 31
0.0
  0
LINE
  8
0
 62
0
 10
10.445354084913403
 20
22.499433939954994
 30
0.0
 11
9.644753652589342
 21
22.499433939954994
 31
0.0
  0
LINE
  8
0
 62
0
 10
9.644753652589342
 20
22.499433939954994
 30
0.0
 11
9.644753652589342
 21
21.500333400440994
 31
0.0
  0
LINE
  8
0
 62
0
 10
9.644753652589339
 20
21.500333400440994
 30
0.0
 11
-4.354803907167691
 21
21.500333400440994
 31
0.0
  0
LINE
  8
0
 62
0
 10
-4.354803907167691
 20
21.500333400440994
 30
0.0
 11
-4.354803907167691
 21
22.499433939954994
 31
0.0
  0
LINE
  8
0
 62
0
 10
-4.354803907167691
 20
22.499433939954994
 30
0.0
 11
-5.1540643387680705
 21
22.499433939954994
 31
0.0
  0
LINE
  8
0
 62
0
 10
-5.1540643387680705
 20
22.499433939954997
 30
0.0
 11
-5.1540643387680705
 21
25.599935614224997
 31
0.0
  0
LINE
  8
0
 62
0
 10
-5.1540643387680705
 20
25.599935614224997
 30
0.0
 11
-4.354803907167691
 21
25.599935614224997
 31
0.0
  0
LINE
  8
0
 62
0
 10
-4.354803907167691
 20
25.599935614224997
 30
0.0
 11
-4.354803907167691
 21
31.400038746278998
 31
0.0
  0
LINE
  8
0
 62
0
 10
-4.354803907167691
 20
31.400038746278998
 30
0.0
 11
-5.1540643387680705
 21
31.400038746278998
 31
0.0
  0
LINE
  8
0
 62
0
 10
-5.1540643387680705
 20
31.400038746278994
 30
0.0
 11
-5.1540643387680705
 21
34.49954042000899
 31
0.0
  0
LINE
  8
0
 62
0
 10
-5.1540643387680705
 20
34.49954042000899
 30
0.0
 11
-4.354803907167691
 21
34.49954042000899
 31
0.0
  0
LINE
  8
0
 62
0
 10
-4.354803907167691
 20
34.49954042000899
 30
0.0
 11
-4.354803907167691
 21
35.49964096006309
 31
0.0
  0
LINE
  8
0
 62
0
 10
-4.354803907167687
 20
35.49964096006309
 30
0.0
 11
9.644753652589342
 21
35.49964096006309
 31
0.0
  0
LINE
  8
0
 62
0
 10
9.644753652589342
 20
16.49962816006299
 30
0.0
 11
9.644753652589342
 21
15.49952762000899
 31
0.0
  0
LINE
  8
0
 62
0
 10
9.644753652589342
 20
15.49952762000899
 30
0.0
 11
10.445354084913403
 21
15.49952762000899
 31
0.0
  0
LINE
  8
0
 62
0
 10
10.445354084913403
 20
15.49952762000899
 30
0.0
 11
10.445354084913403
 21
12.40002594627899
 31
0.0
  0
LINE
  8
0
 62
0
 10
10.445354084913403
 20
12.40002594627899
 30
0.0
 11
9.644753652589342
 21
12.40002594627899
 31
0.0
  0
LINE
  8
0
 62
0
 10
9.644753652589342
 20
12.40002594627899
 30
0.0
 11
9.644753652589342
 21
6.59992281422498
 31
0.0
  0
LINE
  8
0
 62
0
 10
9.644753652589342
 20
6.59992281422498
 30
0.0
 11
10.445354084913403
 21
6.59992281422498
 31
0.0
  0
LINE
  8
0
 62
0
 10
10.445354084913403
 20
6.599922814224979
 30
0.0
 11
10.445354084913403
 21
3.499421139955049
 31
0.0
  0
LINE
  8
0
 62
0
 10
10.445354084913403
 20
3.499421139955049
 30
0.0
 11
9.644753652589342
 21
3.499421139955049
 31
0.0
  0
LINE
  8
0
 62
0
 10
9.644753652589342
 20
3.4994211399550488
 30
0.0
 11
9.644753652589342
 21
2.500320600440999
 31
0.0
  0
LINE
  8
0
 62
0
 10
9.644753652589339
 20
2.500320600440999
 30
0.0
 11
-4.354803907167691
 21
2.500320600440999
 31
0.0
  0
LINE
  8
0
 62
0
 10
-4.354803907167691
 20
2.5003206004409995
 30
0.0
 11
-4.354803907167691
 21
3.499421139955049
 31
0.0
  0
LINE
  8
0
 62
0
 10
-4.354803907167691
 20
3.499421139955049
 30
0.0
 11
-5.1540643387680705
 21
3.499421139955049
 31
0.0
  0
LINE
  8
0
 62
0
 10
-5.1540643387680705
 20
3.49942113995505
 30
0.0
 11
-5.1540643387680705
 21
6.59992281422498
 31
0.0
  0
LINE
  8
0
 62
0
 10
-5.1540643387680705
 20
6.59992281422498
 30
0.0
 11
-4.354803907167691
 21
6.59992281422498
 31
0.0
  0
LINE
  8
0
 62
0
 10
-4.354803907167691
 20
6.599922814224981
 30
0.0
 11
-4.354803907167691
 21
12.40002594627899
 31
0.0
  0
LINE
  8
0
 62
0
 10
-4.354803907167691
 20
12.40002594627899
 30
0.0
 11
-5.1540643387680705
 21
12.40002594627899
 31
0.0
  0
LINE
  8
0
 62
0
 10
-5.1540643387680705
 20
12.40002594627899
 30
0.0
 11
-5.1540643387680705
 21
15.49952762000899
 31
0.0
  0
LINE
  8
0
 62
0
 10
-5.1540643387680705
 20
15.49952762000899
 30
0.0
 11
-4.354803907167691
 21
15.49952762000899
 31
0.0
  0
LINE
  8
0
 62
0
 10
-4.354803907167691
 20
15.499527620008992
 30
0.0
 11
-4.354803907167691
 21
16.499628160062993
 31
0.0
  0
LINE
  8
0
 62
0
 10
-4.354803907167687
 20
16.499628160062993
 30
0.0
 11
9.644753652589342
 21
16.499628160062993
 31
0.0
  0
LINE
  8
0
 62
0
 10
28.64476645258931
 20
73.499666560063
 30
0.0
 11
28.64476645258931
 21
72.499566020009
 31
0.0
  0
LINE
  8
0
 62
0
 10
28.64476645258931
 20
72.499566020009
 30
0.0
 11
29.44536688491341
 21
72.499566020009
 31
0.0
  0
LINE
  8
0
 62
0
 10
29.44536688491341
 20
72.499566020009
 30
0.0
 11
29.44536688491341
 21
69.400064346279
 31
0.0
  0
LINE
  8
0
 62
0
 10
29.44536688491341
 20
69.400064346279
 30
0.0
 11
28.64476645258931
 21
69.400064346279
 31
0.0
  0
LINE
  8
0
 62
0
 10
28.64476645258931
 20
69.400064346279
 30
0.0
 11
28.64476645258931
 21
63.599961214225
 31
0.0
  0
LINE
  8
0
 62
0
 10
28.64476645258931
 20
63.599961214225
 30
0.0
 11
29.44536688491341
 21
63.599961214225
 31
0.0
  0
LINE
  8
0
 62
0
 10
29.44536688491341
 20
63.599961214225
 30
0.0
 11
29.44536688491341
 21
60.499459539955
 31
0.0
  0
LINE
  8
0
 62
0
 10
29.44536688491341
 20
60.499459539955
 30
0.0
 11
28.64476645258931
 21
60.499459539955
 31
0.0
  0
LINE
  8
0
 62
0
 10
28.64476645258931
 20
60.499459539955
 30
0.0
 11
28.64476645258931
 21
59.500359000441
 31
0.0
  0
LINE
  8
0
 62
0
 10
28.644766452589305
 20
59.500359000441
 30
0.0
 11
14.645208892832304
 21
59.500359000441
 31
0.0
  0
LINE
  8
0
 62
0
 10
14.645208892832304
 20
59.500359000441
 30
0.0
 11
14.645208892832304
 21
60.499459539955
 31
0.0
  0
LINE
  8
0
 62
0
 10
14.645208892832304
 20
60.499459539955
 30
0.0
 11
13.845948461231904
 21
60.499459539955
 31
0.0
  0
LINE
  8
0
 62
0
 10
13.845948461231904
 20
60.499459539955
 30
0.0
 11
13.845948461231904
 21
63.599961214225
 31
0.0
  0
LINE
  8
0
 62
0
 10
13.845948461231904
 20
63.599961214225
 30
0.0
 11
14.645208892832304
 21
63.599961214225
 31
0.0
  0
LINE
  8
0
 62
0
 10
14.645208892832304
 20
63.599961214225
 30
0.0
 11
14.645208892832304
 21
69.400064346279
 31
0.0
  0
LINE
  8
0
 62
0
 10
14.645208892832304
 20
69.400064346279
 30
0.0
 11
13.845948461231904
 21
69.400064346279
 31
0.0
  0
LINE
  8
0
 62
0
 10
13.845948461231904
 20
69.400064346279
 30
0.0
 11
13.845948461231904
 21
72.499566020009
 31
0.0
  0
LINE
  8
0
 62
0
 10
13.845948461231904
 20
72.499566020009
 30
0.0
 11
14.645208892832304
 21
72.499566020009
 31
0.0
  0
LINE
  8
0
 62
0
 10
14.645208892832304
 20
72.499566020009
 30
0.0
 11
14.645208892832304
 21
73.499666560063
 31
0.0
  0
LINE
  8
0
 62
0
 10
14.645208892832308
 20
73.499666560063
 30
0.0
 11
28.64476645258931
 21
73.499666560063
 31
0.0
  0
LINE
  8
0
 62
0
 10
28.64476645258931
 20
54.499653760063
 30
0.0
 11
28.64476645258931
 21
53.499553220009
 31
0.0
  0
LINE
  8
0
 62
0
 10
28.64476645258931
 20
53.499553220009
 30
0.0
 11
29.44536688491341
 21
53.499553220009
 31
0.0
  0
LINE
  8
0
 62
0
 10
29.44536688491341
 20
53.499553220009
 30
0.0
 11
29.44536688491341
 21
50.400051546279
 31
0.0
  0
LINE
  8
0
 62
0
 10
29.44536688491341
 20
50.400051546279
 30
0.0
 11
28.64476645258931
 21
50.400051546279
 31
0.0
  0
LINE
  8
0
 62
0
 10
28.64476645258931
 20
50.400051546278995
 30
0.0
 11
28.64476645258931
 21
44.59994841422499
 31
0.0
  0
LINE
  8
0
 62
0
 10
28.64476645258931
 20
44.59994841422499
 30
0.0
 11
29.44536688491341
 21
44.59994841422499
 31
0.0
  0
LINE
  8
0
 62
0
 10
29.44536688491341
 20
44.59994841422499
 30
0.0
 11
29.44536688491341
 21
41.49944673995509
 31
0.0
  0
LINE
  8
0
 62
0
 10
29.44536688491341
 20
41.49944673995509
 30
0.0
 11
28.64476645258931
 21
41.49944673995509
 31
0.0
  0
LINE
  8
0
 62
0
 10
28.64476645258931
 20
41.49944673995509
 30
0.0
 11
28.64476645258931
 21
40.500346200440994
 31
0.0
  0
LINE
  8
0
 62
0
 10
28.644766452589305
 20
40.500346200440994
 30
0.0
 11
14.645208892832304
 21
40.500346200440994
 31
0.0
  0
LINE
  8
0
 62
0
 10
14.645208892832304
 20
40.500346200440994
 30
0.0
 11
14.645208892832304
 21
41.49944673995509
 31
0.0
  0
LINE
  8
0
 62
0
 10
14.645208892832304
 20
41.49944673995509
 30
0.0
 11
13.845948461231904
 21
41.49944673995509
 31
0.0
  0
LINE
  8
0
 62
0
 10
13.845948461231904
 20
41.49944673995509
 30
0.0
 11
13.845948461231904
 21
44.59994841422499
 31
0.0
  0
LINE
  8
0
 62
0
 10
13.845948461231904
 20
44.59994841422499
 30
0.0
 11
14.645208892832304
 21
44.59994841422499
 31
0.0
  0
LINE
  8
0
 62
0
 10
14.645208892832304
 20
44.599948414225
 30
0.0
 11
14.645208892832304
 21
50.400051546279
 31
0.0
  0
LINE
  8
0
 62
0
 10
14.645208892832304
 20
50.400051546279
 30
0.0
 11
13.845948461231904
 21
50.400051546279
 31
0.0
  0
LINE
  8
0
 62
0
 10
13.845948461231904
 20
50.400051546279
 30
0.0
 11
13.845948461231904
 21
53.499553220009
 31
0.0
  0
LINE
  8
0
 62
0
 10
13.845948461231904
 20
53.499553220009
 30
0.0
 11
14.645208892832304
 21
53.499553220009
 31
0.0
  0
LINE
  8
0
 62
0
 10
14.645208892832304
 20
53.499553220009
 30
0.0
 11
14.645208892832304
 21
54.499653760063
 31
0.0
  0
LINE
  8
0
 62
0
 10
14.645208892832308
 20
54.499653760063
 30
0.0
 11
28.64476645258931
 21
54.499653760063
 31
0.0
  0
LINE
  8
0
 62
0
 10
28.64476645258931
 20
35.49964096006309
 30
0.0
 11
28.64476645258931
 21
34.49954042000899
 31
0.0
  0
LINE
  8
0
 62
0
 10
28.64476645258931
 20
34.49954042000899
 30
0.0
 11
29.44536688491341
 21
34.49954042000899
 31
0.0
  0
LINE
  8
0
 62
0
 10
29.44536688491341
 20
34.499540420009
 30
0.0
 11
29.44536688491341
 21
31.400038746278998
 31
0.0
  0
LINE
  8
0
 62
0
 10
29.44536688491341
 20
31.400038746278998
 30
0.0
 11
28.64476645258931
 21
31.400038746278998
 31
0.0
  0
LINE
  8
0
 62
0
 10
28.64476645258931
 20
31.400038746278998
 30
0.0
 11
28.64476645258931
 21
25.599935614224997
 31
0.0
  0
LINE
  8
0
 62
0
 10
28.64476645258931
 20
25.599935614224997
 30
0.0
 11
29.44536688491341
 21
25.599935614224997
 31
0.0
  0
LINE
  8
0
 62
0
 10
29.44536688491341
 20
25.599935614224993
 30
0.0
 11
29.44536688491341
 21
22.499433939954994
 31
0.0
  0
LINE
  8
0
 62
0
 10
29.44536688491341
 20
22.499433939954994
 30
0.0
 11
28.64476645258931
 21
22.499433939954994
 31
0.0
  0
LINE
  8
0
 62
0
 10
28.64476645258931
 20
22.499433939954994
 30
0.0
 11
28.64476645258931
 21
21.500333400440994
 31
0.0
  0
LINE
  8
0
 62
0
 10
28.644766452589305
 20
21.500333400440994
 30
0.0
 11
14.645208892832304
 21
21.500333400440994
 31
0.0
  0
LINE
  8
0
 62
0
 10
14.645208892832304
 20
21.500333400440994
 30
0.0
 11
14.645208892832304
 21
22.499433939954994
 31
0.0
  0
LINE
  8
0
 62
0
 10
14.645208892832304
 20
22.499433939954994
 30
0.0
 11
13.845948461231904
 21
22.499433939954994
 31
0.0
  0
LINE
  8
0
 62
0
 10
13.845948461231904
 20
22.499433939954997
 30
0.0
 11
13.845948461231904
 21
25.599935614224997
 31
0.0
  0
LINE
  8
0
 62
0
 10
13.845948461231904
 20
25.599935614224997
 30
0.0
 11
14.645208892832304
 21
25.599935614224997
 31
0.0
  0
LINE
  8
0
 62
0
 10
14.645208892832304
 20
25.599935614224997
 30
0.0
 11
14.645208892832304
 21
31.400038746278998
 31
0.0
  0
LINE
  8
0
 62
0
 10
14.645208892832304
 20
31.400038746278998
 30
0.0
 11
13.845948461231904
 21
31.400038746278998
 31
0.0
  0
LINE
  8
0
 62
0
 10
13.845948461231904
 20
31.400038746278994
 30
0.0
 11
13.845948461231904
 21
34.49954042000899
 31
0.0
  0
LINE
  8
0
 62
0
 10
13.845948461231904
 20
34.49954042000899
 30
0.0
 11
14.645208892832304
 21
34.49954042000899
 31
0.0
  0
LINE
  8
0
 62
0
 10
14.645208892832304
 20
34.49954042000899
 30
0.0
 11
14.645208892832304
 21
35.49964096006309
 31
0.0
  0
LINE
  8
0
 62
0
 10
14.645208892832308
 20
35.49964096006309
 30
0.0
 11
28.64476645258931
 21
35.49964096006309
 31
0.0
  0
LINE
  8
0
 62
0
 10
47.64477925258941
 20
73.499666560063
 30
0.0
 11
47.64477925258941
 21
72.499566020009
 31
0.0
  0
LINE
  8
0
 62
0
 10
47.644779252589416
 20
72.499566020009
 30
0.0
 11
48.44537968491341
 21
72.499566020009
 31
0.0
  0
LINE
  8
0
 62
0
 10
48.44537968491341
 20
72.499566020009
 30
0.0
 11
48.44537968491341
 21
69.400064346279
 31
0.0
  0
LINE
  8
0
 62
0
 10
48.445379684913405
 20
69.400064346279
 30
0.0
 11
47.64477925258941
 21
69.400064346279
 31
0.0
  0
LINE
  8
0
 62
0
 10
47.64477925258941
 20
69.400064346279
 30
0.0
 11
47.64477925258941
 21
63.599961214225
 31
0.0
  0
LINE
  8
0
 62
0
 10
47.644779252589416
 20
63.599961214225
 30
0.0
 11
48.44537968491341
 21
63.599961214225
 31
0.0
  0
LINE
  8
0
 62
0
 10
48.44537968491341
 20
63.599961214225
 30
0.0
 11
48.44537968491341
 21
60.499459539955
 31
0.0
  0
LINE
  8
0
 62
0
 10
48.445379684913405
 20
60.499459539955
 30
0.0
 11
47.64477925258941
 21
60.499459539955
 31
0.0
  0
LINE
  8
0
 62
0
 10
47.64477925258941
 20
60.499459539955
 30
0.0
 11
47.64477925258941
 21
59.500359000441
 31
0.0
  0
LINE
  8
0
 62
0
 10
47.64477925258941
 20
59.500359000441
 30
0.0
 11
33.64522169283231
 21
59.500359000441
 31
0.0
  0
LINE
  8
0
 62
0
 10
33.64522169283231
 20
59.500359000441
 30
0.0
 11
33.64522169283231
 21
60.499459539955
 31
0.0
  0
LINE
  8
0
 62
0
 10
33.64522169283231
 20
60.499459539955
 30
0.0
 11
32.845961261231906
 21
60.499459539955
 31
0.0
  0
LINE
  8
0
 62
0
 10
32.845961261231906
 20
60.499459539955
 30
0.0
 11
32.845961261231906
 21
63.599961214225
 31
0.0
  0
LINE
  8
0
 62
0
 10
32.845961261231906
 20
63.599961214225
 30
0.0
 11
33.64522169283231
 21
63.599961214225
 31
0.0
  0
LINE
  8
0
 62
0
 10
33.64522169283231
 20
63.599961214225
 30
0.0
 11
33.64522169283231
 21
69.400064346279
 31
0.0
  0
LINE
  8
0
 62
0
 10
33.64522169283231
 20
69.400064346279
 30
0.0
 11
32.845961261231906
 21
69.400064346279
 31
0.0
  0
LINE
  8
0
 62
0
 10
32.845961261231906
 20
69.400064346279
 30
0.0
 11
32.845961261231906
 21
72.499566020009
 31
0.0
  0
LINE
  8
0
 62
0
 10
32.845961261231906
 20
72.499566020009
 30
0.0
 11
33.64522169283231
 21
72.499566020009
 31
0.0
  0
LINE
  8
0
 62
0
 10
33.64522169283231
 20
72.499566020009
 30
0.0
 11
33.64522169283231
 21
73.499666560063
 31
0.0
  0
LINE
  8
0
 62
0
 10
33.64522169283231
 20
73.499666560063
 30
0.0
 11
47.64477925258941
 21
73.499666560063
 31
0.0
  0
LINE
  8
0
 62
0
 10
47.64477925258941
 20
54.499653760063
 30
0.0
 11
47.64477925258941
 21
53.499553220009
 31
0.0
  0
LINE
  8
0
 62
0
 10
47.644779252589416
 20
53.499553220009
 30
0.0
 11
48.44537968491341
 21
53.499553220009
 31
0.0
  0
LINE
  8
0
 62
0
 10
48.44537968491341
 20
53.499553220009
 30
0.0
 11
48.44537968491341
 21
50.400051546279
 31
0.0
  0
LINE
  8
0
 62
0
 10
48.445379684913405
 20
50.400051546279
 30
0.0
 11
47.64477925258941
 21
50.400051546279
 31
0.0
  0
LINE
  8
0
 62
0
 10
47.64477925258941
 20
50.400051546278995
 30
0.0
 11
47.64477925258941
 21
44.59994841422499
 31
0.0
  0
LINE
  8
0
 62
0
 10
47.644779252589416
 20
44.59994841422499
 30
0.0
 11
48.44537968491341
 21
44.59994841422499
 31
0.0
  0
LINE
  8
0
 62
0
 10
48.44537968491341
 20
44.59994841422499
 30
0.0
 11
48.44537968491341
 21
41.49944673995509
 31
0.0
  0
LINE
  8
0
 62
0
 10
48.445379684913405
 20
41.49944673995509
 30
0.0
 11
47.64477925258941
 21
41.49944673995509
 31
0.0
  0
LINE
  8
0
 62
0
 10
47.64477925258941
 20
41.49944673995509
 30
0.0
 11
47.64477925258941
 21
40.500346200440994
 31
0.0
  0
LINE
  8
0
 62
0
 10
47.64477925258941
 20
40.500346200440994
 30
0.0
 11
33.64522169283231
 21
40.500346200440994
 31
0.0
  0
LINE
  8
0
 62
0
 10
33.64522169283231
 20
40.500346200440994
 30
0.0
 11
33.64522169283231
 21
41.49944673995509
 31
0.0
  0
LINE
  8
0
 62
0
 10
33.64522169283231
 20
41.49944673995509
 30
0.0
 11
32.845961261231906
 21
41.49944673995509
 31
0.0
  0
LINE
  8
0
 62
0
 10
32.845961261231906
 20
41.49944673995509
 30
0.0
 11
32.845961261231906
 21
44.59994841422499
 31
0.0
  0
LINE
  8
0
 62
0
 10
32.845961261231906
 20
44.59994841422499
 30
0.0
 11
33.64522169283231
 21
44.59994841422499
 31
0.0
  0
LINE
  8
0
 62
0
 10
33.64522169283231
 20
44.599948414225
 30
0.0
 11
33.64522169283231
 21
50.400051546279
 31
0.0
  0
LINE
  8
0
 62
0
 10
33.64522169283231
 20
50.400051546279
 30
0.0
 11
32.845961261231906
 21
50.400051546279
 31
0.0
  0
LINE
  8
0
 62
0
 10
32.845961261231906
 20
50.400051546279
 30
0.0
 11
32.845961261231906
 21
53.499553220009
 31
0.0
  0
LINE
  8
0
 62
0
 10
32.845961261231906
 20
53.499553220009
 30
0.0
 11
33.64522169283231
 21
53.499553220009
 31
0.0
  0
LINE
  8
0
 62
0
 10
33.64522169283231
 20
53.499553220009
 30
0.0
 11
33.64522169283231
 21
54.499653760063
 31
0.0
  0
LINE
  8
0
 62
0
 10
33.64522169283231
 20
54.499653760063
 30
0.0
 11
47.64477925258941
 21
54.499653760063
 31
0.0
  0
LINE
  8
0
 62
0
 10
47.64477925258941
 20
35.49964096006309
 30
0.0
 11
47.64477925258941
 21
34.49954042000899
 31
0.0
  0
LINE
  8
0
 62
0
 10
47.644779252589416
 20
34.49954042000899
 30
0.0
 11
48.44537968491341
 21
34.49954042000899
 31
0.0
  0
LINE
  8
0
 62
0
 10
48.44537968491341
 20
34.499540420009
 30
0.0
 11
48.44537968491341
 21
31.400038746278998
 31
0.0
  0
LINE
  8
0
 62
0
 10
48.445379684913405
 20
31.400038746278998
 30
0.0
 11
47.64477925258941
 21
31.400038746278998
 31
0.0
  0
LINE
  8
0
 62
0
 10
47.64477925258941
 20
31.400038746278998
 30
0.0
 11
47.64477925258941
 21
25.599935614224997
 31
0.0
  0
LINE
  8
0
 62
0
 10
47.644779252589416
 20
25.599935614224997
 30
0.0
 11
48.44537968491341
 21
25.599935614224997
 31
0.0
  0
LINE
  8
0
 62
0
 10
48.44537968491341
 20
25.599935614224993
 30
0.0
 11
48.44537968491341
 21
22.499433939954994
 31
0.0
  0
LINE
  8
0
 62
0
 10
48.445379684913405
 20
22.499433939954994
 30
0.0
 11
47.64477925258941
 21
22.499433939954994
 31
0.0
  0
LINE
  8
0
 62
0
 10
47.64477925258941
 20
22.499433939954994
 30
0.0
 11
47.64477925258941
 21
21.500333400440994
 31
0.0
  0
LINE
  8
0
 62
0
 10
47.64477925258941
 20
21.500333400440994
 30
0.0
 11
33.64522169283231
 21
21.500333400440994
 31
0.0
  0
LINE
  8
0
 62
0
 10
33.64522169283231
 20
21.500333400440994
 30
0.0
 11
33.64522169283231
 21
22.499433939954994
 31
0.0
  0
LINE
  8
0
 62
0
 10
33.64522169283231
 20
22.499433939954994
 30
0.0
 11
32.845961261231906
 21
22.499433939954994
 31
0.0
  0
LINE
  8
0
 62
0
 10
32.845961261231906
 20
22.499433939954997
 30
0.0
 11
32.845961261231906
 21
25.599935614224997
 31
0.0
  0
LINE
  8
0
 62
0
 10
32.845961261231906
 20
25.599935614224997
 30
0.0
 11
33.64522169283231
 21
25.599935614224997
 31
0.0
  0
LINE
  8
0
 62
0
 10
33.64522169283231
 20
25.599935614224997
 30
0.0
 11
33.64522169283231
 21
31.400038746278998
 31
0.0
  0
LINE
  8
0
 62
0
 10
33.64522169283231
 20
31.400038746278998
 30
0.0
 11
32.845961261231906
 21
31.400038746278998
 31
0.0
  0
LINE
  8
0
 62
0
 10
32.845961261231906
 20
31.400038746278994
 30
0.0
 11
32.845961261231906
 21
34.49954042000899
 31
0.0
  0
LINE
  8
0
 62
0
 10
32.845961261231906
 20
34.49954042000899
 30
0.0
 11
33.64522169283231
 21
34.49954042000899
 31
0.0
  0
LINE
  8
0
 62
0
 10
33.64522169283231
 20
34.49954042000899
 30
0.0
 11
33.64522169283231
 21
35.49964096006309
 31
0.0
  0
LINE
  8
0
 62
0
 10
33.64522169283231
 20
35.49964096006309
 30
0.0
 11
47.64477925258941
 21
35.49964096006309
 31
0.0
  0
LINE
  8
0
 62
0
 10
66.64479205258931
 20
73.499666560063
 30
0.0
 11
66.64479205258931
 21
72.499566020009
 31
0.0
  0
LINE
  8
0
 62
0
 10
66.64479205258931
 20
72.499566020009
 30
0.0
 11
67.44539248491341
 21
72.499566020009
 31
0.0
  0
LINE
  8
0
 62
0
 10
67.44539248491341
 20
72.499566020009
 30
0.0
 11
67.44539248491341
 21
69.400064346279
 31
0.0
  0
LINE
  8
0
 62
0
 10
67.44539248491341
 20
69.400064346279
 30
0.0
 11
66.64479205258931
 21
69.400064346279
 31
0.0
  0
LINE
  8
0
 62
0
 10
66.64479205258931
 20
69.400064346279
 30
0.0
 11
66.64479205258931
 21
63.599961214225
 31
0.0
  0
LINE
  8
0
 62
0
 10
66.64479205258931
 20
63.599961214225
 30
0.0
 11
67.44539248491341
 21
63.599961214225
 31
0.0
  0
LINE
  8
0
 62
0
 10
67.44539248491341
 20
63.599961214225
 30
0.0
 11
67.44539248491341
 21
60.499459539955
 31
0.0
  0
LINE
  8
0
 62
0
 10
67.44539248491341
 20
60.499459539955
 30
0.0
 11
66.64479205258931
 21
60.499459539955
 31
0.0
  0
LINE
  8
0
 62
0
 10
66.64479205258931
 20
60.499459539955
 30
0.0
 11
66.64479205258931
 21
59.500359000441
 31
0.0
  0
LINE
  8
0
 62
0
 10
66.64479205258931
 20
59.500359000441
 30
0.0
 11
52.645234492832316
 21
59.500359000441
 31
0.0
  0
LINE
  8
0
 62
0
 10
52.645234492832316
 20
59.500359000441
 30
0.0
 11
52.645234492832316
 21
60.499459539955
 31
0.0
  0
LINE
  8
0
 62
0
 10
52.645234492832316
 20
60.499459539955
 30
0.0
 11
51.845974061231914
 21
60.499459539955
 31
0.0
  0
LINE
  8
0
 62
0
 10
51.845974061231914
 20
60.499459539955
 30
0.0
 11
51.845974061231914
 21
63.599961214225
 31
0.0
  0
LINE
  8
0
 62
0
 10
51.845974061231914
 20
63.599961214225
 30
0.0
 11
52.645234492832316
 21
63.599961214225
 31
0.0
  0
LINE
  8
0
 62
0
 10
52.645234492832316
 20
63.599961214225
 30
0.0
 11
52.645234492832316
 21
69.400064346279
 31
0.0
  0
LINE
  8
0
 62
0
 10
52.645234492832316
 20
69.400064346279
 30
0.0
 11
51.845974061231914
 21
69.400064346279
 31
0.0
  0
LINE
  8
0
 62
0
 10
51.845974061231914
 20
69.400064346279
 30
0.0
 11
51.845974061231914
 21
72.499566020009
 31
0.0
  0
LINE
  8
0
 62
0
 10
51.845974061231914
 20
72.499566020009
 30
0.0
 11
52.645234492832316
 21
72.499566020009
 31
0.0
  0
LINE
  8
0
 62
0
 10
52.645234492832316
 20
72.499566020009
 30
0.0
 11
52.645234492832316
 21
73.499666560063
 31
0.0
  0
LINE
  8
0
 62
0
 10
52.645234492832316
 20
73.499666560063
 30
0.0
 11
66.64479205258931
 21
73.499666560063
 31
0.0
  0
LINE
  8
0
 62
0
 10
66.64479205258931
 20
54.499653760063
 30
0.0
 11
66.64479205258931
 21
53.499553220009
 31
0.0
  0
LINE
  8
0
 62
0
 10
66.64479205258931
 20
53.499553220009
 30
0.0
 11
67.44539248491341
 21
53.499553220009
 31
0.0
  0
LINE
  8
0
 62
0
 10
67.44539248491341
 20
53.499553220009
 30
0.0
 11
67.44539248491341
 21
50.400051546279
 31
0.0
  0
LINE
  8
0
 62
0
 10
67.44539248491341
 20
50.400051546279
 30
0.0
 11
66.64479205258931
 21
50.400051546279
 31
0.0
  0
LINE
  8
0
 62
0
 10
66.64479205258931
 20
50.400051546278995
 30
0.0
 11
66.64479205258931
 21
44.59994841422499
 31
0.0
  0
LINE
  8
0
 62
0
 10
66.64479205258931
 20
44.59994841422499
 30
0.0
 11
67.44539248491341
 21
44.59994841422499
 31
0.0
  0
LINE
  8
0
 62
0
 10
67.44539248491341
 20
44.59994841422499
 30
0.0
 11
67.44539248491341
 21
41.49944673995509
 31
0.0
  0
LINE
  8
0
 62
0
 10
67.44539248491341
 20
41.49944673995509
 30
0.0
 11
66.64479205258931
 21
41.49944673995509
 31
0.0
  0
LINE
  8
0
 62
0
 10
66.64479205258931
 20
41.49944673995509
 30
0.0
 11
66.64479205258931
 21
40.500346200440994
 31
0.0
  0
LINE
  8
0
 62
0
 10
66.64479205258931
 20
40.500346200440994
 30
0.0
 11
52.645234492832316
 21
40.500346200440994
 31
0.0
  0
LINE
  8
0
 62
0
 10
52.645234492832316
 20
40.500346200440994
 30
0.0
 11
52.645234492832316
 21
41.49944673995509
 31
0.0
  0
LINE
  8
0
 62
0
 10
52.645234492832316
 20
41.49944673995509
 30
0.0
 11
51.845974061231914
 21
41.49944673995509
 31
0.0
  0
LINE
  8
0
 62
0
 10
51.845974061231914
 20
41.49944673995509
 30
0.0
 11
51.845974061231914
 21
44.59994841422499
 31
0.0
  0
LINE
  8
0
 62
0
 10
51.845974061231914
 20
44.59994841422499
 30
0.0
 11
52.645234492832316
 21
44.59994841422499
 31
0.0
  0
LINE
  8
0
 62
0
 10
52.645234492832316
 20
44.599948414225
 30
0.0
 11
52.645234492832316
 21
50.400051546279
 31
0.0
  0
LINE
  8
0
 62
0
 10
52.645234492832316
 20
50.400051546279
 30
0.0
 11
51.845974061231914
 21
50.400051546279
 31
0.0
  0
LINE
  8
0
 62
0
 10
51.845974061231914
 20
50.400051546279
 30
0.0
 11
51.845974061231914
 21
53.499553220009
 31
0.0
  0
LINE
  8
0
 62
0
 10
51.845974061231914
 20
53.499553220009
 30
0.0
 11
52.645234492832316
 21
53.499553220009
 31
0.0
  0
LINE
  8
0
 62
0
 10
52.645234492832316
 20
53.499553220009
 30
0.0
 11
52.645234492832316
 21
54.499653760063
 31
0.0
  0
LINE
  8
0
 62
0
 10
52.645234492832316
 20
54.499653760063
 30
0.0
 11
66.64479205258931
 21
54.499653760063
 31
0.0
  0
LINE
  8
0
 62
0
 10
66.64479205258931
 20
35.49964096006309
 30
0.0
 11
66.64479205258931
 21
34.49954042000899
 31
0.0
  0
LINE
  8
0
 62
0
 10
66.64479205258931
 20
34.49954042000899
 30
0.0
 11
67.44539248491341
 21
34.49954042000899
 31
0.0
  0
LINE
  8
0
 62
0
 10
67.44539248491341
 20
34.499540420009
 30
0.0
 11
67.44539248491341
 21
31.400038746278998
 31
0.0
  0
LINE
  8
0
 62
0
 10
67.44539248491341
 20
31.400038746278998
 30
0.0
 11
66.64479205258931
 21
31.400038746278998
 31
0.0
  0
LINE
  8
0
 62
0
 10
66.64479205258931
 20
31.400038746278998
 30
0.0
 11
66.64479205258931
 21
25.599935614224997
 31
0.0
  0
LINE
  8
0
 62
0
 10
66.64479205258931
 20
25.599935614224997
 30
0.0
 11
67.44539248491341
 21
25.599935614224997
 31
0.0
  0
LINE
  8
0
 62
0
 10
67.44539248491341
 20
25.599935614224993
 30
0.0
 11
67.44539248491341
 21
22.499433939954994
 31
0.0
  0
LINE
  8
0
 62
0
 10
67.44539248491341
 20
22.499433939954994
 30
0.0
 11
66.64479205258931
 21
22.499433939954994
 31
0.0
  0
LINE
  8
0
 62
0
 10
66.64479205258931
 20
22.499433939954994
 30
0.0
 11
66.64479205258931
 21
21.500333400440994
 31
0.0
  0
LINE
  8
0
 62
0
 10
66.64479205258931
 20
21.500333400440994
 30
0.0
 11
52.645234492832316
 21
21.500333400440994
 31
0.0
  0
LINE
  8
0
 62
0
 10
52.645234492832316
 20
21.500333400440994
 30
0.0
 11
52.645234492832316
 21
22.499433939954994
 31
0.0
  0
LINE
  8
0
 62
0
 10
52.645234492832316
 20
22.499433939954994
 30
0.0
 11
51.845974061231914
 21
22.499433939954994
 31
0.0
  0
LINE
  8
0
 62
0
 10
51.845974061231914
 20
22.499433939954997
 30
0.0
 11
51.845974061231914
 21
25.599935614224997
 31
0.0
  0
LINE
  8
0
 62
0
 10
51.845974061231914
 20
25.599935614224997
 30
0.0
 11
52.645234492832316
 21
25.599935614224997
 31
0.0
  0
LINE
  8
0
 62
0
 10
52.645234492832316
 20
25.599935614224997
 30
0.0
 11
52.645234492832316
 21
31.400038746278998
 31
0.0
  0
LINE
  8
0
 62
0
 10
52.645234492832316
 20
31.400038746278998
 30
0.0
 11
51.845974061231914
 21
31.400038746278998
 31
0.0
  0
LINE
  8
0
 62
0
 10
51.845974061231914
 20
31.400038746278994
 30
0.0
 11
51.845974061231914
 21
34.49954042000899
 31
0.0
  0
LINE
  8
0
 62
0
 10
51.845974061231914
 20
34.49954042000899
 30
0.0
 11
52.645234492832316
 21
34.49954042000899
 31
0.0
  0
LINE
  8
0
 62
0
 10
52.645234492832316
 20
34.49954042000899
 30
0.0
 11
52.645234492832316
 21
35.49964096006309
 31
0.0
  0
LINE
  8
0
 62
0
 10
52.645234492832316
 20
35.49964096006309
 30
0.0
 11
66.64479205258931
 21
35.49964096006309
 31
0.0
  0
LINE
  8
0
 62
0
 10
85.64480485258932
 20
73.499666560063
 30
0.0
 11
85.64480485258932
 21
72.499566020009
 31
0.0
  0
LINE
  8
0
 62
0
 10
85.64480485258932
 20
72.499566020009
 30
0.0
 11
86.44540528491342
 21
72.499566020009
 31
0.0
  0
LINE
  8
0
 62
0
 10
86.44540528491342
 20
72.499566020009
 30
0.0
 11
86.44540528491342
 21
69.400064346279
 31
0.0
  0
LINE
  8
0
 62
0
 10
86.44540528491342
 20
69.400064346279
 30
0.0
 11
85.64480485258932
 21
69.400064346279
 31
0.0
  0
LINE
  8
0
 62
0
 10
85.64480485258932
 20
69.400064346279
 30
0.0
 11
85.64480485258932
 21
63.599961214225
 31
0.0
  0
LINE
  8
0
 62
0
 10
85.64480485258932
 20
63.599961214225
 30
0.0
 11
86.44540528491342
 21
63.599961214225
 31
0.0
  0
LINE
  8
0
 62
0
 10
86.44540528491342
 20
63.599961214225
 30
0.0
 11
86.44540528491342
 21
60.499459539955
 31
0.0
  0
LINE
  8
0
 62
0
 10
86.44540528491342
 20
60.499459539955
 30
0.0
 11
85.64480485258932
 21
60.499459539955
 31
0.0
  0
LINE
  8
0
 62
0
 10
85.64480485258932
 20
60.499459539955
 30
0.0
 11
85.64480485258932
 21
59.500359000441
 31
0.0
  0
LINE
  8
0
 62
0
 10
85.64480485258932
 20
59.500359000441
 30
0.0
 11
71.64524729283231
 21
59.500359000441
 31
0.0
  0
LINE
  8
0
 62
0
 10
71.64524729283231
 20
59.500359000441
 30
0.0
 11
71.64524729283231
 21
60.499459539955
 31
0.0
  0
LINE
  8
0
 62
0
 10
71.64524729283231
 20
60.499459539955
 30
0.0
 11
70.84598686123192
 21
60.499459539955
 31
0.0
  0
LINE
  8
0
 62
0
 10
70.84598686123192
 20
60.499459539955
 30
0.0
 11
70.84598686123192
 21
63.599961214225
 31
0.0
  0
LINE
  8
0
 62
0
 10
70.84598686123192
 20
63.599961214225
 30
0.0
 11
71.64524729283231
 21
63.599961214225
 31
0.0
  0
LINE
  8
0
 62
0
 10
71.64524729283231
 20
63.599961214225
 30
0.0
 11
71.64524729283231
 21
69.400064346279
 31
0.0
  0
LINE
  8
0
 62
0
 10
71.64524729283231
 20
69.400064346279
 30
0.0
 11
70.84598686123192
 21
69.400064346279
 31
0.0
  0
LINE
  8
0
 62
0
 10
70.84598686123192
 20
69.400064346279
 30
0.0
 11
70.84598686123192
 21
72.499566020009
 31
0.0
  0
LINE
  8
0
 62
0
 10
70.84598686123192
 20
72.499566020009
 30
0.0
 11
71.64524729283231
 21
72.499566020009
 31
0.0
  0
LINE
  8
0
 62
0
 10
71.64524729283231
 20
72.499566020009
 30
0.0
 11
71.64524729283231
 21
73.499666560063
 31
0.0
  0
LINE
  8
0
 62
0
 10
71.64524729283231
 20
73.499666560063
 30
0.0
 11
85.64480485258932
 21
73.499666560063
 31
0.0
  0
LINE
  8
0
 62
0
 10
85.64480485258932
 20
54.499653760063
 30
0.0
 11
85.64480485258932
 21
53.499553220009
 31
0.0
  0
LINE
  8
0
 62
0
 10
85.64480485258932
 20
53.499553220009
 30
0.0
 11
86.44540528491342
 21
53.499553220009
 31
0.0
  0
LINE
  8
0
 62
0
 10
86.44540528491342
 20
53.499553220009
 30
0.0
 11
86.44540528491342
 21
50.400051546279
 31
0.0
  0
LINE
  8
0
 62
0
 10
86.44540528491342
 20
50.400051546279
 30
0.0
 11
85.64480485258932
 21
50.400051546279
 31
0.0
  0
LINE
  8
0
 62
0
 10
85.64480485258932
 20
50.400051546278995
 30
0.0
 11
85.64480485258932
 21
44.59994841422499
 31
0.0
  0
LINE
  8
0
 62
0
 10
85.64480485258932
 20
44.59994841422499
 30
0.0
 11
86.44540528491342
 21
44.59994841422499
 31
0.0
  0
LINE
  8
0
 62
0
 10
86.44540528491342
 20
44.59994841422499
 30
0.0
 11
86.44540528491342
 21
41.49944673995509
 31
0.0
  0
LINE
  8
0
 62
0
 10
86.44540528491342
 20
41.49944673995509
 30
0.0
 11
85.64480485258932
 21
41.49944673995509
 31
0.0
  0
LINE
  8
0
 62
0
 10
85.64480485258932
 20
41.49944673995509
 30
0.0
 11
85.64480485258932
 21
40.500346200440994
 31
0.0
  0
LINE
  8
0
 62
0
 10
85.64480485258932
 20
40.500346200440994
 30
0.0
 11
71.64524729283231
 21
40.500346200440994
 31
0.0
  0
LINE
  8
0
 62
0
 10
71.64524729283231
 20
40.500346200440994
 30
0.0
 11
71.64524729283231
 21
41.49944673995509
 31
0.0
  0
LINE
  8
0
 62
0
 10
71.64524729283231
 20
41.49944673995509
 30
0.0
 11
70.84598686123192
 21
41.49944673995509
 31
0.0
  0
LINE
  8
0
 62
0
 10
70.84598686123192
 20
41.49944673995509
 30
0.0
 11
70.84598686123192
 21
44.59994841422499
 31
0.0
  0
LINE
  8
0
 62
0
 10
70.84598686123192
 20
44.59994841422499
 30
0.0
 11
71.64524729283231
 21
44.59994841422499
 31
0.0
  0
LINE
  8
0
 62
0
 10
71.64524729283231
 20
44.599948414225
 30
0.0
 11
71.64524729283231
 21
50.400051546279
 31
0.0
  0
LINE
  8
0
 62
0
 10
71.64524729283231
 20
50.400051546279
 30
0.0
 11
70.84598686123192
 21
50.400051546279
 31
0.0
  0
LINE
  8
0
 62
0
 10
70.84598686123192
 20
50.400051546279
 30
0.0
 11
70.84598686123192
 21
53.499553220009
 31
0.0
  0
LINE
  8
0
 62
0
 10
70.84598686123192
 20
53.499553220009
 30
0.0
 11
71.64524729283231
 21
53.499553220009
 31
0.0
  0
LINE
  8
0
 62
0
 10
71.64524729283231
 20
53.499553220009
 30
0.0
 11
71.64524729283231
 21
54.499653760063
 31
0.0
  0
LINE
  8
0
 62
0
 10
71.64524729283231
 20
54.499653760063
 30
0.0
 11
85.64480485258932
 21
54.499653760063
 31
0.0
  0
LINE
  8
0
 62
0
 10
85.64480485258932
 20
35.49964096006309
 30
0.0
 11
85.64480485258932
 21
34.49954042000899
 31
0.0
  0
LINE
  8
0
 62
0
 10
85.64480485258932
 20
34.49954042000899
 30
0.0
 11
86.44540528491342
 21
34.49954042000899
 31
0.0
  0
LINE
  8
0
 62
0
 10
86.44540528491342
 20
34.499540420009
 30
0.0
 11
86.44540528491342
 21
31.400038746278998
 31
0.0
  0
LINE
  8
0
 62
0
 10
86.44540528491342
 20
31.400038746278998
 30
0.0
 11
85.64480485258932
 21
31.400038746278998
 31
0.0
  0
LINE
  8
0
 62
0
 10
85.64480485258932
 20
31.400038746278998
 30
0.0
 11
85.64480485258932
 21
25.599935614224997
 31
0.0
  0
LINE
  8
0
 62
0
 10
85.64480485258932
 20
25.599935614224997
 30
0.0
 11
86.44540528491342
 21
25.599935614224997
 31
0.0
  0
LINE
  8
0
 62
0
 10
86.44540528491342
 20
25.599935614224993
 30
0.0
 11
86.44540528491342
 21
22.499433939954994
 31
0.0
  0
LINE
  8
0
 62
0
 10
86.44540528491342
 20
22.499433939954994
 30
0.0
 11
85.64480485258932
 21
22.499433939954994
 31
0.0
  0
LINE
  8
0
 62
0
 10
85.64480485258932
 20
22.499433939954994
 30
0.0
 11
85.64480485258932
 21
21.500333400440994
 31
0.0
  0
LINE
  8
0
 62
0
 10
85.64480485258932
 20
21.500333400440994
 30
0.0
 11
71.64524729283231
 21
21.500333400440994
 31
0.0
  0
LINE
  8
0
 62
0
 10
71.64524729283231
 20
21.500333400440994
 30
0.0
 11
71.64524729283231
 21
22.499433939954994
 31
0.0
  0
LINE
  8
0
 62
0
 10
71.64524729283231
 20
22.499433939954994
 30
0.0
 11
70.84598686123192
 21
22.499433939954994
 31
0.0
  0
LINE
  8
0
 62
0
 10
70.84598686123192
 20
22.499433939954997
 30
0.0
 11
70.84598686123192
 21
25.599935614224997
 31
0.0
  0
LINE
  8
0
 62
0
 10
70.84598686123192
 20
25.599935614224997
 30
0.0
 11
71.64524729283231
 21
25.599935614224997
 31
0.0
  0
LINE
  8
0
 62
0
 10
71.64524729283231
 20
25.599935614224997
 30
0.0
 11
71.64524729283231
 21
31.400038746278998
 31
0.0
  0
LINE
  8
0
 62
0
 10
71.64524729283231
 20
31.400038746278998
 30
0.0
 11
70.84598686123192
 21
31.400038746278998
 31
0.0
  0
LINE
  8
0
 62
0
 10
70.84598686123192
 20
31.400038746278994
 30
0.0
 11
70.84598686123192
 21
34.49954042000899
 31
0.0
  0
LINE
  8
0
 62
0
 10
70.84598686123192
 20
34.49954042000899
 30
0.0
 11
71.64524729283231
 21
34.49954042000899
 31
0.0
  0
LINE
  8
0
 62
0
 10
71.64524729283231
 20
34.49954042000899
 30
0.0
 11
71.64524729283231
 21
35.49964096006309
 31
0.0
  0
LINE
  8
0
 62
0
 10
71.64524729283231
 20
35.49964096006309
 30
0.0
 11
85.64480485258932
 21
35.49964096006309
 31
0.0
  0
LINE
  8
0
 62
0
 10
104.64481765258903
 20
73.499666560063
 30
0.0
 11
104.64481765258903
 21
72.499566020009
 31
0.0
  0
LINE
  8
0
 62
0
 10
104.64481765258903
 20
72.499566020009
 30
0.0
 11
105.44541808491303
 21
72.499566020009
 31
0.0
  0
LINE
  8
0
 62
0
 10
105.44541808491303
 20
72.499566020009
 30
0.0
 11
105.44541808491303
 21
69.400064346279
 31
0.0
  0
LINE
  8
0
 62
0
 10
105.44541808491303
 20
69.400064346279
 30
0.0
 11
104.64481765258903
 21
69.400064346279
 31
0.0
  0
LINE
  8
0
 62
0
 10
104.64481765258903
 20
69.400064346279
 30
0.0
 11
104.64481765258903
 21
63.599961214225
 31
0.0
  0
LINE
  8
0
 62
0
 10
104.64481765258903
 20
63.599961214225
 30
0.0
 11
105.44541808491303
 21
63.599961214225
 31
0.0
  0
LINE
  8
0
 62
0
 10
105.44541808491303
 20
63.599961214225
 30
0.0
 11
105.44541808491303
 21
60.499459539955
 31
0.0
  0
LINE
  8
0
 62
0
 10
105.44541808491303
 20
60.499459539955
 30
0.0
 11
104.64481765258903
 21
60.499459539955
 31
0.0
  0
LINE
  8
0
 62
0
 10
104.64481765258903
 20
60.499459539955
 30
0.0
 11
104.64481765258903
 21
59.500359000441
 31
0.0
  0
LINE
  8
0
 62
0
 10
104.64481765258901
 20
59.500359000441
 30
0.0
 11
90.64526009283232
 21
59.500359000441
 31
0.0
  0
LINE
  8
0
 62
0
 10
90.64526009283232
 20
59.500359000441
 30
0.0
 11
90.64526009283232
 21
60.499459539955
 31
0.0
  0
LINE
  8
0
 62
0
 10
90.64526009283232
 20
60.499459539955
 30
0.0
 11
89.84599966123191
 21
60.499459539955
 31
0.0
  0
LINE
  8
0
 62
0
 10
89.84599966123191
 20
60.499459539955
 30
0.0
 11
89.84599966123191
 21
63.599961214225
 31
0.0
  0
LINE
  8
0
 62
0
 10
89.84599966123191
 20
63.599961214225
 30
0.0
 11
90.64526009283232
 21
63.599961214225
 31
0.0
  0
LINE
  8
0
 62
0
 10
90.64526009283232
 20
63.599961214225
 30
0.0
 11
90.64526009283232
 21
69.400064346279
 31
0.0
  0
LINE
  8
0
 62
0
 10
90.64526009283232
 20
69.400064346279
 30
0.0
 11
89.84599966123191
 21
69.400064346279
 31
0.0
  0
LINE
  8
0
 62
0
 10
89.84599966123191
 20
69.400064346279
 30
0.0
 11
89.84599966123191
 21
72.499566020009
 31
0.0
  0
LINE
  8
0
 62
0
 10
89.84599966123191
 20
72.499566020009
 30
0.0
 11
90.64526009283232
 21
72.499566020009
 31
0.0
  0
LINE
  8
0
 62
0
 10
90.64526009283232
 20
72.499566020009
 30
0.0
 11
90.64526009283232
 21
73.499666560063
 31
0.0
  0
LINE
  8
0
 62
0
 10
90.64526009283233
 20
73.499666560063
 30
0.0
 11
104.64481765258903
 21
73.499666560063
 31
0.0
  0
LINE
  8
0
 62
0
 10
104.64481765258903
 20
54.499653760063
 30
0.0
 11
104.64481765258903
 21
53.499553220009
 31
0.0
  0
LINE
  8
0
 62
0
 10
104.64481765258903
 20
53.499553220009
 30
0.0
 11
105.44541808491303
 21
53.499553220009
 31
0.0
  0
LINE
  8
0
 62
0
 10
105.44541808491303
 20
53.499553220009
 30
0.0
 11
105.44541808491303
 21
50.400051546279
 31
0.0
  0
LINE
  8
0
 62
0
 10
105.44541808491303
 20
50.400051546279
 30
0.0
 11
104.64481765258903
 21
50.400051546279
 31
0.0
  0
LINE
  8
0
 62
0
 10
104.64481765258903
 20
50.400051546278995
 30
0.0
 11
104.64481765258903
 21
44.59994841422499
 31
0.0
  0
LINE
  8
0
 62
0
 10
104.64481765258903
 20
44.59994841422499
 30
0.0
 11
105.44541808491303
 21
44.59994841422499
 31
0.0
  0
LINE
  8
0
 62
0
 10
105.44541808491303
 20
44.59994841422499
 30
0.0
 11
105.44541808491303
 21
41.49944673995509
 31
0.0
  0
LINE
  8
0
 62
0
 10
105.44541808491303
 20
41.49944673995509
 30
0.0
 11
104.64481765258903
 21
41.49944673995509
 31
0.0
  0
LINE
  8
0
 62
0
 10
104.64481765258903
 20
41.49944673995509
 30
0.0
 11
104.64481765258903
 21
40.500346200440994
 31
0.0
  0
LINE
  8
0
 62
0
 10
104.64481765258901
 20
40.500346200440994
 30
0.0
 11
90.64526009283232
 21
40.500346200440994
 31
0.0
  0
LINE
  8
0
 62
0
 10
90.64526009283232
 20
40.500346200440994
 30
0.0
 11
90.64526009283232
 21
41.49944673995509
 31
0.0
  0
LINE
  8
0
 62
0
 10
90.64526009283232
 20
41.49944673995509
 30
0.0
 11
89.84599966123191
 21
41.49944673995509
 31
0.0
  0
LINE
  8
0
 62
0
 10
89.84599966123191
 20
41.49944673995509
 30
0.0
 11
89.84599966123191
 21
44.59994841422499
 31
0.0
  0
LINE
  8
0
 62
0
 10
89.84599966123191
 20
44.59994841422499
 30
0.0
 11
90.64526009283232
 21
44.59994841422499
 31
0.0
  0
LINE
  8
0
 62
0
 10
90.64526009283232
 20
44.599948414225
 30
0.0
 11
90.64526009283232
 21
50.400051546279
 31
0.0
  0
LINE
  8
0
 62
0
 10
90.64526009283232
 20
50.400051546279
 30
0.0
 11
89.84599966123191
 21
50.400051546279
 31
0.0
  0
LINE
  8
0
 62
0
 10
89.84599966123191
 20
50.400051546279
 30
0.0
 11
89.84599966123191
 21
53.499553220009
 31
0.0
  0
LINE
  8
0
 62
0
 10
89.84599966123191
 20
53.499553220009
 30
0.0
 11
90.64526009283232
 21
53.499553220009
 31
0.0
  0
LINE
  8
0
 62
0
 10
90.64526009283232
 20
53.499553220009
 30
0.0
 11
90.64526009283232
 21
54.499653760063
 31
0.0
  0
LINE
  8
0
 62
0
 10
90.64526009283233
 20
54.499653760063
 30
0.0
 11
104.64481765258903
 21
54.499653760063
 31
0.0
  0
LINE
  8
0
 62
0
 10
104.64481765258903
 20
35.49964096006309
 30
0.0
 11
104.64481765258903
 21
34.49954042000899
 31
0.0
  0
LINE
  8
0
 62
0
 10
104.64481765258903
 20
34.49954042000899
 30
0.0
 11
105.44541808491303
 21
34.49954042000899
 31
0.0
  0
LINE
  8
0
 62
0
 10
105.44541808491303
 20
34.499540420009
 30
0.0
 11
105.44541808491303
 21
31.400038746278998
 31
0.0
  0
LINE
  8
0
 62
0
 10
105.44541808491303
 20
31.400038746278998
 30
0.0
 11
104.64481765258903
 21
31.400038746278998
 31
0.0
  0
LINE
  8
0
 62
0
 10
104.64481765258903
 20
31.400038746278998
 30
0.0
 11
104.64481765258903
 21
25.599935614224997
 31
0.0
  0
LINE
  8
0
 62
0
 10
104.64481765258903
 20
25.599935614224997
 30
0.0
 11
105.44541808491303
 21
25.599935614224997
 31
0.0
  0
LINE
  8
0
 62
0
 10
105.44541808491303
 20
25.599935614224993
 30
0.0
 11
105.44541808491303
 21
22.499433939954994
 31
0.0
  0
LINE
  8
0
 62
0
 10
105.44541808491303
 20
22.499433939954994
 30
0.0
 11
104.64481765258903
 21
22.499433939954994
 31
0.0
  0
LINE
  8
0
 62
0
 10
104.64481765258903
 20
22.499433939954994
 30
0.0
 11
104.64481765258903
 21
21.500333400440994
 31
0.0
  0
LINE
  8
0
 62
0
 10
104.64481765258901
 20
21.500333400440994
 30
0.0
 11
90.64526009283232
 21
21.500333400440994
 31
0.0
  0
LINE
  8
0
 62
0
 10
90.64526009283232
 20
21.500333400440994
 30
0.0
 11
90.64526009283232
 21
22.499433939954994
 31
0.0
  0
LINE
  8
0
 62
0
 10
90.64526009283232
 20
22.499433939954994
 30
0.0
 11
89.84599966123191
 21
22.499433939954994
 31
0.0
  0
LINE
  8
0
 62
0
 10
89.84599966123191
 20
22.499433939954997
 30
0.0
 11
89.84599966123191
 21
25.599935614224997
 31
0.0
  0
LINE
  8
0
 62
0
 10
89.84599966123191
 20
25.599935614224997
 30
0.0
 11
90.64526009283232
 21
25.599935614224997
 31
0.0
  0
LINE
  8
0
 62
0
 10
90.64526009283232
 20
25.599935614224997
 30
0.0
 11
90.64526009283232
 21
31.400038746278998
 31
0.0
  0
LINE
  8
0
 62
0
 10
90.64526009283232
 20
31.400038746278998
 30
0.0
 11
89.84599966123191
 21
31.400038746278998
 31
0.0
  0
LINE
  8
0
 62
0
 10
89.84599966123191
 20
31.400038746278994
 30
0.0
 11
89.84599966123191
 21
34.49954042000899
 31
0.0
  0
LINE
  8
0
 62
0
 10
89.84599966123191
 20
34.49954042000899
 30
0.0
 11
90.64526009283232
 21
34.49954042000899
 31
0.0
  0
LINE
  8
0
 62
0
 10
90.64526009283232
 20
34.49954042000899
 30
0.0
 11
90.64526009283232
 21
35.49964096006309
 31
0.0
  0
LINE
  8
0
 62
0
 10
90.64526009283233
 20
35.49964096006309
 30
0.0
 11
104.64481765258903
 21
35.49964096006309
 31
0.0
  0
LINE
  8
0
 62
0
 10
104.64481765258903
 20
16.49962816006299
 30
0.0
 11
104.64481765258903
 21
15.49952762000899
 31
0.0
  0
LINE
  8
0
 62
0
 10
104.64481765258903
 20
15.49952762000899
 30
0.0
 11
105.44541808491303
 21
15.49952762000899
 31
0.0
  0
LINE
  8
0
 62
0
 10
105.44541808491303
 20
15.49952762000899
 30
0.0
 11
105.44541808491303
 21
12.40002594627899
 31
0.0
  0
LINE
  8
0
 62
0
 10
105.44541808491303
 20
12.40002594627899
 30
0.0
 11
104.64481765258903
 21
12.40002594627899
 31
0.0
  0
LINE
  8
0
 62
0
 10
104.64481765258903
 20
12.40002594627899
 30
0.0
 11
104.64481765258903
 21
6.59992281422498
 31
0.0
  0
LINE
  8
0
 62
0
 10
104.64481765258903
 20
6.59992281422498
 30
0.0
 11
105.44541808491303
 21
6.59992281422498
 31
0.0
  0
LINE
  8
0
 62
0
 10
105.44541808491303
 20
6.599922814224979
 30
0.0
 11
105.44541808491303
 21
3.499421139955049
 31
0.0
  0
LINE
  8
0
 62
0
 10
105.44541808491303
 20
3.499421139955049
 30
0.0
 11
104.64481765258903
 21
3.499421139955049
 31
0.0
  0
LINE
  8
0
 62
0
 10
104.64481765258903
 20
3.4994211399550488
 30
0.0
 11
104.64481765258903
 21
2.500320600440999
 31
0.0
  0
LINE
  8
0
 62
0
 10
104.64481765258901
 20
2.500320600440999
 30
0.0
 11
90.64526009283232
 21
2.500320600440999
 31
0.0
  0
LINE
  8
0
 62
0
 10
90.64526009283232
 20
2.5003206004409995
 30
0.0
 11
90.64526009283232
 21
3.499421139955049
 31
0.0
  0
LINE
  8
0
 62
0
 10
90.64526009283232
 20
3.499421139955049
 30
0.0
 11
89.84599966123191
 21
3.499421139955049
 31
0.0
  0
LINE
  8
0
 62
0
 10
89.84599966123191
 20
3.49942113995505
 30
0.0
 11
89.84599966123191
 21
6.59992281422498
 31
0.0
  0
LINE
  8
0
 62
0
 10
89.84599966123191
 20
6.59992281422498
 30
0.0
 11
90.64526009283232
 21
6.59992281422498
 31
0.0
  0
LINE
  8
0
 62
0
 10
90.64526009283232
 20
6.599922814224981
 30
0.0
 11
90.64526009283232
 21
12.40002594627899
 31
0.0
  0
LINE
  8
0
 62
0
 10
90.64526009283232
 20
12.40002594627899
 30
0.0
 11
89.84599966123191
 21
12.40002594627899
 31
0.0
  0
LINE
  8
0
 62
0
 10
89.84599966123191
 20
12.40002594627899
 30
0.0
 11
89.84599966123191
 21
15.49952762000899
 31
0.0
  0
LINE
  8
0
 62
0
 10
89.84599966123191
 20
15.49952762000899
 30
0.0
 11
90.64526009283232
 21
15.49952762000899
 31
0.0
  0
LINE
  8
0
 62
0
 10
90.64526009283232
 20
15.499527620008992
 30
0.0
 11
90.64526009283232
 21
16.499628160062993
 31
0.0
  0
LINE
  8
0
 62
0
 10
90.64526009283233
 20
16.499628160062993
 30
0.0
 11
104.64481765258903
 21
16.499628160062993
 31
0.0
  0
LINE
  8
0
 62
0
 10
123.64483045258903
 20
73.499666560063
 30
0.0
 11
123.64483045258903
 21
72.499566020009
 31
0.0
  0
LINE
  8
0
 62
0
 10
123.64483045258903
 20
72.499566020009
 30
0.0
 11
124.44543088491302
 21
72.499566020009
 31
0.0
  0
LINE
  8
0
 62
0
 10
124.44543088491302
 20
72.499566020009
 30
0.0
 11
124.44543088491302
 21
69.400064346279
 31
0.0
  0
LINE
  8
0
 62
0
 10
124.44543088491302
 20
69.400064346279
 30
0.0
 11
123.64483045258903
 21
69.400064346279
 31
0.0
  0
LINE
  8
0
 62
0
 10
123.64483045258903
 20
69.400064346279
 30
0.0
 11
123.64483045258903
 21
63.599961214225
 31
0.0
  0
LINE
  8
0
 62
0
 10
123.64483045258903
 20
63.599961214225
 30
0.0
 11
124.44543088491302
 21
63.599961214225
 31
0.0
  0
LINE
  8
0
 62
0
 10
124.44543088491302
 20
63.599961214225
 30
0.0
 11
124.44543088491302
 21
60.499459539955
 31
0.0
  0
LINE
  8
0
 62
0
 10
124.44543088491302
 20
60.499459539955
 30
0.0
 11
123.64483045258903
 21
60.499459539955
 31
0.0
  0
LINE
  8
0
 62
0
 10
123.64483045258903
 20
60.499459539955
 30
0.0
 11
123.64483045258903
 21
59.500359000441
 31
0.0
  0
LINE
  8
0
 62
0
 10
123.64483045258903
 20
59.500359000441
 30
0.0
 11
109.64527289283203
 21
59.500359000441
 31
0.0
  0
LINE
  8
0
 62
0
 10
109.64527289283203
 20
59.500359000441
 30
0.0
 11
109.64527289283203
 21
60.499459539955
 31
0.0
  0
LINE
  8
0
 62
0
 10
109.64527289283203
 20
60.499459539955
 30
0.0
 11
108.84601246123202
 21
60.499459539955
 31
0.0
  0
LINE
  8
0
 62
0
 10
108.84601246123202
 20
60.499459539955
 30
0.0
 11
108.84601246123202
 21
63.599961214225
 31
0.0
  0
LINE
  8
0
 62
0
 10
108.84601246123202
 20
63.599961214225
 30
0.0
 11
109.64527289283203
 21
63.599961214225
 31
0.0
  0
LINE
  8
0
 62
0
 10
109.64527289283203
 20
63.599961214225
 30
0.0
 11
109.64527289283203
 21
69.400064346279
 31
0.0
  0
LINE
  8
0
 62
0
 10
109.64527289283203
 20
69.400064346279
 30
0.0
 11
108.84601246123202
 21
69.400064346279
 31
0.0
  0
LINE
  8
0
 62
0
 10
108.84601246123202
 20
69.400064346279
 30
0.0
 11
108.84601246123202
 21
72.499566020009
 31
0.0
  0
LINE
  8
0
 62
0
 10
108.84601246123202
 20
72.499566020009
 30
0.0
 11
109.64527289283203
 21
72.499566020009
 31
0.0
  0
LINE
  8
0
 62
0
 10
109.64527289283203
 20
72.499566020009
 30
0.0
 11
109.64527289283203
 21
73.499666560063
 31
0.0
  0
LINE
  8
0
 62
0
 10
109.64527289283203
 20
73.499666560063
 30
0.0
 11
123.64483045258903
 21
73.499666560063
 31
0.0
  0
LINE
  8
0
 62
0
 10
123.64483045258903
 20
54.499653760063
 30
0.0
 11
123.64483045258903
 21
53.499553220009
 31
0.0
  0
LINE
  8
0
 62
0
 10
123.64483045258903
 20
53.499553220009
 30
0.0
 11
124.44543088491302
 21
53.499553220009
 31
0.0
  0
LINE
  8
0
 62
0
 10
124.44543088491302
 20
53.499553220009
 30
0.0
 11
124.44543088491302
 21
50.400051546279
 31
0.0
  0
LINE
  8
0
 62
0
 10
124.44543088491302
 20
50.400051546279
 30
0.0
 11
123.64483045258903
 21
50.400051546279
 31
0.0
  0
LINE
  8
0
 62
0
 10
123.64483045258903
 20
50.400051546278995
 30
0.0
 11
123.64483045258903
 21
44.59994841422499
 31
0.0
  0
LINE
  8
0
 62
0
 10
123.64483045258903
 20
44.59994841422499
 30
0.0
 11
124.44543088491302
 21
44.59994841422499
 31
0.0
  0
LINE
  8
0
 62
0
 10
124.44543088491302
 20
44.59994841422499
 30
0.0
 11
124.44543088491302
 21
41.49944673995509
 31
0.0
  0
LINE
  8
0
 62
0
 10
124.44543088491302
 20
41.49944673995509
 30
0.0
 11
123.64483045258903
 21
41.49944673995509
 31
0.0
  0
LINE
  8
0
 62
0
 10
123.64483045258903
 20
41.49944673995509
 30
0.0
 11
123.64483045258903
 21
40.500346200440994
 31
0.0
  0
LINE
  8
0
 62
0
 10
123.64483045258903
 20
40.500346200440994
 30
0.0
 11
109.64527289283203
 21
40.500346200440994
 31
0.0
  0
LINE
  8
0
 62
0
 10
109.64527289283203
 20
40.500346200440994
 30
0.0
 11
109.64527289283203
 21
41.49944673995509
 31
0.0
  0
LINE
  8
0
 62
0
 10
109.64527289283203
 20
41.49944673995509
 30
0.0
 11
108.84601246123202
 21
41.49944673995509
 31
0.0
  0
LINE
  8
0
 62
0
 10
108.84601246123202
 20
41.49944673995509
 30
0.0
 11
108.84601246123202
 21
44.59994841422499
 31
0.0
  0
LINE
  8
0
 62
0
 10
108.84601246123202
 20
44.59994841422499
 30
0.0
 11
109.64527289283203
 21
44.59994841422499
 31
0.0
  0
LINE
  8
0
 62
0
 10
109.64527289283203
 20
44.599948414225
 30
0.0
 11
109.64527289283203
 21
50.400051546279
 31
0.0
  0
LINE
  8
0
 62
0
 10
109.64527289283203
 20
50.400051546279
 30
0.0
 11
108.84601246123202
 21
50.400051546279
 31
0.0
  0
LINE
  8
0
 62
0
 10
108.84601246123202
 20
50.400051546279
 30
0.0
 11
108.84601246123202
 21
53.499553220009
 31
0.0
  0
LINE
  8
0
 62
0
 10
108.84601246123202
 20
53.499553220009
 30
0.0
 11
109.64527289283203
 21
53.499553220009
 31
0.0
  0
LINE
  8
0
 62
0
 10
109.64527289283203
 20
53.499553220009
 30
0.0
 11
109.64527289283203
 21
54.499653760063
 31
0.0
  0
LINE
  8
0
 62
0
 10
109.64527289283203
 20
54.499653760063
 30
0.0
 11
123.64483045258903
 21
54.499653760063
 31
0.0
  0
LINE
  8
0
 62
0
 10
123.64483045258903
 20
21.500333400440994
 30
0.0
 11
109.64527289283203
 21
21.500333400440994
 31
0.0
  0
LINE
  8
0
 62
0
 10
109.64527289283203
 20
21.500333400440994
 30
0.0
 11
109.64527289283203
 21
22.499433939954994
 31
0.0
  0
LINE
  8
0
 62
0
 10
109.64527289283203
 20
22.499433939954994
 30
0.0
 11
108.84601246123202
 21
22.499433939954994
 31
0.0
  0
LINE
  8
0
 62
0
 10
108.84601246123202
 20
22.499433939954997
 30
0.0
 11
108.84601246123202
 21
25.599935614224997
 31
0.0
  0
LINE
  8
0
 62
0
 10
108.84601246123202
 20
25.599935614224997
 30
0.0
 11
109.64527289283203
 21
25.599935614224997
 31
0.0
  0
LINE
  8
0
 62
0
 10
109.64527289283203
 20
25.599935614224997
 30
0.0
 11
109.64527289283203
 21
31.400038746278998
 31
0.0
  0
LINE
  8
0
 62
0
 10
109.64527289283203
 20
31.400038746278998
 30
0.0
 11
108.84601246123202
 21
31.400038746278998
 31
0.0
  0
LINE
  8
0
 62
0
 10
108.84601246123202
 20
31.400038746278994
 30
0.0
 11
108.84601246123202
 21
34.49954042000899
 31
0.0
  0
LINE
  8
0
 62
0
 10
108.84601246123202
 20
34.49954042000899
 30
0.0
 11
109.64527289283203
 21
34.49954042000899
 31
0.0
  0
LINE
  8
0
 62
0
 10
109.64527289283203
 20
34.49954042000899
 30
0.0
 11
109.64527289283203
 21
35.49964096006309
 31
0.0
  0
LINE
  8
0
 62
0
 10
109.64527289283203
 20
35.49964096006309
 30
0.0
 11
123.64483045258903
 21
35.49964096006309
 31
0.0
  0
LINE
  8
0
 62
0
 10
123.64483045258903
 20
35.49964096006309
 30
0.0
 11
123.64483045258903
 21
34.49954042000899
 31
0.0
  0
LINE
  8
0
 62
0
 10
123.64483045258903
 20
34.49954042000899
 30
0.0
 11
124.44543088491302
 21
34.49954042000899
 31
0.0
  0
LINE
  8
0
 62
0
 10
124.44543088491302
 20
34.499540420009
 30
0.0
 11
124.44543088491302
 21
31.400038746278998
 31
0.0
  0
LINE
  8
0
 62
0
 10
124.44543088491302
 20
31.400038746278998
 30
0.0
 11
123.64483045258903
 21
31.400038746278998
 31
0.0
  0
LINE
  8
0
 62
0
 10
123.64483045258903
 20
31.400038746278998
 30
0.0
 11
123.64483045258903
 21
25.599935614224997
 31
0.0
  0
LINE
  8
0
 62
0
 10
123.64483045258903
 20
25.599935614224997
 30
0.0
 11
124.44543088491302
 21
25.599935614224997
 31
0.0
  0
LINE
  8
0
 62
0
 10
124.44543088491302
 20
25.599935614224993
 30
0.0
 11
124.44543088491302
 21
22.499433939954994
 31
0.0
  0
LINE
  8
0
 62
0
 10
124.44543088491302
 20
22.499433939954994
 30
0.0
 11
123.64483045258903
 21
22.499433939954994
 31
0.0
  0
LINE
  8
0
 62
0
 10
123.64483045258903
 20
22.499433939954994
 30
0.0
 11
123.64483045258903
 21
21.500333400440994
 31
0.0
  0
ENDBLK
  0
ENDSEC
  0
SECTION
  2
ENTITIES
  0
INSERT
  2
SHAPE2DVIEW
  8
0
 62
0
 10
0.0
 20
0.0
 30
0.0
  0
ENDSEC
  0
EOF
